<svg xmlns="http://www.w3.org/2000/svg" width="600" height="600">
	<path d="M270 0L136.12 153h-135L0 447h135l135 153z"/>
	<g>
		<path d="M600 300C600 144.44 481.6 16.54 330 1.49v75.5C440.08 91.66 525 185.91 525 300s-84.92 208.34-195 223v75.51C481.6 583.46 600 455.56 600 300z"/>
		<path d="M450 300c0-72.57-51.53-133.1-120-147v294c68.47-13.9 120-74.43 120-147z"/>
	</g>
	<path d="M600 209.31L555.69 165 465 255.69 374.31 165 330 209.31 420.69 300 330 390.69 374.31 435 465 344.31 555.69 435 600 390.69 509.31 300z"/>
</svg>