<svg xmlns="http://www.w3.org/2000/svg" width="255.021" height="76.456" viewBox="-63.579 5.122 255.021 76.456"><path fill="#FFF" d="M-46.003 42.705c-.98.474-3.149 1.02-5.923 1.02-7.25 0-11.653-4.541-11.653-11.517 0-7.518 5.25-12.059 12.229-12.059 2.738 0 4.674.576 5.519 1.018l-.881 3.32c-1.083-.474-2.608-.884-4.469-.884-4.64 0-7.995 2.915-7.995 8.402 0 5.046 2.913 8.23 7.96 8.23 1.662 0 3.42-.34 4.54-.814l.673 3.284zM-34.888 20.522v22.827h-4.171V20.522h4.171zM-22.155 36.884l-1.965 6.465h-4.303l7.317-22.827h5.316l7.416 22.827h-4.507l-2.063-6.465h-7.211zm6.536-3.151l-1.796-5.624c-.443-1.388-.811-2.945-1.147-4.268h-.071c-.339 1.322-.714 2.914-1.084 4.268l-1.764 5.624h5.862zM-1.799 20.861c1.591-.303 3.891-.508 6.295-.508 3.288 0 5.487.544 7.047 1.834 1.252 1.048 1.963 2.639 1.963 4.603 0 2.953-1.996 4.943-4.165 5.691v.1c1.655.608 2.64 2.203 3.18 4.405.75 2.846 1.356 5.484 1.796 6.363h-4.265c-.342-.68-.917-2.536-1.525-5.383-.673-2.98-1.727-3.928-4.099-3.996h-2.1v9.378h-4.127V20.861zm4.127 10.058h2.476c2.811 0 4.538-1.49 4.538-3.758 0-2.472-1.728-3.657-4.438-3.657-1.319 0-2.167.098-2.576.2v7.215zM-59.272 58.126c-.227.115-.696.229-1.289.229-1.372 0-2.397-.867-2.397-2.47 0-1.534 1.031-2.558 2.544-2.558.597 0 .987.126 1.157.214l-.162.51a2.28 2.28 0 0 0-.977-.201c-1.144 0-1.903.735-1.903 2.011 0 1.202.688 1.958 1.87 1.958.39 0 .781-.079 1.033-.201l.124.508zM-55.723 55.993h-1.887v1.757h2.111v.53h-2.745v-4.877h2.635v.528h-2.001v1.541h1.887v.521zM-54.436 58.28v-4.877h.694l1.553 2.468c.352.571.644 1.081.867 1.582l.021-.008a21.204 21.204 0 0 1-.071-1.999v-2.043h.594v4.877h-.642l-1.542-2.479c-.34-.54-.666-1.093-.905-1.625l-.023.005c.037.617.046 1.204.046 2.017v2.082h-.592zM-48.515 53.939h-1.48v-.536h3.604v.536h-1.489v4.341h-.636v-4.341zM-45.606 53.471c.32-.058.779-.102 1.205-.102.674 0 1.117.13 1.414.397.239.216.383.551.383.937 0 .63-.406 1.059-.911 1.233v.02c.368.129.591.478.707.987.158.675.275 1.147.375 1.337h-.648c-.082-.146-.186-.557-.323-1.164-.14-.674-.408-.928-.98-.95h-.591v2.114h-.63v-4.809zm.63 2.217h.639c.676 0 1.101-.37 1.101-.926 0-.63-.454-.904-1.122-.904-.305 0-.512.022-.618.051v1.779zM-37.293 55.792c0 1.672-1.016 2.563-2.264 2.563-1.29 0-2.189-1.002-2.189-2.479 0-1.548.956-2.559 2.257-2.559 1.338.001 2.196 1.019 2.196 2.475zm-3.786.069c0 1.05.564 1.984 1.561 1.984.999 0 1.563-.92 1.563-2.025 0-.975-.509-1.988-1.555-1.988-1.049 0-1.569.967-1.569 2.029zM-33.826 53.403v4.877h-.641v-4.877h.641zM-32.493 58.28v-4.877h.696l1.552 2.468c.355.571.644 1.081.87 1.582l.02-.008a22.683 22.683 0 0 1-.069-1.999v-2.043h.592v4.877h-.639l-1.547-2.479a14.75 14.75 0 0 1-.905-1.625l-.025.005c.042.617.05 1.204.05 2.017v2.082h-.595zM-26.567 53.939h-1.483v-.536h3.61v.536h-1.494v4.341h-.634v-4.341zM-21.146 55.993h-1.885v1.757h2.111v.53h-2.745v-4.877h2.637v.528h-2.003v1.541h1.885v.521zM-16.146 58.057a4.23 4.23 0 0 1-1.502.276c-.738 0-1.347-.193-1.822-.65-.421-.406-.678-1.05-.678-1.812 0-1.456 1.003-2.521 2.641-2.521.561 0 1.009.128 1.218.224l-.158.521c-.261-.122-.588-.215-1.08-.215-1.186 0-1.961.737-1.961 1.962 0 1.235.739 1.964 1.882 1.964.413 0 .698-.057.838-.13v-1.452h-.978v-.51h1.601v2.343zM-14.949 53.471a7.305 7.305 0 0 1 1.204-.102c.675 0 1.116.13 1.415.397.237.216.381.551.381.937 0 .63-.405 1.059-.907 1.233v.02c.363.129.589.478.703.987.164.675.275 1.147.377 1.337h-.649c-.08-.146-.187-.557-.319-1.164-.143-.674-.409-.928-.98-.95h-.596v2.114h-.628v-4.809zm.628 2.217h.644c.676 0 1.101-.37 1.101-.926 0-.63-.456-.904-1.122-.904-.301 0-.514.022-.623.051v1.779zM-9.997 56.745l-.504 1.535h-.651l1.664-4.877h.75l1.666 4.877h-.675l-.521-1.535h-1.729zm1.605-.49l-.484-1.401c-.108-.319-.18-.609-.254-.896h-.011c-.074.286-.148.589-.25.888l-.477 1.409h1.476zM-6.123 53.479a8.202 8.202 0 0 1 1.341-.109c.904 0 1.549.217 1.975.605.439.397.692.962.692 1.75 0 .795-.253 1.448-.698 1.894-.465.459-1.216.703-2.163.703-.455 0-.827-.024-1.147-.06v-4.783zm.634 4.308c.164.02.39.026.634.026 1.355 0 2.078-.75 2.078-2.066.008-1.147-.644-1.875-1.975-1.875a3.72 3.72 0 0 0-.737.06v3.855zM3.102 55.792c0 1.672-1.018 2.563-2.264 2.563-1.294 0-2.19-1.002-2.19-2.479 0-1.548.956-2.559 2.26-2.559 1.334.001 2.194 1.019 2.194 2.475zm-3.787.069c0 1.05.565 1.984 1.562 1.984 1.001 0 1.562-.92 1.562-2.025 0-.975-.505-1.988-1.555-1.988-1.046 0-1.569.967-1.569 2.029zM5.933 53.479a8.097 8.097 0 0 1 1.338-.109c.902 0 1.549.217 1.975.605.44.397.695.962.695 1.75 0 .795-.255 1.448-.705 1.894-.461.459-1.213.703-2.157.703-.46 0-.831-.024-1.146-.06v-4.783zm.627 4.308c.161.02.392.026.638.026 1.351 0 2.075-.75 2.075-2.066.01-1.147-.642-1.875-1.97-1.875-.329 0-.576.025-.742.06v3.855zM13.506 55.993h-1.884v1.757h2.107v.53H10.98v-4.877h2.637v.528h-1.996v1.541h1.884v.521zM-62.11 65.43l-.505 1.531h-.65l1.664-4.876h.75l1.665 4.876h-.672l-.523-1.531h-1.729zm1.605-.497l-.484-1.399a10.699 10.699 0 0 1-.252-.89h-.014c-.076.28-.144.583-.244.885l-.478 1.404h1.472zM-58.472 62.144a7.077 7.077 0 0 1 1.208-.094c.622 0 1.08.141 1.372.402.255.231.419.587.419 1.02 0 .443-.125.79-.373 1.04-.338.361-.875.538-1.491.538-.185 0-.359-.006-.505-.044v1.955h-.63v-4.817zm.631 2.347c.136.041.314.055.522.055.759 0 1.22-.377 1.22-1.041 0-.646-.461-.951-1.149-.951-.272 0-.48.017-.592.045v1.892zM-54.624 62.149c.322-.059.779-.1 1.211-.1.672 0 1.112.132 1.408.395.241.221.384.553.384.935 0 .636-.402 1.067-.91 1.238v.024c.366.126.591.474.707.983.162.674.278 1.149.375 1.336h-.647c-.082-.149-.191-.556-.32-1.167-.145-.669-.411-.921-.986-.943h-.592v2.11h-.631v-4.811zm.631 2.221h.645c.671 0 1.101-.368 1.101-.923 0-.63-.459-.905-1.121-.905-.307 0-.516.021-.625.051v1.777zM-48.214 64.677H-50.1v1.755h2.11v.529h-2.748v-4.876h2.639v.527H-50.1v1.54h1.885v.525zM-47.168 66.961v-4.876h.689l1.558 2.468c.353.572.644 1.084.867 1.58l.021-.006a23.538 23.538 0 0 1-.071-2.005v-2.037h.591v4.876h-.639l-1.542-2.478c-.34-.54-.667-1.097-.909-1.625l-.021.008c.039.615.047 1.201.047 2.011v2.084h-.591zM-42.409 62.16c.382-.069.838-.11 1.338-.11.901 0 1.545.22 1.969.607.443.398.695.961.695 1.749 0 .798-.252 1.444-.699 1.893-.462.457-1.215.705-2.161.705-.46 0-.827-.021-1.143-.055V62.16zm.626 4.308c.158.024.395.028.638.028 1.353 0 2.076-.751 2.076-2.071.006-1.147-.647-1.871-1.973-1.871-.324 0-.573.022-.74.059v3.855zM-36.963 62.085v4.876h-.638v-4.876h.638zM-36.199 66.594l2.703-3.959v-.022h-2.471v-.527h3.292v.384l-2.691 3.94v.022h2.729v.529h-3.562v-.367zM-31.075 65.43l-.507 1.531h-.65l1.665-4.876h.75l1.664 4.876h-.676l-.518-1.531h-1.728zm1.604-.497l-.485-1.399c-.106-.321-.178-.609-.253-.89h-.015c-.07.28-.143.583-.241.885l-.481 1.404h1.475zM-23.831 66.744a4.411 4.411 0 0 1-1.502.268c-.738 0-1.345-.187-1.825-.646-.418-.4-.676-1.054-.676-1.813 0-1.457 1.005-2.519 2.635-2.519.566 0 1.014.126 1.225.228l-.16.512c-.262-.124-.587-.21-1.074-.21-1.19 0-1.96.738-1.96 1.963 0 1.232.736 1.966 1.879 1.966.414 0 .693-.061.84-.138v-1.446h-.986v-.51h1.604v2.345zM-20.358 64.677h-1.885v1.755h2.11v.529h-2.748v-4.876h2.639v.527h-2.001v1.54h1.885v.525zM-15.207 64.82a41.226 41.226 0 0 1-.079-2.103h-.017c-.172.56-.365 1.173-.613 1.851l-.862 2.362h-.474l-.795-2.321a24.478 24.478 0 0 1-.559-1.892h-.012a64.706 64.706 0 0 1-.094 2.155l-.133 2.088h-.599l.34-4.876h.803l.832 2.361c.202.598.362 1.132.494 1.64h.013c.127-.495.302-1.029.517-1.64l.869-2.361h.806l.301 4.876h-.624l-.114-2.14zM-9.446 64.677h-1.889v1.755h2.111v.529h-2.75v-4.876h2.64v.527h-2.001v1.54h1.889v.525zM-4.298 64.82a41.323 41.323 0 0 1-.081-2.103h-.015c-.171.56-.367 1.173-.612 1.851l-.864 2.362h-.475l-.796-2.321a20.926 20.926 0 0 1-.555-1.892h-.017a59.87 59.87 0 0 1-.095 2.155l-.129 2.088h-.598l.338-4.876h.802l.831 2.361c.2.598.365 1.132.493 1.64h.012a23.01 23.01 0 0 1 .524-1.64l.866-2.361h.804l.305 4.876h-.624l-.114-2.14zM-1.055 62.149c.318-.059.78-.1 1.208-.1.673 0 1.11.132 1.409.395.242.221.383.553.383.935 0 .636-.406 1.067-.911 1.238v.024c.367.126.594.474.707.983.164.674.276 1.149.375 1.336h-.648c-.081-.149-.186-.556-.316-1.167-.147-.669-.414-.921-.985-.943h-.592v2.11h-.63v-4.811zm.63 2.221h.642c.676 0 1.101-.368 1.101-.923 0-.63-.46-.905-1.121-.905-.306 0-.514.021-.622.051v1.777zM5.351 64.677H3.467v1.755h2.111v.529H2.832v-4.876h2.635v.527h-2v1.54H5.35v.525zM6.395 62.16a7.64 7.64 0 0 1 1.337-.11c.903 0 1.551.22 1.976.607.441.398.693.961.693 1.749 0 .798-.252 1.444-.701 1.893-.464.457-1.217.705-2.163.705-.457 0-.823-.021-1.143-.055V62.16zm.632 4.308c.158.024.385.028.637.028 1.346 0 2.069-.751 2.069-2.071.009-1.147-.642-1.871-1.971-1.871-.327 0-.572.022-.735.059v3.855zM13.73 64.677h-1.892v1.755h2.113v.529h-2.744v-4.876h2.639v.527h-2.008v1.54h1.892v.525z"/><path fill-rule="evenodd" clip-rule="evenodd" fill="#FFF" d="M54.354 33.895l5.892 3.404 5.892 3.408V54.322l-5.892 3.41-5.892 3.398-5.892-3.398-5.889-3.41V40.707l5.889-3.408 5.892-3.404zm11.805-17.697l-4.713 2.72-4.713 2.72V32.518l4.713 2.722 4.713 2.72 4.713-2.72 4.714-2.722V21.638l-4.714-2.72-4.713-2.72zm7.099 42.24l3.549 2.035 3.549 2.037V70.665L76.807 72.7l-3.549 2.037L69.71 72.7l-3.553-2.035V62.51l3.553-2.037 3.548-2.035zm30.683-23.163l4.724 2.72 4.729 2.72V51.59l-4.729 2.724-4.724 2.718-4.73-2.718-4.725-2.724V40.715l4.725-2.72 4.73-2.72zM94.24 5.122l-7.081 4.085-7.082 4.087v16.335l7.082 4.085L94.24 37.8l7.083-4.085 7.08-4.085V13.295l-7.08-4.087-7.083-4.086zm.242 49.195l-5.897 3.404-5.9 3.408v13.628l5.9 3.41 5.897 3.408 5.898-3.408 5.896-3.41V61.13l-5.896-3.408-5.898-3.405z"/><path fill="#FFF" d="M121.577 20.594V34.1c.007 2.56.389 4.659 1.15 6.295.764 1.642 1.858 2.854 3.296 3.64 1.437.786 3.179 1.175 5.219 1.168 2.114 0 3.924-.397 5.434-1.198 1.501-.804 2.652-2.017 3.457-3.651.794-1.63 1.202-3.688 1.206-6.18v-13.58h-5.462v13.903c-.006 2.149-.39 3.743-1.147 4.781-.764 1.033-1.862 1.548-3.305 1.539-1.396 0-2.47-.522-3.229-1.582-.758-1.055-1.144-2.635-1.152-4.738V20.594h-5.467zm27.874 24.212h5.46v-9.733h8.695v-4.456h-8.695v-5.536h9.305v-4.487h-14.765v24.212zm41.738-13.832h-9.019v4.279h3.737v5.065c-.225.094-.57.167-1.029.224-.471.063-1.014.098-1.631.098-1.127 0-2.155-.177-3.088-.526a6.713 6.713 0 0 1-2.423-1.546c-.681-.677-1.208-1.501-1.58-2.482-.366-.976-.555-2.088-.561-3.348.006-1.316.207-2.468.615-3.449.4-.986.971-1.808 1.694-2.462a7.252 7.252 0 0 1 2.555-1.473c.973-.323 2.037-.485 3.183-.485.882 0 1.666.047 2.341.132.678.09 1.281.218 1.81.373.534.154 1.02.333 1.454.545l1.151-4.465c-.394-.171-.924-.338-1.578-.512a19.116 19.116 0 0 0-2.271-.427 24.94 24.94 0 0 0-2.87-.171c-1.995 0-3.833.278-5.505.842-1.676.564-3.136 1.38-4.377 2.468-1.239 1.082-2.202 2.408-2.893 3.974-.688 1.576-1.042 3.373-1.06 5.396 0 1.187.132 2.317.401 3.391a11.954 11.954 0 0 0 1.156 2.981c.502.91 1.123 1.725 1.856 2.431 1.109 1.062 2.474 1.867 4.101 2.414 1.625.544 3.539.82 5.742.82a23.638 23.638 0 0 0 3.145-.228 28.333 28.333 0 0 0 2.805-.528c.854-.207 1.57-.41 2.137-.611v-12.72z"/><path fill-rule="evenodd" clip-rule="evenodd" fill="#FFF" d="M121.531 53.023v3.059c0 1.743.804 2.517 2.188 2.517 1.432 0 2.287-.806 2.287-2.498v-3.077h-1.239v3.15c0 .978-.357 1.432-1.01 1.432-.627 0-.989-.479-.989-1.432v-3.15h-1.237v-.001zm8.062 5.489v-1.655c0-.896-.019-1.668-.057-2.4h.032c.262.646.627 1.344.954 1.936l1.17 2.12h1.303v-5.488h-1.138v1.595c0 .831.024 1.572.096 2.295h-.017c-.25-.617-.57-1.3-.896-1.879l-1.14-2.011h-1.448v5.488h1.141v-.001zm5.857-5.489v5.488h1.237v-5.488h-1.237zm6.433 5.489l1.845-5.488h-1.318l-.702 2.344a22.5 22.5 0 0 0-.494 1.938h-.024a22.793 22.793 0 0 0-.491-1.963l-.667-2.319h-1.356l1.759 5.488h1.448zm7.068-3.333h-2.019v-1.136h2.141v-1.02h-3.378v5.488h3.49v-1.016h-2.253V56.19h2.019v-1.011zm2.456 3.333h1.229v-2.169h.367c.512.008.749.192.903.883.153.679.293 1.13.374 1.286h1.27c-.107-.215-.271-.935-.438-1.563-.139-.506-.354-.866-.733-1.021v-.02c.471-.175.971-.652.971-1.345 0-.5-.181-.882-.516-1.142-.391-.317-.959-.438-1.775-.438-.666 0-1.253.048-1.651.121v5.408h-.001zm1.23-4.562c.087-.022.26-.039.558-.039.571 0 .916.26.916.754 0 .479-.369.784-.986.784h-.487V53.95h-.001zm4.755 4.308c.312.171.93.341 1.558.341 1.507 0 2.204-.783 2.204-1.699 0-.782-.443-1.286-1.416-1.644-.715-.278-1.016-.435-1.016-.784 0-.274.26-.526.798-.526.53 0 .929.152 1.14.259l.276-.996c-.327-.154-.773-.273-1.401-.273-1.286 0-2.074.709-2.074 1.643 0 .809.602 1.312 1.516 1.64.66.226.916.427.916.764 0 .369-.301.603-.869.603a3.157 3.157 0 0 1-1.377-.343l-.255 1.015zm5.991-5.235v5.488h1.237v-5.488h-1.237zm3.684 5.464c.301.039.766.079 1.41.079 1.074 0 1.96-.228 2.539-.707.521-.448.903-1.17.903-2.226 0-.975-.359-1.659-.928-2.082-.521-.395-1.205-.568-2.257-.568-.615 0-1.213.04-1.668.121v5.383h.001zm1.236-4.505c.111-.024.296-.045.566-.045 1.074 0 1.741.559 1.741 1.741 0 1.31-.742 1.927-1.875 1.921-.145 0-.321 0-.433-.026v-3.591h.001zm8.656 3.121l.423 1.409h1.332l-1.712-5.488h-1.617l-1.676 5.488h1.286l.382-1.409h1.582zm-1.403-.929l.335-1.164c.082-.318.171-.731.244-1.06h.022c.081.316.183.734.27 1.06l.34 1.164h-1.211zm5.266 2.313a11 11 0 0 0 1.406.079c1.074 0 1.962-.228 2.541-.707.518-.448.903-1.17.903-2.226 0-.975-.359-1.659-.928-2.082-.519-.395-1.205-.568-2.259-.568-.617 0-1.211.04-1.664.121v5.383h.001zm1.234-4.505c.111-.024.296-.045.566-.045 1.072 0 1.741.559 1.741 1.741 0 1.31-.742 1.927-1.877 1.921-.145 0-.319 0-.431-.026v-3.591h.001zm9.067 1.197h-2.018v-1.136h2.139v-1.02h-3.38v5.488h3.494v-1.016h-2.253V56.19h2.018v-1.011zM121.509 66.637h1.236v-2.206h1.973v-1.012h-1.973v-1.251h2.11v-1.021h-3.347v5.49h.001zm7.316-3.331h-2.021v-1.138h2.145v-1.021h-3.38v5.49h3.492v-1.018h-2.257v-1.305h2.021v-1.008zm1.084 3.304c.301.044.764.081 1.406.081 1.074 0 1.968-.22 2.54-.707.526-.442.906-1.17.906-2.22 0-.978-.363-1.658-.932-2.086-.522-.396-1.205-.567-2.253-.567-.62 0-1.213.035-1.668.12v5.379h.001zm1.237-4.501c.104-.024.293-.049.561-.049 1.076 0 1.741.559 1.741 1.742 0 1.309-.738 1.928-1.871 1.92-.146-.002-.327 0-.431-.022v-3.591zm7.691 1.197h-2.016v-1.138h2.137v-1.021h-3.375v5.49h3.493v-1.018h-2.255v-1.305h2.016v-1.008zm1.086 3.331h1.228v-2.166h.367c.512 0 .749.186.904.884.152.679.29 1.126.375 1.282h1.268c-.105-.214-.271-.933-.438-1.561-.141-.508-.35-.867-.735-1.02v-.021c.472-.176.971-.655.971-1.347 0-.499-.183-.881-.516-1.142-.392-.312-.957-.437-1.773-.437-.664 0-1.251.047-1.649.12v5.408h-.002zm1.227-4.559c.089-.028.262-.04.561-.04.572 0 .912.258.912.755 0 .474-.366.782-.983.782h-.489v-1.497h-.001zm6.52 3.152l.425 1.406h1.336l-1.712-5.49H146.1l-1.676 5.49h1.284l.382-1.406h1.58zm-1.398-.929l.333-1.166c.088-.315.171-.729.242-1.057h.024c.083.317.175.733.27 1.057l.34 1.166h-1.209zm3.817 2.336h3.421v-1.044h-2.184v-4.446h-1.237v5.49zm6.03-.027c.303.044.769.081 1.41.081 1.072 0 1.962-.226 2.537-.707.525-.449.905-1.17.905-2.22 0-.978-.357-1.662-.928-2.086-.521-.4-1.205-.567-2.255-.567-.617 0-1.215.035-1.67.12v5.379h.001zm1.239-4.501c.105-.024.293-.049.561-.049 1.075 0 1.743.559 1.743 1.742 0 1.309-.741 1.928-1.873 1.92-.145 0-.325 0-.431-.022v-3.591zm7.693 1.197h-2.018v-1.138h2.142v-1.021h-3.38v5.49h3.493v-1.018h-2.255v-1.305h2.018v-1.008zm8.374.196h-2.045v.969h.845v1.148c-.094.04-.32.07-.599.07-1.019 0-1.735-.653-1.735-1.791 0-1.192.792-1.781 1.824-1.781.602 0 .971.098 1.271.237l.26-1.007c-.27-.116-.814-.256-1.525-.256-1.797 0-3.122 1.042-3.132 2.872 0 .804.276 1.517.772 1.996.507.483 1.23.731 2.233.731.722 0 1.446-.179 1.83-.309v-2.879h.001zm3.304 3.224c1.604 0 2.688-1.086 2.688-2.889 0-1.515-.922-2.778-2.606-2.778-1.608 0-2.67 1.228-2.67 2.874 0 1.564.962 2.793 2.583 2.793h.005zm.04-.985c-.827 0-1.324-.807-1.324-1.843 0-1.025.478-1.854 1.334-1.854.854 0 1.318.845 1.318 1.832 0 1.076-.479 1.865-1.318 1.865h-.01zm3.468-4.595v5.49h1.237v-5.49h-1.237zm5.163 4.084l.423 1.406h1.335l-1.709-5.49h-1.622l-1.676 5.49h1.287l.382-1.406h1.58zm-1.401-.929l.335-1.166c.08-.317.171-.729.244-1.057h.022c.081.317.179.729.271 1.057l.339 1.166h-1.211zm.841-4.471l-.711 1.023h.979l1.018-1.023h-1.286zm2.842 6.553c.311.172.925.343 1.554.343 1.506 0 2.206-.781 2.206-1.698 0-.786-.449-1.291-1.418-1.646-.717-.278-1.018-.433-1.018-.782 0-.276.263-.53.801-.53.528 0 .924.152 1.138.262l.276-.995c-.327-.156-.776-.276-1.4-.276-1.287 0-2.075.709-2.075 1.644 0 .807.603 1.311 1.515 1.639.658.228.92.431.92.767 0 .365-.304.603-.873.603-.53 0-1.05-.175-1.375-.345l-.251 1.014z"/></svg>