<svg xmlns="http://www.w3.org/2000/svg" width="57.428" height="86.512"><path fill="#FFF" d="M17.549 65.574h.954a2.769 2.769 0 0 1 2.769 2.769v11.829c0 4.29-2.617 6.34-6.988 6.34s-6.8-2.05-6.8-6.34V65.574h.972a2.751 2.751 0 0 1 2.752 2.752v11.656c0 1.97.863 3.238 3.076 3.238s3.266-1.269 3.266-3.238V65.574zM35.084 83.327v-.214h-8.23V77.77h3.994a3.022 3.022 0 0 0 3.021-3.022v-.323h-7.016v-5.479h5.586a3.022 3.022 0 0 0 3.022-3.022v-.377h-12.33V86.35h8.93a3.023 3.023 0 0 0 3.023-3.023zM43.014 74.505h3.965a3.023 3.023 0 0 1 3.023 3.022v2.375c0 4.56-2.158 6.529-7.096 6.529s-6.935-1.97-6.935-6.449v-8.338c0-4.235 1.915-6.205 6.935-6.205 3.867 0 6.464.98 6.826 3.547.205 1.459-.842 2.658-2.314 2.658h-1.14c0-1.942-.485-2.913-3.372-2.913-2.699 0-3.211 1.214-3.211 3.103v8.148c0 1.97.512 3.104 3.211 3.104 2.697 0 3.643-1.134 3.643-3.184v-2.024h-1.258a2.278 2.278 0 0 1-2.277-2.278v-1.095z"/><g><path fill="#FFF" d="M28.715 32.815l-2.357-2.356a2.47 2.47 0 0 1 0-3.491l11.137-11.136a4.988 4.988 0 0 0 0-7.053L28.715 0l-6.24 6.24a2.776 2.776 0 0 0 0 3.927l2.138 2.139 4.103-4.102 2.219 2.22a2.66 2.66 0 0 1 0 3.764L20.207 24.915a5.373 5.373 0 0 0 0 7.598l8.508 8.507 9.922-9.923a3.371 3.371 0 0 0 0-4.767l-1.719-1.719-8.203 8.204z"/><path fill="#FFF" d="M43.145 18.386L41.02 20.51l8.205 8.204-24.613 24.611 1.741 1.742a3.338 3.338 0 0 0 4.721 0l26.354-26.354L47.1 18.386a2.795 2.795 0 0 0-3.955 0zM8.205 28.713L20.51 16.407l-1.971-1.971a3.014 3.014 0 0 0-4.262 0L0 28.713l17.982 17.982a3.575 3.575 0 0 0 5.056 0l1.574-1.574L8.205 28.713z"/></g></svg>