<svg xmlns="http://www.w3.org/2000/svg" width="380.926" height="85.04"><path fill="#FFF" d="M118.947 13.279a15.216 15.216 0 0 0-10.74-10.74C98.732 0 60.742 0 60.742 0S22.754 0 13.279 2.539a15.215 15.215 0 0 0-10.74 10.74C0 22.753 0 42.52 0 42.52s0 19.767 2.539 29.241a15.213 15.213 0 0 0 10.74 10.74c9.475 2.539 47.463 2.539 47.463 2.539s37.99 0 47.465-2.539a15.213 15.213 0 0 0 10.74-10.74c2.539-9.474 2.539-29.241 2.539-29.241s0-19.767-2.539-29.241M48.595 60.743V24.297L80.156 42.52 48.595 60.743zM176.336 77.364c-2.404-1.62-4.113-4.141-5.125-7.559-1.014-3.416-1.521-7.963-1.521-13.64v-7.731c0-5.734.577-10.339 1.737-13.813 1.157-3.475 2.967-6.009 5.43-7.602 2.461-1.592 5.691-2.389 9.687-2.389 3.938 0 7.095.811 9.47 2.433 2.375 1.621 4.111 4.156 5.213 7.601 1.099 3.446 1.65 8.036 1.65 13.771v7.731c0 5.677-.536 10.238-1.606 13.684-1.072 3.445-2.811 5.966-5.213 7.558-2.404 1.593-5.663 2.389-9.774 2.389-4.229-.001-7.545-.812-9.948-2.433m13.467-8.341c.664-1.736.998-4.574.998-8.513V43.916c0-3.822-.334-6.616-.998-8.383-.668-1.766-1.841-2.65-3.52-2.65-1.622 0-2.766.884-3.432 2.65-.666 1.767-.998 4.561-.998 8.383v16.595c0 3.938.316 6.776.955 8.513.637 1.738 1.795 2.605 3.475 2.605 1.679 0 2.852-.867 3.52-2.606M360.857 56.293v2.692c0 3.418.1 5.981.304 7.689.202 1.709.621 2.954 1.26 3.736.637.78 1.62 1.173 2.954 1.173 1.794 0 3.025-.695 3.691-2.086.664-1.391 1.027-3.706 1.086-6.95l10.339.608c.058.465.087 1.102.087 1.91 0 4.925-1.348 8.603-4.04 11.035-2.692 2.432-6.502 3.648-11.424 3.648-5.907 0-10.049-1.853-12.424-5.561-2.376-3.706-3.562-9.439-3.562-17.201v-9.297c0-7.993 1.23-13.827 3.693-17.505 2.461-3.677 6.675-5.516 12.641-5.516 4.111 0 7.269.753 9.469 2.258 2.2 1.507 3.75 3.853 4.648 7.037.897 3.186 1.347 7.589 1.347 13.206v9.122h-20.069zm1.52-22.414c-.607.753-1.014 1.984-1.216 3.692-.204 1.709-.304 4.3-.304 7.775v3.823h8.773v-3.823c0-3.416-.116-6.008-.347-7.775-.232-1.766-.651-3.011-1.26-3.735-.608-.725-1.55-1.087-2.823-1.087-1.274 0-2.215.378-2.823 1.13M147.143 55.296l-13.641-49.26h11.902l4.778 22.328c1.217 5.503 2.114 10.194 2.692 14.074h.349c.405-2.78 1.303-7.442 2.692-13.987l4.953-22.415h11.901l-13.813 49.26v23.632h-11.814V55.296zM241.587 25.672v53.255h-9.383l-1.043-6.516h-.261c-2.549 4.923-6.371 7.384-11.468 7.384-3.533 0-6.139-1.157-7.818-3.475-1.681-2.316-2.52-5.937-2.52-10.859v-39.79h11.989v39.094c0 2.376.261 4.069.782 5.082.521 1.015 1.389 1.521 2.605 1.521 1.043 0 2.042-.317 2.997-.956.956-.637 1.665-1.447 2.129-2.432V25.672h11.991zM303.083 25.672v53.255H293.7l-1.043-6.516h-.261c-2.55 4.923-6.371 7.384-11.468 7.384-3.533 0-6.139-1.157-7.818-3.475-1.681-2.316-2.52-5.937-2.52-10.859v-39.79h11.989v39.094c0 2.376.26 4.069.781 5.082.521 1.015 1.39 1.521 2.606 1.521 1.043 0 2.042-.317 2.997-.956.956-.637 1.664-1.447 2.129-2.432V25.672h11.991z"/><path fill="#FFF" d="M274.165 15.681h-11.902v63.247h-11.728V15.681h-11.902V6.037h35.532zM342.762 34.185c-.725-3.358-1.897-5.791-3.519-7.298-1.622-1.504-3.853-2.258-6.689-2.258-2.201 0-4.257.623-6.168 1.868s-3.389 2.882-4.431 4.909h-.088l.001-28.062h-11.555v75.583h9.903l1.217-5.039h.261c.926 1.795 2.315 3.215 4.17 4.258 1.853 1.042 3.909 1.563 6.169 1.563 4.053 0 7.036-1.868 8.947-5.604 1.911-3.736 2.867-9.57 2.867-17.507v-8.426c.001-5.964-.362-10.627-1.085-13.987m-10.99 21.723c0 3.881-.16 6.922-.479 9.122-.317 2.202-.854 3.766-1.606 4.69-.753.928-1.769 1.391-3.04 1.391a5.55 5.55 0 0 1-2.736-.695c-.841-.463-1.521-1.157-2.042-2.085V38.098c.404-1.447 1.1-2.635 2.085-3.562.984-.925 2.055-1.39 3.214-1.39 1.217 0 2.157.478 2.824 1.433.665.956 1.129 2.563 1.39 4.823.261 2.258.392 5.472.392 9.642v6.864z"/></svg>