<?xml version="1.0" encoding="utf-8"?>
<!-- Generator: Adobe Illustrator 16.0.4, SVG Export Plug-In . SVG Version: 6.00 Build 0)  -->
<!DOCTYPE svg PUBLIC "-//W3C//DTD SVG 1.1//EN" "http://www.w3.org/Graphics/SVG/1.1/DTD/svg11.dtd">
<svg version="1.1" id="Layer_1" xmlns="http://www.w3.org/2000/svg" xmlns:xlink="http://www.w3.org/1999/xlink" x="0px" y="0px"
	 width="255.021px" height="76.456px" viewBox="-63.579 5.122 255.021 76.456"
	 enable-background="new -63.579 5.122 255.021 76.456" xml:space="preserve">
<path fill="#FFFFFF" d="M-46.003,42.705c-0.98,0.474-3.149,1.02-5.923,1.02c-7.25,0-11.653-4.541-11.653-11.517
	c0-7.518,5.25-12.059,12.229-12.059c2.738,0,4.674,0.576,5.519,1.018l-0.881,3.32c-1.083-0.474-2.608-0.884-4.469-0.884
	c-4.64,0-7.995,2.915-7.995,8.402c0,5.046,2.913,8.23,7.96,8.23c1.662,0,3.42-0.34,4.54-0.814L-46.003,42.705z"/>
<path fill="#FFFFFF" d="M-34.888,20.522v22.827h-4.171V20.522H-34.888z"/>
<path fill="#FFFFFF" d="M-22.155,36.884l-1.965,6.465h-4.303l7.317-22.827h5.316l7.416,22.827h-4.507l-2.063-6.465H-22.155z
	 M-15.619,33.733l-1.796-5.624c-0.443-1.388-0.811-2.945-1.147-4.268h-0.071c-0.339,1.322-0.714,2.914-1.084,4.268l-1.764,5.624
	H-15.619z"/>
<path fill="#FFFFFF" d="M-1.799,20.861c1.591-0.303,3.891-0.508,6.295-0.508c3.288,0,5.487,0.544,7.047,1.834
	c1.252,1.048,1.963,2.639,1.963,4.603c0,2.953-1.996,4.943-4.165,5.691v0.1c1.655,0.608,2.64,2.203,3.18,4.405
	c0.75,2.846,1.356,5.484,1.796,6.363h-4.265c-0.342-0.68-0.917-2.536-1.525-5.383C7.854,34.986,6.8,34.038,4.428,33.97h-2.1v9.378
	h-4.127V20.861z M2.328,30.919h2.476c2.811,0,4.538-1.49,4.538-3.758c0-2.472-1.728-3.657-4.438-3.657
	c-1.319,0-2.167,0.098-2.576,0.2V30.919z"/>
<path fill="#FFFFFF" d="M-59.272,58.126c-0.227,0.115-0.696,0.229-1.289,0.229c-1.372,0-2.397-0.867-2.397-2.47
	c0-1.534,1.031-2.558,2.544-2.558c0.597,0,0.987,0.126,1.157,0.214l-0.162,0.51c-0.229-0.112-0.571-0.201-0.977-0.201
	c-1.144,0-1.903,0.735-1.903,2.011c0,1.202,0.688,1.958,1.87,1.958c0.39,0,0.781-0.079,1.033-0.201L-59.272,58.126z"/>
<path fill="#FFFFFF" d="M-55.723,55.993h-1.887v1.757h2.111v0.53h-2.745v-4.877h2.635v0.528h-2.001v1.541h1.887V55.993z"/>
<path fill="#FFFFFF" d="M-54.436,58.28v-4.877h0.694l1.553,2.468c0.352,0.571,0.644,1.081,0.867,1.582l0.021-0.008
	c-0.059-0.647-0.071-1.243-0.071-1.999v-2.043h0.594v4.877h-0.642l-1.542-2.479c-0.34-0.54-0.666-1.093-0.905-1.625l-0.023,0.005
	c0.037,0.617,0.046,1.204,0.046,2.017v2.082H-54.436z"/>
<path fill="#FFFFFF" d="M-48.515,53.939h-1.48v-0.536h3.604v0.536h-1.489v4.341h-0.636V53.939z"/>
<path fill="#FFFFFF" d="M-45.606,53.471c0.32-0.058,0.779-0.102,1.205-0.102c0.674,0,1.117,0.13,1.414,0.397
	c0.239,0.216,0.383,0.551,0.383,0.937c0,0.63-0.406,1.059-0.911,1.233v0.02c0.368,0.129,0.591,0.478,0.707,0.987
	c0.158,0.675,0.275,1.147,0.375,1.337h-0.648c-0.082-0.146-0.186-0.557-0.323-1.164c-0.14-0.674-0.408-0.928-0.98-0.95h-0.591v2.114
	h-0.63V53.471z M-44.976,55.688h0.639c0.676,0,1.101-0.37,1.101-0.926c0-0.63-0.454-0.904-1.122-0.904
	c-0.305,0-0.512,0.022-0.618,0.051V55.688z"/>
<path fill="#FFFFFF" d="M-37.293,55.792c0,1.672-1.016,2.563-2.264,2.563c-1.29,0-2.189-1.002-2.189-2.479
	c0-1.548,0.956-2.559,2.257-2.559C-38.151,53.318-37.293,54.336-37.293,55.792z M-41.079,55.861c0,1.05,0.564,1.984,1.561,1.984
	c0.999,0,1.563-0.92,1.563-2.025c0-0.975-0.509-1.988-1.555-1.988C-40.559,53.832-41.079,54.799-41.079,55.861z"/>
<path fill="#FFFFFF" d="M-33.826,53.403v4.877h-0.641v-4.877H-33.826z"/>
<path fill="#FFFFFF" d="M-32.493,58.28v-4.877h0.696l1.552,2.468c0.355,0.571,0.644,1.081,0.87,1.582l0.02-0.008
	c-0.055-0.647-0.069-1.243-0.069-1.999v-2.043h0.592v4.877h-0.639l-1.547-2.479c-0.339-0.54-0.66-1.093-0.905-1.625l-0.025,0.005
	c0.042,0.617,0.05,1.204,0.05,2.017v2.082H-32.493z"/>
<path fill="#FFFFFF" d="M-26.567,53.939h-1.483v-0.536h3.61v0.536h-1.494v4.341h-0.634V53.939z"/>
<path fill="#FFFFFF" d="M-21.146,55.993h-1.885v1.757h2.111v0.53h-2.745v-4.877h2.637v0.528h-2.003v1.541h1.885V55.993z"/>
<path fill="#FFFFFF" d="M-16.146,58.057c-0.283,0.114-0.844,0.276-1.502,0.276c-0.738,0-1.347-0.193-1.822-0.65
	c-0.421-0.406-0.678-1.05-0.678-1.812c0-1.456,1.003-2.521,2.641-2.521c0.561,0,1.009,0.128,1.218,0.224l-0.158,0.521
	c-0.261-0.122-0.588-0.215-1.08-0.215c-1.186,0-1.961,0.737-1.961,1.962c0,1.235,0.739,1.964,1.882,1.964
	c0.413,0,0.698-0.057,0.838-0.13v-1.452h-0.978v-0.51h1.601V58.057z"/>
<path fill="#FFFFFF" d="M-14.949,53.471c0.319-0.058,0.782-0.102,1.204-0.102c0.675,0,1.116,0.13,1.415,0.397
	c0.237,0.216,0.381,0.551,0.381,0.937c0,0.63-0.405,1.059-0.907,1.233v0.02c0.363,0.129,0.589,0.478,0.703,0.987
	c0.164,0.675,0.275,1.147,0.377,1.337h-0.649c-0.08-0.146-0.187-0.557-0.319-1.164c-0.143-0.674-0.409-0.928-0.98-0.95h-0.596v2.114
	h-0.628V53.471z M-14.321,55.688h0.644c0.676,0,1.101-0.37,1.101-0.926c0-0.63-0.456-0.904-1.122-0.904
	c-0.301,0-0.514,0.022-0.623,0.051V55.688z"/>
<path fill="#FFFFFF" d="M-9.997,56.745l-0.504,1.535h-0.651l1.664-4.877h0.75l1.666,4.877h-0.675l-0.521-1.535H-9.997z
	 M-8.392,56.255l-0.484-1.401c-0.108-0.319-0.18-0.609-0.254-0.896h-0.011c-0.074,0.286-0.148,0.589-0.25,0.888l-0.477,1.409H-8.392
	z"/>
<path fill="#FFFFFF" d="M-6.123,53.479c0.391-0.065,0.843-0.109,1.341-0.109c0.904,0,1.549,0.217,1.975,0.605
	c0.439,0.397,0.692,0.962,0.692,1.75c0,0.795-0.253,1.448-0.698,1.894c-0.465,0.459-1.216,0.703-2.163,0.703
	c-0.455,0-0.827-0.024-1.147-0.06V53.479z M-5.489,57.787c0.164,0.02,0.39,0.026,0.634,0.026c1.355,0,2.078-0.75,2.078-2.066
	c0.008-1.147-0.644-1.875-1.975-1.875c-0.324,0-0.573,0.025-0.737,0.06V57.787z"/>
<path fill="#FFFFFF" d="M3.102,55.792c0,1.672-1.018,2.563-2.264,2.563c-1.294,0-2.19-1.002-2.19-2.479
	c0-1.548,0.956-2.559,2.26-2.559C2.242,53.318,3.102,54.336,3.102,55.792z M-0.685,55.861c0,1.05,0.565,1.984,1.562,1.984
	c1.001,0,1.562-0.92,1.562-2.025c0-0.975-0.505-1.988-1.555-1.988C-0.162,53.832-0.685,54.799-0.685,55.861z"/>
<path fill="#FFFFFF" d="M5.933,53.479c0.383-0.065,0.841-0.109,1.338-0.109c0.902,0,1.549,0.217,1.975,0.605
	c0.44,0.397,0.695,0.962,0.695,1.75c0,0.795-0.255,1.448-0.705,1.894c-0.461,0.459-1.213,0.703-2.157,0.703
	c-0.46,0-0.831-0.024-1.146-0.06V53.479z M6.56,57.787c0.161,0.02,0.392,0.026,0.638,0.026c1.351,0,2.075-0.75,2.075-2.066
	c0.01-1.147-0.642-1.875-1.97-1.875c-0.329,0-0.576,0.025-0.742,0.06V57.787z"/>
<path fill="#FFFFFF" d="M13.506,55.993h-1.884v1.757h2.107v0.53h-2.749v-4.877h2.637v0.528h-1.996v1.541h1.884V55.993z"/>
<path fill="#FFFFFF" d="M-62.11,65.43l-0.505,1.531h-0.65l1.664-4.876h0.75l1.665,4.876h-0.672l-0.523-1.531H-62.11z
	 M-60.505,64.933l-0.484-1.399c-0.108-0.321-0.183-0.609-0.252-0.89h-0.014c-0.076,0.28-0.144,0.583-0.244,0.885l-0.478,1.404
	H-60.505z"/>
<path fill="#FFFFFF" d="M-58.472,62.144c0.305-0.053,0.704-0.094,1.208-0.094c0.622,0,1.08,0.141,1.372,0.402
	c0.255,0.231,0.419,0.587,0.419,1.02c0,0.443-0.125,0.79-0.373,1.04c-0.338,0.361-0.875,0.538-1.491,0.538
	c-0.185,0-0.359-0.006-0.505-0.044v1.955h-0.63V62.144z M-57.841,64.491c0.136,0.041,0.314,0.055,0.522,0.055
	c0.759,0,1.22-0.377,1.22-1.041c0-0.646-0.461-0.951-1.149-0.951c-0.272,0-0.48,0.017-0.592,0.045V64.491z"/>
<path fill="#FFFFFF" d="M-54.624,62.149c0.322-0.059,0.779-0.1,1.211-0.1c0.672,0,1.112,0.132,1.408,0.395
	c0.241,0.221,0.384,0.553,0.384,0.935c0,0.636-0.402,1.067-0.91,1.238v0.024c0.366,0.126,0.591,0.474,0.707,0.983
	c0.162,0.674,0.278,1.149,0.375,1.336h-0.647c-0.082-0.149-0.191-0.556-0.32-1.167c-0.145-0.669-0.411-0.921-0.986-0.943h-0.592
	v2.11h-0.631V62.149z M-53.993,64.37h0.645c0.671,0,1.101-0.368,1.101-0.923c0-0.63-0.459-0.905-1.121-0.905
	c-0.307,0-0.516,0.021-0.625,0.051V64.37z"/>
<path fill="#FFFFFF" d="M-48.214,64.677H-50.1v1.755h2.11v0.529h-2.748v-4.876h2.639v0.527H-50.1v1.54h1.885V64.677z"/>
<path fill="#FFFFFF" d="M-47.168,66.961v-4.876h0.689l1.558,2.468c0.353,0.572,0.644,1.084,0.867,1.58l0.021-0.006
	c-0.053-0.65-0.071-1.243-0.071-2.005v-2.037h0.591v4.876h-0.639l-1.542-2.478c-0.34-0.54-0.667-1.097-0.909-1.625l-0.021,0.008
	c0.039,0.615,0.047,1.201,0.047,2.011v2.084H-47.168z"/>
<path fill="#FFFFFF" d="M-42.409,62.16c0.382-0.069,0.838-0.11,1.338-0.11c0.901,0,1.545,0.22,1.969,0.607
	c0.443,0.398,0.695,0.961,0.695,1.749c0,0.798-0.252,1.444-0.699,1.893c-0.462,0.457-1.215,0.705-2.161,0.705
	c-0.46,0-0.827-0.021-1.143-0.055V62.16z M-41.783,66.468c0.158,0.024,0.395,0.028,0.638,0.028c1.353,0,2.076-0.751,2.076-2.071
	c0.006-1.147-0.647-1.871-1.973-1.871c-0.324,0-0.573,0.022-0.74,0.059V66.468z"/>
<path fill="#FFFFFF" d="M-36.963,62.085v4.876h-0.638v-4.876H-36.963z"/>
<path fill="#FFFFFF" d="M-36.199,66.594l2.703-3.959v-0.022h-2.471v-0.527h3.292v0.384l-2.691,3.94v0.022h2.729v0.529h-3.562V66.594
	z"/>
<path fill="#FFFFFF" d="M-31.075,65.43l-0.507,1.531h-0.65l1.665-4.876h0.75l1.664,4.876h-0.676l-0.518-1.531H-31.075z
	 M-29.471,64.933l-0.485-1.399c-0.106-0.321-0.178-0.609-0.253-0.89h-0.015c-0.07,0.28-0.143,0.583-0.241,0.885l-0.481,1.404
	H-29.471z"/>
<path fill="#FFFFFF" d="M-23.831,66.744c-0.279,0.107-0.844,0.268-1.502,0.268c-0.738,0-1.345-0.187-1.825-0.646
	c-0.418-0.4-0.676-1.054-0.676-1.813c0-1.457,1.005-2.519,2.635-2.519c0.566,0,1.014,0.126,1.225,0.228l-0.16,0.512
	c-0.262-0.124-0.587-0.21-1.074-0.21c-1.19,0-1.96,0.738-1.96,1.963c0,1.232,0.736,1.966,1.879,1.966
	c0.414,0,0.693-0.061,0.84-0.138v-1.446h-0.986v-0.51h1.604V66.744z"/>
<path fill="#FFFFFF" d="M-20.358,64.677h-1.885v1.755h2.11v0.529h-2.748v-4.876h2.639v0.527h-2.001v1.54h1.885V64.677z"/>
<path fill="#FFFFFF" d="M-15.207,64.82c-0.039-0.681-0.079-1.507-0.079-2.103h-0.017c-0.172,0.56-0.365,1.173-0.613,1.851
	l-0.862,2.362h-0.474l-0.795-2.321c-0.229-0.694-0.42-1.316-0.559-1.892h-0.012c-0.015,0.604-0.049,1.412-0.094,2.155l-0.133,2.088
	h-0.599l0.34-4.876h0.803l0.832,2.361c0.202,0.598,0.362,1.132,0.494,1.64h0.013c0.127-0.495,0.302-1.029,0.517-1.64l0.869-2.361
	h0.806l0.301,4.876h-0.624L-15.207,64.82z"/>
<path fill="#FFFFFF" d="M-9.446,64.677h-1.889v1.755h2.111v0.529h-2.75v-4.876h2.64v0.527h-2.001v1.54h1.889V64.677z"/>
<path fill="#FFFFFF" d="M-4.298,64.82c-0.039-0.681-0.081-1.507-0.081-2.103h-0.015c-0.171,0.56-0.367,1.173-0.612,1.851
	l-0.864,2.362h-0.475l-0.796-2.321c-0.235-0.694-0.419-1.316-0.555-1.892h-0.017c-0.014,0.604-0.049,1.412-0.095,2.155l-0.129,2.088
	h-0.598l0.338-4.876h0.802l0.831,2.361c0.2,0.598,0.365,1.132,0.493,1.64h0.012c0.133-0.495,0.309-1.029,0.524-1.64l0.866-2.361
	h0.804l0.305,4.876h-0.624L-4.298,64.82z"/>
<path fill="#FFFFFF" d="M-1.055,62.149c0.318-0.059,0.78-0.1,1.208-0.1c0.673,0,1.11,0.132,1.409,0.395
	c0.242,0.221,0.383,0.553,0.383,0.935c0,0.636-0.406,1.067-0.911,1.238v0.024c0.367,0.126,0.594,0.474,0.707,0.983
	c0.164,0.674,0.276,1.149,0.375,1.336H1.468c-0.081-0.149-0.186-0.556-0.316-1.167c-0.147-0.669-0.414-0.921-0.985-0.943h-0.592
	v2.11h-0.63V62.149z M-0.425,64.37h0.642c0.676,0,1.101-0.368,1.101-0.923c0-0.63-0.46-0.905-1.121-0.905
	c-0.306,0-0.514,0.021-0.622,0.051V64.37z"/>
<path fill="#FFFFFF" d="M5.351,64.677H3.467v1.755h2.111v0.529H2.832v-4.876h2.635v0.527H3.467v1.54h1.883V64.677z"/>
<path fill="#FFFFFF" d="M6.395,62.16c0.382-0.069,0.838-0.11,1.337-0.11c0.903,0,1.551,0.22,1.976,0.607
	c0.441,0.398,0.693,0.961,0.693,1.749c0,0.798-0.252,1.444-0.701,1.893c-0.464,0.457-1.217,0.705-2.163,0.705
	c-0.457,0-0.823-0.021-1.143-0.055V62.16z M7.027,66.468c0.158,0.024,0.385,0.028,0.637,0.028c1.346,0,2.069-0.751,2.069-2.071
	c0.009-1.147-0.642-1.871-1.971-1.871c-0.327,0-0.572,0.022-0.735,0.059V66.468z"/>
<path fill="#FFFFFF" d="M13.73,64.677h-1.892v1.755h2.113v0.529h-2.744v-4.876h2.639v0.527h-2.008v1.54h1.892V64.677z"/>
<path fill-rule="evenodd" clip-rule="evenodd" fill="#FFFFFF" d="M54.354,33.895l5.892,3.404l5.892,3.408v6.81v6.805l-5.892,3.41
	l-5.892,3.398l-5.892-3.398l-5.889-3.41v-6.805v-6.81l5.889-3.408L54.354,33.895L54.354,33.895z M66.159,16.198l-4.713,2.72
	l-4.713,2.72v5.439v5.441l4.713,2.722l4.713,2.72l4.713-2.72l4.714-2.722v-5.441v-5.439l-4.714-2.72L66.159,16.198L66.159,16.198z
	 M73.258,58.438l3.549,2.035l3.549,2.037v4.075v4.08l-3.549,2.035l-3.549,2.037l-3.548-2.037l-3.553-2.035v-4.08v-4.075l3.553-2.037
	L73.258,58.438L73.258,58.438z M103.941,35.275l4.724,2.72l4.729,2.72v5.439v5.436l-4.729,2.724l-4.724,2.718l-4.73-2.718
	l-4.725-2.724v-5.436v-5.439l4.725-2.72L103.941,35.275L103.941,35.275z M94.24,5.122l-7.081,4.085l-7.082,4.087v8.168v8.167
	l7.082,4.085L94.24,37.8l7.083-4.085l7.08-4.085v-8.167v-8.168l-7.08-4.087L94.24,5.122L94.24,5.122z M94.482,54.317l-5.897,3.404
	l-5.9,3.408v6.816v6.812l5.9,3.41l5.897,3.408l5.898-3.408l5.896-3.41v-6.812V61.13l-5.896-3.408L94.482,54.317z"/>
<path fill="#FFFFFF" d="M121.577,20.594V34.1c0.007,2.56,0.389,4.659,1.15,6.295c0.764,1.642,1.858,2.854,3.296,3.64
	c1.437,0.786,3.179,1.175,5.219,1.168c2.114,0,3.924-0.397,5.434-1.198c1.501-0.804,2.652-2.017,3.457-3.651
	c0.794-1.63,1.202-3.688,1.206-6.18v-13.58h-5.462v13.903c-0.006,2.149-0.39,3.743-1.147,4.781
	c-0.764,1.033-1.862,1.548-3.305,1.539c-1.396,0-2.47-0.522-3.229-1.582c-0.758-1.055-1.144-2.635-1.152-4.738V20.594H121.577
	L121.577,20.594z M149.451,44.806h5.46v-9.733h8.695v-4.456h-8.695v-5.536h9.305v-4.487h-14.765V44.806L149.451,44.806z
	 M191.189,30.974h-9.019v4.279h3.737v5.065c-0.225,0.094-0.57,0.167-1.029,0.224c-0.471,0.063-1.014,0.098-1.631,0.098
	c-1.127,0-2.155-0.177-3.088-0.526c-0.936-0.354-1.746-0.865-2.423-1.546c-0.681-0.677-1.208-1.501-1.58-2.482
	c-0.366-0.976-0.555-2.088-0.561-3.348c0.006-1.316,0.207-2.468,0.615-3.449c0.4-0.986,0.971-1.808,1.694-2.462
	c0.73-0.652,1.58-1.146,2.555-1.473c0.973-0.323,2.037-0.485,3.183-0.485c0.882,0,1.666,0.047,2.341,0.132
	c0.678,0.09,1.281,0.218,1.81,0.373c0.534,0.154,1.02,0.333,1.454,0.545l1.151-4.465c-0.394-0.171-0.924-0.338-1.578-0.512
	c-0.651-0.169-1.405-0.312-2.271-0.427c-0.871-0.105-1.822-0.166-2.87-0.171c-1.995,0-3.833,0.278-5.505,0.842
	c-1.676,0.564-3.136,1.38-4.377,2.468c-1.239,1.082-2.202,2.408-2.893,3.974c-0.688,1.576-1.042,3.373-1.06,5.396
	c0,1.187,0.132,2.317,0.401,3.391c0.265,1.074,0.646,2.067,1.156,2.981c0.502,0.91,1.123,1.725,1.856,2.431
	c1.109,1.062,2.474,1.867,4.101,2.414c1.625,0.544,3.539,0.82,5.742,0.82c1.081-0.008,2.129-0.084,3.145-0.228
	c1.018-0.143,1.954-0.319,2.805-0.528c0.854-0.207,1.57-0.41,2.137-0.611V30.974z"/>
<path fill-rule="evenodd" clip-rule="evenodd" fill="#FFFFFF" d="M121.531,53.023v3.059c0,1.743,0.804,2.517,2.188,2.517
	c1.432,0,2.287-0.806,2.287-2.498v-3.077h-1.239v3.15c0,0.978-0.357,1.432-1.01,1.432c-0.627,0-0.989-0.479-0.989-1.432v-3.15
	H121.531L121.531,53.023z M129.593,58.512v-1.655c0-0.896-0.019-1.668-0.057-2.4h0.032c0.262,0.646,0.627,1.344,0.954,1.936
	l1.17,2.12h1.303v-5.488h-1.138v1.595c0,0.831,0.024,1.572,0.096,2.295h-0.017c-0.25-0.617-0.57-1.3-0.896-1.879l-1.14-2.011h-1.448
	v5.488H129.593L129.593,58.512z M135.45,53.023v5.488h1.237v-5.488H135.45L135.45,53.023z M141.883,58.512l1.845-5.488h-1.318
	l-0.702,2.344c-0.188,0.626-0.358,1.276-0.494,1.938h-0.024c-0.132-0.685-0.303-1.301-0.491-1.963l-0.667-2.319h-1.356l1.759,5.488
	H141.883L141.883,58.512z M148.951,55.179h-2.019v-1.136h2.141v-1.02h-3.378v5.488h3.49v-1.016h-2.253V56.19h2.019V55.179
	L148.951,55.179z M151.407,58.512h1.229v-2.169h0.367c0.512,0.008,0.749,0.192,0.903,0.883c0.153,0.679,0.293,1.13,0.374,1.286h1.27
	c-0.107-0.215-0.271-0.935-0.438-1.563c-0.139-0.506-0.354-0.866-0.733-1.021v-0.02c0.471-0.175,0.971-0.652,0.971-1.345
	c0-0.5-0.181-0.882-0.516-1.142c-0.391-0.317-0.959-0.438-1.775-0.438c-0.666,0-1.253,0.048-1.651,0.121V58.512L151.407,58.512z
	 M152.637,53.95c0.087-0.022,0.26-0.039,0.558-0.039c0.571,0,0.916,0.26,0.916,0.754c0,0.479-0.369,0.784-0.986,0.784h-0.487V53.95
	L152.637,53.95z M157.392,58.258c0.312,0.171,0.93,0.341,1.558,0.341c1.507,0,2.204-0.783,2.204-1.699
	c0-0.782-0.443-1.286-1.416-1.644c-0.715-0.278-1.016-0.435-1.016-0.784c0-0.274,0.26-0.526,0.798-0.526
	c0.53,0,0.929,0.152,1.14,0.259l0.276-0.996c-0.327-0.154-0.773-0.273-1.401-0.273c-1.286,0-2.074,0.709-2.074,1.643
	c0,0.809,0.602,1.312,1.516,1.64c0.66,0.226,0.916,0.427,0.916,0.764c0,0.369-0.301,0.603-0.869,0.603
	c-0.528,0-1.048-0.172-1.377-0.343L157.392,58.258L157.392,58.258z M163.383,53.023v5.488h1.237v-5.488H163.383L163.383,53.023z
	 M167.067,58.487c0.301,0.039,0.766,0.079,1.41,0.079c1.074,0,1.96-0.228,2.539-0.707c0.521-0.448,0.903-1.17,0.903-2.226
	c0-0.975-0.359-1.659-0.928-2.082c-0.521-0.395-1.205-0.568-2.257-0.568c-0.615,0-1.213,0.04-1.668,0.121V58.487L167.067,58.487z
	 M168.303,53.982c0.111-0.024,0.296-0.045,0.566-0.045c1.074,0,1.741,0.559,1.741,1.741c0,1.31-0.742,1.927-1.875,1.921
	c-0.145,0-0.321,0-0.433-0.026V53.982L168.303,53.982z M176.959,57.103l0.423,1.409h1.332l-1.712-5.488h-1.617l-1.676,5.488h1.286
	l0.382-1.409H176.959L176.959,57.103z M175.556,56.174l0.335-1.164c0.082-0.318,0.171-0.731,0.244-1.06h0.022
	c0.081,0.316,0.183,0.734,0.27,1.06l0.34,1.164H175.556L175.556,56.174z M180.822,58.487c0.299,0.039,0.764,0.079,1.406,0.079
	c1.074,0,1.962-0.228,2.541-0.707c0.518-0.448,0.903-1.17,0.903-2.226c0-0.975-0.359-1.659-0.928-2.082
	c-0.519-0.395-1.205-0.568-2.259-0.568c-0.617,0-1.211,0.04-1.664,0.121V58.487L180.822,58.487z M182.056,53.982
	c0.111-0.024,0.296-0.045,0.566-0.045c1.072,0,1.741,0.559,1.741,1.741c0,1.31-0.742,1.927-1.877,1.921
	c-0.145,0-0.319,0-0.431-0.026V53.982L182.056,53.982z M191.123,55.179h-2.018v-1.136h2.139v-1.02h-3.38v5.488h3.494v-1.016h-2.253
	V56.19h2.018V55.179z"/>
<path fill-rule="evenodd" clip-rule="evenodd" fill="#FFFFFF" d="M121.509,66.637h1.236v-2.206h1.973v-1.012h-1.973v-1.251h2.11
	v-1.021h-3.347V66.637L121.509,66.637z M128.825,63.306h-2.021v-1.138h2.145v-1.021h-3.38v5.49h3.492v-1.018h-2.257v-1.305h2.021
	V63.306L128.825,63.306z M129.909,66.61c0.301,0.044,0.764,0.081,1.406,0.081c1.074,0,1.968-0.22,2.54-0.707
	c0.526-0.442,0.906-1.17,0.906-2.22c0-0.978-0.363-1.658-0.932-2.086c-0.522-0.396-1.205-0.567-2.253-0.567
	c-0.62,0-1.213,0.035-1.668,0.12V66.61L129.909,66.61z M131.146,62.109c0.104-0.024,0.293-0.049,0.561-0.049
	c1.076,0,1.741,0.559,1.741,1.742c0,1.309-0.738,1.928-1.871,1.92c-0.146-0.002-0.327,0-0.431-0.022V62.109L131.146,62.109z
	 M138.837,63.306h-2.016v-1.138h2.137v-1.021h-3.375v5.49h3.493v-1.018h-2.255v-1.305h2.016V63.306L138.837,63.306z M139.923,66.637
	h1.228v-2.166h0.367c0.512,0,0.749,0.186,0.904,0.884c0.152,0.679,0.29,1.126,0.375,1.282h1.268
	c-0.105-0.214-0.271-0.933-0.438-1.561c-0.141-0.508-0.35-0.867-0.735-1.02v-0.021c0.472-0.176,0.971-0.655,0.971-1.347
	c0-0.499-0.183-0.881-0.516-1.142c-0.392-0.312-0.957-0.437-1.773-0.437c-0.664,0-1.251,0.047-1.649,0.12V66.637L139.923,66.637z
	 M141.15,62.078c0.089-0.028,0.262-0.04,0.561-0.04c0.572,0,0.912,0.258,0.912,0.755c0,0.474-0.366,0.782-0.983,0.782h-0.489V62.078
	L141.15,62.078z M147.67,65.23l0.425,1.406h1.336l-1.712-5.49H146.1l-1.676,5.49h1.284l0.382-1.406H147.67L147.67,65.23z
	 M146.272,64.301l0.333-1.166c0.088-0.315,0.171-0.729,0.242-1.057h0.024c0.083,0.317,0.175,0.733,0.27,1.057l0.34,1.166H146.272
	L146.272,64.301z M150.089,66.637h3.421v-1.044h-2.184v-4.446h-1.237V66.637L150.089,66.637z M156.119,66.61
	c0.303,0.044,0.769,0.081,1.41,0.081c1.072,0,1.962-0.226,2.537-0.707c0.525-0.449,0.905-1.17,0.905-2.22
	c0-0.978-0.357-1.662-0.928-2.086c-0.521-0.4-1.205-0.567-2.255-0.567c-0.617,0-1.215,0.035-1.67,0.12V66.61L156.119,66.61z
	 M157.358,62.109c0.105-0.024,0.293-0.049,0.561-0.049c1.075,0,1.743,0.559,1.743,1.742c0,1.309-0.741,1.928-1.873,1.92
	c-0.145,0-0.325,0-0.431-0.022V62.109L157.358,62.109z M165.051,63.306h-2.018v-1.138h2.142v-1.021h-3.38v5.49h3.493v-1.018h-2.255
	v-1.305h2.018V63.306L165.051,63.306z M173.425,63.502h-2.045v0.969h0.845v1.148c-0.094,0.04-0.32,0.07-0.599,0.07
	c-1.019,0-1.735-0.653-1.735-1.791c0-1.192,0.792-1.781,1.824-1.781c0.602,0,0.971,0.098,1.271,0.237l0.26-1.007
	c-0.27-0.116-0.814-0.256-1.525-0.256c-1.797,0-3.122,1.042-3.132,2.872c0,0.804,0.276,1.517,0.772,1.996
	c0.507,0.483,1.23,0.731,2.233,0.731c0.722,0,1.446-0.179,1.83-0.309V63.502L173.425,63.502z M176.729,66.726
	c1.604,0,2.688-1.086,2.688-2.889c0-1.515-0.922-2.778-2.606-2.778c-1.608,0-2.67,1.228-2.67,2.874c0,1.564,0.962,2.793,2.583,2.793
	H176.729L176.729,66.726z M176.769,65.741c-0.827,0-1.324-0.807-1.324-1.843c0-1.025,0.478-1.854,1.334-1.854
	c0.854,0,1.318,0.845,1.318,1.832c0,1.076-0.479,1.865-1.318,1.865H176.769L176.769,65.741z M180.237,61.146v5.49h1.237v-5.49
	H180.237L180.237,61.146z M185.4,65.23l0.423,1.406h1.335l-1.709-5.49h-1.622l-1.676,5.49h1.287l0.382-1.406H185.4L185.4,65.23z
	 M183.999,64.301l0.335-1.166c0.08-0.317,0.171-0.729,0.244-1.057h0.022c0.081,0.317,0.179,0.729,0.271,1.057l0.339,1.166H183.999
	L183.999,64.301z M184.84,59.83l-0.711,1.023h0.979l1.018-1.023H184.84L184.84,59.83z M187.682,66.383
	c0.311,0.172,0.925,0.343,1.554,0.343c1.506,0,2.206-0.781,2.206-1.698c0-0.786-0.449-1.291-1.418-1.646
	c-0.717-0.278-1.018-0.433-1.018-0.782c0-0.276,0.263-0.53,0.801-0.53c0.528,0,0.924,0.152,1.138,0.262l0.276-0.995
	c-0.327-0.156-0.776-0.276-1.4-0.276c-1.287,0-2.075,0.709-2.075,1.644c0,0.807,0.603,1.311,1.515,1.639
	c0.658,0.228,0.92,0.431,0.92,0.767c0,0.365-0.304,0.603-0.873,0.603c-0.53,0-1.05-0.175-1.375-0.345L187.682,66.383z"/>
</svg>
