<svg xmlns="http://www.w3.org/2000/svg" width="73.829" height="89.512"><path fill="#FFF" d="M27.305 85.363h2.627v3.752c-.41.13-.825.229-1.248.296s-.912.101-1.469.101c-1.171 0-2.082-.348-2.733-1.042-.652-.695-.978-1.669-.978-2.921 0-.803.16-1.506.482-2.108a3.267 3.267 0 0 1 1.395-1.383c.605-.318 1.315-.478 2.129-.478.825 0 1.594.151 2.305.453l-.349.792c-.698-.296-1.368-.443-2.014-.443-.94 0-1.675.279-2.204.839-.528.561-.793 1.335-.793 2.328 0 1.041.254 1.831.764 2.368.51.538 1.258.809 2.244.809.535 0 1.059-.062 1.569-.186v-2.374h-1.728v-.803zM36.655 86.508c0 .943-.238 1.681-.713 2.209-.477.529-1.133.795-1.973.795a2.62 2.62 0 0 1-1.379-.364 2.412 2.412 0 0 1-.93-1.045c-.219-.455-.328-.985-.328-1.595 0-.942.235-1.676.708-2.202s1.128-.789 1.966-.789c.812 0 1.455.27 1.933.808s.716 1.266.716 2.183zm-4.413 0c0 .739.147 1.303.444 1.69.295.387.73.58 1.305.58s1.011-.193 1.309-.578c.297-.385.446-.949.446-1.692 0-.734-.149-1.292-.446-1.675-.298-.382-.737-.572-1.318-.572-.574 0-1.008.188-1.301.564-.294.377-.439.938-.439 1.683zM38.12 82.055c0-.2.049-.347.148-.44a.513.513 0 0 1 .369-.141c.142 0 .264.048.365.144.102.095.153.241.153.438s-.052.345-.153.44a.507.507 0 0 1-.365.145.5.5 0 0 1-.369-.145c-.1-.097-.148-.244-.148-.441zm.951 7.351h-.877v-5.784h.877v5.784zM44.495 89.406l-.174-.824h-.043c-.289.363-.577.608-.865.736-.287.129-.645.193-1.075.193-.575 0-1.024-.148-1.351-.444-.325-.295-.488-.715-.488-1.261 0-1.169.936-1.78 2.807-1.837l.983-.031v-.358c0-.454-.099-.79-.294-1.005-.195-.217-.508-.325-.938-.325-.483 0-1.029.148-1.639.443l-.27-.671c.285-.154.598-.275.938-.363a4.08 4.08 0 0 1 1.023-.132c.69 0 1.202.153 1.535.459.332.306.5.797.5 1.472v3.948h-.649zm-1.983-.618c.546 0 .975-.149 1.287-.449.312-.298.469-.717.469-1.256v-.521l-.878.037c-.698.023-1.201.133-1.51.324-.309.192-.462.49-.462.895 0 .316.096.558.287.723.194.165.462.247.807.247zm-.207-6.063a9.76 9.76 0 0 0 .548-.792c.195-.309.35-.578.463-.807h1.067v.111c-.155.229-.385.51-.691.844s-.574.593-.799.775h-.588v-.131zM50.69 87.828c0 .538-.201.953-.604 1.245-.401.293-.965.438-1.691.438-.768 0-1.367-.122-1.797-.364v-.813c.278.142.576.251.896.333.319.08.627.121.923.121.458 0 .811-.072 1.057-.219.247-.146.371-.369.371-.668 0-.225-.098-.418-.294-.577-.195-.161-.577-.35-1.144-.567-.54-.201-.924-.375-1.15-.525a1.568 1.568 0 0 1-.508-.509 1.327 1.327 0 0 1-.166-.681c0-.472.191-.844.576-1.116.384-.272.91-.409 1.58-.409.624 0 1.233.127 1.829.38l-.312.712c-.582-.238-1.109-.358-1.58-.358-.416 0-.73.064-.941.194-.211.131-.317.311-.317.539 0 .154.039.287.118.396.08.108.207.212.385.312.176.099.514.241 1.014.427.688.25 1.152.501 1.394.755.24.252.361.571.361.954z"/><g><path fill="#FFF" d="M42.129 9.707c0 .55-.457 1.008-1.007 1.008h-8.243a1.017 1.017 0 0 1-1.007-1.008V1.465c0-.55.458-1.007 1.007-1.007h8.243c.55 0 1.007.458 1.007 1.007v8.242zM54.402 9.707c0 .55-.458 1.008-1.008 1.008h-8.241a1.016 1.016 0 0 1-1.008-1.008V1.465c0-.55.457-1.007 1.008-1.007h8.241c.55 0 1.008.458 1.008 1.007v8.242zM54.402 34.252c0 .55-.458 1.007-1.008 1.007h-8.241a1.016 1.016 0 0 1-1.008-1.007v-8.243c0-.549.457-1.007 1.008-1.007h8.241c.55 0 1.008.458 1.008 1.007v8.243zM29.858 21.979c0 .549-.459 1.008-1.008 1.008h-8.243a1.017 1.017 0 0 1-1.007-1.008v-8.242c0-.55.458-1.008 1.007-1.008h8.243c.549 0 1.008.458 1.008 1.008v8.242zM42.129 21.979c0 .549-.457 1.008-1.007 1.008h-8.243a1.017 1.017 0 0 1-1.007-1.008v-8.242c0-.55.458-1.008 1.007-1.008h8.243c.55 0 1.007.458 1.007 1.008v8.242zM29.858 34.252c0 .55-.459 1.007-1.008 1.007h-8.243a1.016 1.016 0 0 1-1.007-1.007v-8.243c0-.549.458-1.007 1.007-1.007h8.243c.549 0 1.008.458 1.008 1.007v8.243zM42.129 34.252c0 .55-.457 1.007-1.007 1.007h-8.243a1.016 1.016 0 0 1-1.007-1.007v-8.243c0-.549.458-1.007 1.007-1.007h8.243c.55 0 1.007.458 1.007 1.007v8.243zM29.858 46.524c0 .55-.459 1.007-1.008 1.007h-8.243a1.016 1.016 0 0 1-1.007-1.007v-8.243c0-.549.458-1.007 1.007-1.007h8.243c.549 0 1.008.458 1.008 1.007v8.243zM42.129 46.524c0 .55-.457 1.007-1.007 1.007h-8.243a1.016 1.016 0 0 1-1.007-1.007v-8.243c0-.549.458-1.007 1.007-1.007h8.243c.55 0 1.007.458 1.007 1.007v8.243zM30.407 5.586a5.55 5.55 0 0 1-5.586 5.587 5.551 5.551 0 0 1-5.587-5.587A5.55 5.55 0 0 1 24.821 0c3.021 0 5.586 2.473 5.586 5.586"/></g><g><path fill="#FFF" d="M0 64.846V54.678h2.159v10.168H0zM13.806 64.846h-2.745l-4.43-7.692h-.063c.088 1.359.132 2.327.132 2.908v4.784H4.771V54.678h2.723l4.424 7.614h.048c-.07-1.32-.104-2.254-.104-2.803v-4.812h1.943v10.169zM22.381 62.022c0 .917-.332 1.641-.993 2.169-.662.528-1.583.792-2.762.792-1.087 0-2.048-.203-2.884-.611V62.37c.687.305 1.269.521 1.745.646.476.125.911.188 1.306.188.474 0 .837-.09 1.09-.271.253-.18.379-.449.379-.807a.893.893 0 0 0-.167-.532c-.112-.155-.275-.305-.491-.448s-.656-.373-1.32-.688c-.623-.293-1.089-.573-1.401-.841a3.192 3.192 0 0 1-.745-.939c-.186-.357-.278-.774-.278-1.252 0-.898.305-1.606.916-2.121.611-.515 1.455-.771 2.532-.771.529 0 1.035.062 1.515.187.48.126.984.303 1.509.529l-.697 1.676a10.121 10.121 0 0 0-1.348-.466 4.345 4.345 0 0 0-1.048-.133c-.409 0-.723.096-.94.286a.938.938 0 0 0-.328.744c0 .19.044.354.132.497.089.142.229.277.422.41.192.132.649.37 1.369.713.952.454 1.604.91 1.958 1.366.353.456.529 1.015.529 1.679zM28.149 64.846H25.99v-8.374h-2.766v-1.794h7.69v1.794h-2.766v8.374zM32.481 64.846V54.678h2.16v10.168h-2.16zM41.133 64.846h-2.159v-8.374h-2.765v-1.794h7.689v1.794h-2.766v8.374zM53.792 54.678v6.579c0 .751-.168 1.41-.505 1.976-.336.565-.823.999-1.458 1.3-.637.302-1.39.451-2.258.451-1.31 0-2.326-.334-3.052-1.004-.724-.67-1.087-1.586-1.087-2.75v-6.552h2.152v6.225c0 .783.158 1.358.475 1.724.315.367.838.551 1.566.551.707 0 1.219-.184 1.537-.553s.477-.948.477-1.735v-6.211h2.153zM60.256 64.846h-2.159v-8.374h-2.765v-1.794h7.689v1.794h-2.766v8.374zM73.829 59.748c0 1.683-.418 2.976-1.254 3.881-.836.903-2.034 1.354-3.595 1.354s-2.759-.451-3.595-1.354c-.836-.905-1.254-2.204-1.254-3.895 0-1.692.42-2.985 1.258-3.878s2.04-1.338 3.605-1.338c1.564 0 2.762.449 3.591 1.349s1.244 2.193 1.244 3.881zm-7.434 0c0 1.136.217 1.99.648 2.565s1.078.863 1.937.863c1.724 0 2.585-1.143 2.585-3.429 0-2.291-.857-3.436-2.57-3.436-.859 0-1.508.288-1.943.865-.438.579-.657 1.435-.657 2.572zM9.216 77.065H7.091V66.898h5.837v1.767H9.216v2.623h3.455v1.759H9.216v4.018z"/><g><path fill="#FFF" d="M20.847 77.065H14.98V66.898h5.866v1.767H17.14v2.232h3.449v1.767H17.14v2.622h3.707v1.779zM31.42 71.885c0 1.675-.477 2.956-1.431 3.846-.954.891-2.333 1.335-4.134 1.335H22.97V66.898h3.197c1.662 0 2.954.438 3.873 1.315.921.877 1.38 2.101 1.38 3.672zm-2.242.055c0-2.184-.967-3.275-2.898-3.275h-1.15v6.621h.927c2.08 0 3.121-1.115 3.121-3.346zM39.397 77.065h-5.865V66.898h5.865v1.767h-3.706v2.232h3.448v1.767h-3.448v2.622h3.706v1.779zM43.682 73.165v3.9h-2.16V66.898h2.967c1.385 0 2.408.252 3.072.755.665.503.996 1.268.996 2.292 0 .599-.164 1.13-.494 1.596s-.797.831-1.4 1.096a392.113 392.113 0 0 0 2.996 4.429h-2.396l-2.432-3.9h-1.149zm0-1.752h.696c.683 0 1.187-.113 1.512-.341s.487-.585.487-1.072c0-.481-.166-.824-.498-1.028s-.847-.307-1.543-.307h-.654v2.748z"/></g><g><path fill="#FFF" d="M57.177 77.065l-.739-2.419h-3.713l-.738 2.419h-2.326l3.594-10.208h2.641l3.609 10.208h-2.328zm-1.254-4.226a657.363 657.363 0 0 1-1.153-3.722 10.96 10.96 0 0 1-.185-.682c-.153.595-.593 2.062-1.316 4.403h2.654z"/></g><g><path fill="#FFF" d="M60.85 77.065V66.898h2.16v8.388h4.131v1.779H60.85z"/></g></g></svg>