<svg xmlns="http://www.w3.org/2000/svg" width="76.68" height="93.179"><g fill="#FFF"><path d="M24.801 86.144h2.65v3.786a8.377 8.377 0 0 1-1.259.298 9.526 9.526 0 0 1-1.483.102c-1.18 0-2.1-.351-2.757-1.052-.658-.7-.987-1.684-.987-2.947 0-.81.163-1.519.488-2.128a3.314 3.314 0 0 1 1.406-1.395c.611-.321 1.328-.482 2.148-.482.832 0 1.607.153 2.326.459l-.352.799c-.705-.299-1.382-.447-2.033-.447-.949 0-1.69.281-2.224.846-.534.564-.8 1.348-.8 2.349 0 1.051.256 1.848.77 2.392.515.543 1.27.814 2.266.814.54 0 1.068-.062 1.584-.187v-2.396H24.8v-.811zM34.236 87.3c0 .951-.24 1.693-.721 2.229-.479.533-1.143.801-1.988.801a2.65 2.65 0 0 1-1.393-.367c-.406-.245-.719-.597-.939-1.055s-.33-.994-.33-1.607c0-.951.238-1.693.715-2.224s1.138-.796 1.984-.796c.817 0 1.467.271 1.949.814s.723 1.277.723 2.205zm-4.454 0c0 .745.149 1.312.448 1.703s.738.586 1.317.586 1.02-.194 1.32-.583c.3-.389.45-.958.45-1.706 0-.742-.15-1.307-.45-1.691-.301-.385-.744-.578-1.331-.578-.58 0-1.018.19-1.312.57s-.442.946-.442 1.699zM35.715 82.806c0-.203.049-.352.148-.445s.225-.141.373-.141c.143 0 .266.047.369.144.103.096.154.243.154.442 0 .198-.052.346-.154.443a.52.52 0 0 1-.369.146c-.148 0-.273-.049-.373-.146s-.148-.245-.148-.443zm.959 7.417h-.885v-5.836h.885v5.836zM42.146 90.223l-.176-.831h-.043c-.291.366-.582.613-.871.743-.291.13-.652.194-1.086.194-.58 0-1.034-.148-1.363-.447-.328-.299-.493-.723-.493-1.272 0-1.179.944-1.796 2.833-1.853l.992-.033v-.361c0-.458-.1-.797-.297-1.015s-.513-.327-.947-.327c-.486 0-1.037.148-1.652.447l-.272-.677a4.247 4.247 0 0 1 1.979-.501c.696 0 1.213.155 1.549.464.336.31.504.804.504 1.485v3.983h-.657zm-2-.623c.551 0 .984-.151 1.299-.452.314-.303.473-.725.473-1.268v-.527l-.887.037c-.703.025-1.211.135-1.521.328-.312.193-.467.494-.467.902 0 .319.096.562.29.729s.465.251.813.251zM48.628 90.223v-3.775c0-.476-.108-.831-.325-1.065s-.557-.352-1.02-.352c-.611 0-1.059.166-1.344.496s-.427.875-.427 1.635v3.062h-.886v-5.836h.721l.144.798h.043c.181-.287.436-.51.763-.668s.691-.236 1.094-.236c.703 0 1.234.17 1.59.508.355.34.533.882.533 1.627v3.808h-.886zM56.379 87.3c0 .951-.24 1.693-.721 2.229-.48.533-1.143.801-1.989.801-.522 0-.987-.123-1.393-.367-.405-.245-.718-.597-.938-1.055s-.331-.994-.331-1.607c0-.951.238-1.693.715-2.224s1.138-.796 1.984-.796c.817 0 1.468.271 1.95.814.482.543.723 1.277.723 2.205zm-4.455 0c0 .745.15 1.312.449 1.703s.737.586 1.316.586c.58 0 1.02-.194 1.32-.583s.451-.958.451-1.706c0-.742-.15-1.307-.451-1.691s-.744-.578-1.33-.578c-.58 0-1.018.19-1.312.57s-.443.946-.443 1.699z"/></g><path fill="#FFF" d="M43.803 9.825c0 .555-.447 1.004-1.001 1.004h-8.307a1 1 0 0 1-1.001-1.004V1.52A1 1 0 0 1 34.495.517h8.307c.554 0 1.001.45 1.001 1.003v8.305zM56.178 9.825c0 .555-.448 1.004-1.002 1.004h-8.307a1.003 1.003 0 0 1-1.002-1.004V1.52c0-.553.449-1.003 1.002-1.003h8.307c.554 0 1.002.45 1.002 1.003v8.305zM56.178 34.575c0 .555-.448 1.004-1.002 1.004h-8.307a1.003 1.003 0 0 1-1.002-1.004V26.27c0-.556.449-1.005 1.002-1.005h8.307c.554 0 1.002.449 1.002 1.005v8.305zM31.43 22.19c0 .557-.449 1.006-1.004 1.006h-8.305a1.001 1.001 0 0 1-1.002-1.006v-8.303a1 1 0 0 1 1.002-1.004h8.305c.555 0 1.004.449 1.004 1.004v8.303zM43.803 22.19c0 .557-.447 1.006-1.001 1.006h-8.307a1 1 0 0 1-1.001-1.006v-8.303a1 1 0 0 1 1.001-1.004h8.307c.554 0 1.001.449 1.001 1.004v8.303zM31.43 34.575c0 .555-.449 1.004-1.004 1.004h-8.305a1.001 1.001 0 0 1-1.002-1.004V26.27c0-.556.446-1.005 1.002-1.005h8.305c.555 0 1.004.449 1.004 1.005v8.305zM43.803 34.575c0 .555-.447 1.004-1.001 1.004h-8.307a1 1 0 0 1-1.001-1.004V26.27a1 1 0 0 1 1.001-1.005h8.307c.554 0 1.001.449 1.001 1.005v8.305zM31.43 46.962c0 .555-.449 1.004-1.004 1.004h-8.305a1.001 1.001 0 0 1-1.002-1.004V38.66c0-.557.446-1.006 1.002-1.006h8.305c.555 0 1.004.449 1.004 1.006v8.302zM43.803 46.962c0 .555-.447 1.004-1.001 1.004h-8.307a1 1 0 0 1-1.001-1.004V38.66a1 1 0 0 1 1.001-1.006h8.307c.554 0 1.001.449 1.001 1.006v8.302zM31.945 5.672a5.672 5.672 0 1 1-11.344 0 5.672 5.672 0 0 1 11.344 0M1.293 65.44V55.18h2.18v10.26h-2.18zM15.191 65.44h-2.77L7.95 57.678h-.063c.09 1.371.135 2.348.135 2.934v4.828H6.074V55.18h2.748l4.464 7.684h.05c-.07-1.333-.105-2.275-.105-2.828v-4.855h1.961V65.44zM23.947 62.481c.029.926-.281 1.666-.932 2.221s-1.569.851-2.76.89c-1.095.035-2.071-.14-2.929-.523l-.064-2.02c.703.286 1.297.484 1.781.596.483.11.925.159 1.323.146.478-.016.841-.119 1.091-.309.249-.191.368-.467.356-.826a.888.888 0 0 0-.186-.531 1.894 1.894 0 0 0-.51-.438c-.224-.138-.674-.354-1.354-.651-.639-.273-1.118-.541-1.441-.802a3.207 3.207 0 0 1-.781-.923c-.199-.355-.307-.771-.322-1.254-.029-.908.256-1.631.855-2.17s1.441-.826 2.529-.86a6.035 6.035 0 0 1 1.534.14c.488.111 1.002.272 1.538.485l-.648 1.712a10.3 10.3 0 0 0-1.374-.426 4.41 4.41 0 0 0-1.062-.1c-.412.014-.726.12-.939.319a.943.943 0 0 0-.306.761c.006.19.056.357.148.497.095.14.24.273.439.4.198.126.665.352 1.403.674.975.428 1.647.866 2.019 1.314.374.451.571 1.01.592 1.678z"/><g fill="#FFF"><path d="M29.735 65.44h-2.179v-8.449h-2.791V55.18h7.761v1.811h-2.791v8.449zM34.107 65.44V55.18h2.18v10.26h-2.18zM42.839 65.44H40.66v-8.449h-2.791V55.18h7.761v1.811h-2.791v8.449z"/></g><path fill="#FFF" d="M55.613 55.181v6.639c0 .758-.17 1.422-.51 1.992-.34.571-.83 1.009-1.473 1.312-.643.305-1.4.456-2.277.456-1.322 0-2.348-.338-3.079-1.014-.731-.677-1.097-1.601-1.097-2.775v-6.61h2.172v6.28c0 .79.16 1.371.479 1.74.318.37.846.555 1.582.555.712 0 1.229-.187 1.55-.558.321-.373.481-.956.481-1.752V55.18h2.172zM62.127 65.44h-2.18v-8.449h-2.791V55.18h7.762v1.811h-2.791v8.449zM75.843 60.296c0 1.698-.422 3.004-1.266 3.916-.843.912-2.053 1.368-3.627 1.368-1.575 0-2.784-.456-3.628-1.368s-1.266-2.223-1.266-3.93c0-1.708.424-3.012 1.27-3.912s2.059-1.352 3.638-1.352 2.788.454 3.624 1.361c.836.909 1.255 2.214 1.255 3.917zm-7.501 0c0 1.146.219 2.01.654 2.59s1.087.87 1.954.87c1.738 0 2.608-1.153 2.608-3.46 0-2.311-.865-3.467-2.595-3.467-.866 0-1.521.291-1.961.874s-.66 1.446-.66 2.593zM10.595 77.771H8.451v-10.26h5.891v1.782h-3.747v2.646h3.487v1.775h-3.487v4.057z"/><g fill="#FFF"><path d="M22.301 77.771h-5.919v-10.26h5.919v1.782h-3.74v2.253h3.48v1.782h-3.48v2.646h3.74v1.797zM32.973 72.544c0 1.688-.482 2.982-1.445 3.881-.963.897-2.354 1.347-4.172 1.347h-2.91v-10.26h3.227c1.678 0 2.98.442 3.908 1.326s1.392 2.12 1.392 3.706zm-2.264.056c0-2.204-.976-3.306-2.925-3.306h-1.16v6.682h.935c2.099 0 3.15-1.125 3.15-3.376zM41.021 77.771h-5.92v-10.26h5.92v1.782h-3.74v2.253h3.48v1.782h-3.48v2.646h3.74v1.797zM45.344 73.835v3.937h-2.179v-10.26h2.995c1.396 0 2.43.254 3.1.762.67.507 1.006 1.278 1.006 2.312 0 .604-.167 1.141-.5 1.611-.332.47-.803.838-1.412 1.105a417.058 417.058 0 0 0 3.022 4.47h-2.419l-2.453-3.937h-1.16zm0-1.769h.703c.689 0 1.197-.114 1.525-.345.328-.229.492-.589.492-1.08 0-.486-.168-.832-.502-1.039-.336-.205-.854-.309-1.558-.309h-.661v2.773z"/></g><path fill="#FFF" d="M59.013 77.771l-.745-2.442h-3.746l-.746 2.442h-2.348l3.627-10.302h2.664l3.643 10.302h-2.349zm-1.265-4.266a846.395 846.395 0 0 1-1.164-3.754c-.087-.291-.148-.52-.186-.688-.155.599-.598 2.079-1.329 4.442h2.679zM62.684 77.771v-10.26h2.179v8.464h4.169v1.796h-6.348z"/></svg>