<?xml version="1.0" encoding="utf-8"?>
<!-- Generator: Adobe Illustrator 16.0.4, SVG Export Plug-In . SVG Version: 6.00 Build 0)  -->
<!DOCTYPE svg PUBLIC "-//W3C//DTD SVG 1.1//EN" "http://www.w3.org/Graphics/SVG/1.1/DTD/svg11.dtd">
<svg version="1.1" id="Layer_1" xmlns="http://www.w3.org/2000/svg" xmlns:xlink="http://www.w3.org/1999/xlink" x="0px" y="0px"
	 width="76.68px" height="93.179px" viewBox="0 0 76.68 93.179" enable-background="new 0 0 76.68 93.179" xml:space="preserve">
<g>
	<g>
		<path fill="#FFFFFF" d="M24.801,86.144h2.65v3.786c-0.412,0.132-0.832,0.231-1.259,0.298c-0.427,0.068-0.921,0.102-1.483,0.102
			c-1.18,0-2.1-0.351-2.757-1.052c-0.658-0.7-0.987-1.684-0.987-2.947c0-0.81,0.163-1.519,0.488-2.128
			c0.326-0.607,0.794-1.073,1.406-1.395c0.611-0.321,1.328-0.482,2.148-0.482c0.832,0,1.607,0.153,2.326,0.459l-0.352,0.799
			c-0.705-0.299-1.382-0.447-2.033-0.447c-0.949,0-1.69,0.281-2.224,0.846c-0.534,0.564-0.8,1.348-0.8,2.349
			c0,1.051,0.256,1.848,0.77,2.392c0.515,0.543,1.27,0.814,2.266,0.814c0.54,0,1.068-0.062,1.584-0.187v-2.396h-1.744V86.144z"/>
		<path fill="#FFFFFF" d="M34.236,87.3c0,0.951-0.24,1.693-0.721,2.229c-0.479,0.533-1.143,0.801-1.988,0.801
			c-0.523,0-0.987-0.123-1.393-0.367c-0.406-0.245-0.719-0.597-0.939-1.055s-0.33-0.994-0.33-1.607c0-0.951,0.238-1.693,0.715-2.224
			s1.138-0.796,1.984-0.796c0.817,0,1.467,0.271,1.949,0.814S34.236,86.372,34.236,87.3z M29.782,87.3
			c0,0.745,0.149,1.312,0.448,1.703s0.738,0.586,1.317,0.586s1.02-0.194,1.32-0.583c0.3-0.389,0.45-0.958,0.45-1.706
			c0-0.742-0.15-1.307-0.45-1.691c-0.301-0.385-0.744-0.578-1.331-0.578c-0.58,0-1.018,0.19-1.312,0.57S29.782,86.547,29.782,87.3z"
			/>
		<path fill="#FFFFFF" d="M35.715,82.806c0-0.203,0.049-0.352,0.148-0.445s0.225-0.141,0.373-0.141c0.143,0,0.266,0.047,0.369,0.144
			c0.103,0.096,0.154,0.243,0.154,0.442c0,0.198-0.052,0.346-0.154,0.443c-0.104,0.098-0.227,0.146-0.369,0.146
			c-0.148,0-0.273-0.049-0.373-0.146S35.715,83.004,35.715,82.806z M36.674,90.223h-0.885v-5.836h0.885V90.223z"/>
		<path fill="#FFFFFF" d="M42.146,90.223l-0.176-0.831h-0.043c-0.291,0.366-0.582,0.613-0.871,0.743
			c-0.291,0.13-0.652,0.194-1.086,0.194c-0.58,0-1.034-0.148-1.363-0.447c-0.328-0.299-0.493-0.723-0.493-1.272
			c0-1.179,0.944-1.796,2.833-1.853l0.992-0.033v-0.361c0-0.458-0.1-0.797-0.297-1.015s-0.513-0.327-0.947-0.327
			c-0.486,0-1.037,0.148-1.652,0.447l-0.272-0.677c0.288-0.155,0.604-0.278,0.946-0.367c0.344-0.089,0.688-0.134,1.033-0.134
			c0.696,0,1.213,0.155,1.549,0.464c0.336,0.31,0.504,0.804,0.504,1.485v3.983H42.146z M40.146,89.6
			c0.551,0,0.984-0.151,1.299-0.452c0.314-0.303,0.473-0.725,0.473-1.268v-0.527l-0.887,0.037c-0.703,0.025-1.211,0.135-1.521,0.328
			c-0.312,0.193-0.467,0.494-0.467,0.902c0,0.319,0.096,0.562,0.29,0.729S39.798,89.6,40.146,89.6z"/>
		<path fill="#FFFFFF" d="M48.628,90.223v-3.775c0-0.476-0.108-0.831-0.325-1.065s-0.557-0.352-1.02-0.352
			c-0.611,0-1.059,0.166-1.344,0.496s-0.427,0.875-0.427,1.635v3.062h-0.886v-5.836h0.721l0.144,0.798h0.043
			c0.181-0.287,0.436-0.51,0.763-0.668s0.691-0.236,1.094-0.236c0.703,0,1.234,0.17,1.59,0.508c0.355,0.34,0.533,0.882,0.533,1.627
			v3.808H48.628z"/>
		<path fill="#FFFFFF" d="M56.379,87.3c0,0.951-0.24,1.693-0.721,2.229c-0.48,0.533-1.143,0.801-1.989,0.801
			c-0.522,0-0.987-0.123-1.393-0.367c-0.405-0.245-0.718-0.597-0.938-1.055s-0.331-0.994-0.331-1.607
			c0-0.951,0.238-1.693,0.715-2.224s1.138-0.796,1.984-0.796c0.817,0,1.468,0.271,1.95,0.814
			C56.138,85.638,56.379,86.372,56.379,87.3z M51.924,87.3c0,0.745,0.15,1.312,0.449,1.703s0.737,0.586,1.316,0.586
			c0.58,0,1.02-0.194,1.32-0.583s0.451-0.958,0.451-1.706c0-0.742-0.15-1.307-0.451-1.691s-0.744-0.578-1.33-0.578
			c-0.58,0-1.018,0.19-1.312,0.57S51.924,86.547,51.924,87.3z"/>
	</g>
	<g>
		<path fill="#FFFFFF" d="M43.803,9.825c0,0.555-0.447,1.004-1.001,1.004h-8.307c-0.556,0-1.001-0.449-1.001-1.004V1.52
			c0-0.553,0.445-1.003,1.001-1.003h8.307c0.554,0,1.001,0.45,1.001,1.003V9.825z"/>
	</g>
	<g>
		<path fill="#FFFFFF" d="M56.178,9.825c0,0.555-0.448,1.004-1.002,1.004h-8.307c-0.553,0-1.002-0.449-1.002-1.004V1.52
			c0-0.553,0.449-1.003,1.002-1.003h8.307c0.554,0,1.002,0.45,1.002,1.003V9.825z"/>
	</g>
	<g>
		<path fill="#FFFFFF" d="M56.178,34.575c0,0.555-0.448,1.004-1.002,1.004h-8.307c-0.553,0-1.002-0.449-1.002-1.004v-8.305
			c0-0.556,0.449-1.005,1.002-1.005h8.307c0.554,0,1.002,0.449,1.002,1.005V34.575z"/>
	</g>
	<g>
		<path fill="#FFFFFF" d="M31.43,22.19c0,0.557-0.449,1.006-1.004,1.006h-8.305c-0.556,0-1.002-0.449-1.002-1.006v-8.303
			c0-0.556,0.446-1.004,1.002-1.004h8.305c0.555,0,1.004,0.449,1.004,1.004V22.19z"/>
	</g>
	<g>
		<path fill="#FFFFFF" d="M43.803,22.19c0,0.557-0.447,1.006-1.001,1.006h-8.307c-0.556,0-1.001-0.449-1.001-1.006v-8.303
			c0-0.556,0.445-1.004,1.001-1.004h8.307c0.554,0,1.001,0.449,1.001,1.004V22.19z"/>
	</g>
	<g>
		<path fill="#FFFFFF" d="M31.43,34.575c0,0.555-0.449,1.004-1.004,1.004h-8.305c-0.556,0-1.002-0.449-1.002-1.004v-8.305
			c0-0.556,0.446-1.005,1.002-1.005h8.305c0.555,0,1.004,0.449,1.004,1.005V34.575z"/>
	</g>
	<g>
		<path fill="#FFFFFF" d="M43.803,34.575c0,0.555-0.447,1.004-1.001,1.004h-8.307c-0.556,0-1.001-0.449-1.001-1.004v-8.305
			c0-0.556,0.445-1.005,1.001-1.005h8.307c0.554,0,1.001,0.449,1.001,1.005V34.575z"/>
	</g>
	<g>
		<path fill="#FFFFFF" d="M31.43,46.962c0,0.555-0.449,1.004-1.004,1.004h-8.305c-0.556,0-1.002-0.449-1.002-1.004V38.66
			c0-0.557,0.446-1.006,1.002-1.006h8.305c0.555,0,1.004,0.449,1.004,1.006V46.962z"/>
	</g>
	<g>
		<path fill="#FFFFFF" d="M43.803,46.962c0,0.555-0.447,1.004-1.001,1.004h-8.307c-0.556,0-1.001-0.449-1.001-1.004V38.66
			c0-0.557,0.445-1.006,1.001-1.006h8.307c0.554,0,1.001,0.449,1.001,1.006V46.962z"/>
	</g>
	<g>
		<path fill="#FFFFFF" d="M31.945,5.672c0,3.132-2.539,5.672-5.672,5.672c-3.132,0-5.672-2.54-5.672-5.672
			c0-3.134,2.54-5.672,5.672-5.672C29.406,0,31.945,2.538,31.945,5.672"/>
	</g>
	<g>
		<path fill="#FFFFFF" d="M1.293,65.44v-10.26h2.18v10.26H1.293z"/>
	</g>
	<g>
		<path fill="#FFFFFF" d="M15.191,65.44h-2.77l-4.471-7.762H7.887c0.09,1.371,0.135,2.348,0.135,2.934v4.828H6.074v-10.26h2.748
			l4.464,7.684h0.05c-0.07-1.333-0.105-2.275-0.105-2.828v-4.855h1.961V65.44z"/>
	</g>
	<g>
		<path fill="#FFFFFF" d="M23.947,62.481c0.029,0.926-0.281,1.666-0.932,2.221s-1.569,0.851-2.76,0.89
			c-1.095,0.035-2.071-0.14-2.929-0.523l-0.064-2.02c0.703,0.286,1.297,0.484,1.781,0.596c0.483,0.11,0.925,0.159,1.323,0.146
			c0.478-0.016,0.841-0.119,1.091-0.309c0.249-0.191,0.368-0.467,0.356-0.826c-0.006-0.201-0.068-0.379-0.186-0.531
			c-0.117-0.153-0.287-0.299-0.51-0.438c-0.224-0.138-0.674-0.354-1.354-0.651c-0.639-0.273-1.118-0.541-1.441-0.802
			c-0.321-0.262-0.583-0.569-0.781-0.923c-0.199-0.355-0.307-0.771-0.322-1.254c-0.029-0.908,0.256-1.631,0.855-2.17
			s1.441-0.826,2.529-0.86c0.534-0.018,1.045,0.03,1.534,0.14c0.488,0.111,1.002,0.272,1.538,0.485l-0.648,1.712
			c-0.556-0.207-1.014-0.349-1.374-0.426c-0.361-0.077-0.715-0.111-1.062-0.1c-0.412,0.014-0.726,0.12-0.939,0.319
			c-0.215,0.198-0.316,0.452-0.306,0.761c0.006,0.19,0.056,0.357,0.148,0.497c0.095,0.14,0.24,0.273,0.439,0.4
			c0.198,0.126,0.665,0.352,1.403,0.674c0.975,0.428,1.647,0.866,2.019,1.314C23.729,61.254,23.926,61.813,23.947,62.481z"/>
	</g>
	<g>
		<path fill="#FFFFFF" d="M29.735,65.44h-2.179v-8.449h-2.791v-1.811h7.761v1.811h-2.791V65.44z"/>
		<path fill="#FFFFFF" d="M34.107,65.44v-10.26h2.18v10.26H34.107z"/>
		<path fill="#FFFFFF" d="M42.839,65.44H40.66v-8.449h-2.791v-1.811h7.761v1.811h-2.791V65.44z"/>
	</g>
	<g>
		<path fill="#FFFFFF" d="M55.613,55.181v6.639c0,0.758-0.17,1.422-0.51,1.992c-0.34,0.571-0.83,1.009-1.473,1.312
			c-0.643,0.305-1.4,0.456-2.277,0.456c-1.322,0-2.348-0.338-3.079-1.014c-0.731-0.677-1.097-1.601-1.097-2.775v-6.61h2.172v6.28
			c0,0.79,0.16,1.371,0.479,1.74c0.318,0.37,0.846,0.555,1.582,0.555c0.712,0,1.229-0.187,1.55-0.558
			c0.321-0.373,0.481-0.956,0.481-1.752v-6.266H55.613z"/>
	</g>
	<g>
		<path fill="#FFFFFF" d="M62.127,65.44h-2.18v-8.449h-2.791v-1.811h7.762v1.811h-2.791V65.44z"/>
	</g>
	<g>
		<path fill="#FFFFFF" d="M75.843,60.296c0,1.698-0.422,3.004-1.266,3.916c-0.843,0.912-2.053,1.368-3.627,1.368
			c-1.575,0-2.784-0.456-3.628-1.368s-1.266-2.223-1.266-3.93c0-1.708,0.424-3.012,1.27-3.912s2.059-1.352,3.638-1.352
			s2.788,0.454,3.624,1.361C75.424,57.288,75.843,58.593,75.843,60.296z M68.342,60.296c0,1.146,0.219,2.01,0.654,2.59
			s1.087,0.87,1.954,0.87c1.738,0,2.608-1.153,2.608-3.46c0-2.311-0.865-3.467-2.595-3.467c-0.866,0-1.521,0.291-1.961,0.874
			S68.342,59.149,68.342,60.296z"/>
	</g>
	<g>
		<path fill="#FFFFFF" d="M10.595,77.771H8.451v-10.26h5.891v1.782h-3.747v2.646h3.487v1.775h-3.487V77.771z"/>
	</g>
	<g>
		<path fill="#FFFFFF" d="M22.301,77.771h-5.919v-10.26h5.919v1.782h-3.74v2.253h3.48v1.782h-3.48v2.646h3.74V77.771z"/>
		<path fill="#FFFFFF" d="M32.973,72.544c0,1.688-0.482,2.982-1.445,3.881c-0.963,0.897-2.354,1.347-4.172,1.347h-2.91v-10.26h3.227
			c1.678,0,2.98,0.442,3.908,1.326S32.973,70.958,32.973,72.544z M30.709,72.6c0-2.204-0.976-3.306-2.925-3.306h-1.16v6.682h0.935
			C29.658,75.976,30.709,74.851,30.709,72.6z"/>
		<path fill="#FFFFFF" d="M41.021,77.771h-5.92v-10.26h5.92v1.782h-3.74v2.253h3.48v1.782h-3.48v2.646h3.74V77.771z"/>
		<path fill="#FFFFFF" d="M45.344,73.835v3.937h-2.179v-10.26h2.995c1.396,0,2.43,0.254,3.1,0.762
			c0.67,0.507,1.006,1.278,1.006,2.312c0,0.604-0.167,1.141-0.5,1.611c-0.332,0.47-0.803,0.838-1.412,1.105
			c1.546,2.307,2.554,3.796,3.022,4.47h-2.419l-2.453-3.937H45.344z M45.344,72.066h0.703c0.689,0,1.197-0.114,1.525-0.345
			c0.328-0.229,0.492-0.589,0.492-1.08c0-0.486-0.168-0.832-0.502-1.039c-0.336-0.205-0.854-0.309-1.558-0.309h-0.661V72.066z"/>
	</g>
	<g>
		<path fill="#FFFFFF" d="M59.013,77.771l-0.745-2.442h-3.746l-0.746,2.442h-2.348l3.627-10.302h2.664l3.643,10.302H59.013z
			 M57.748,73.505c-0.689-2.213-1.077-3.465-1.164-3.754c-0.087-0.291-0.148-0.52-0.186-0.688c-0.155,0.599-0.598,2.079-1.329,4.442
			H57.748z"/>
	</g>
	<g>
		<path fill="#FFFFFF" d="M62.684,77.771v-10.26h2.179v8.464h4.169v1.796H62.684z"/>
	</g>
</g>
</svg>
