<?xml version="1.0" encoding="utf-8"?>
<!-- Generator: Adobe Illustrator 16.0.4, SVG Export Plug-In . SVG Version: 6.00 Build 0)  -->
<!DOCTYPE svg PUBLIC "-//W3C//DTD SVG 1.1//EN" "http://www.w3.org/Graphics/SVG/1.1/DTD/svg11.dtd">
<svg version="1.1" id="Layer_1" xmlns="http://www.w3.org/2000/svg" xmlns:xlink="http://www.w3.org/1999/xlink" x="0px" y="0px"
	 width="169.093px" height="67.163px" viewBox="0 0 169.093 67.163" enable-background="new 0 0 169.093 67.163"
	 xml:space="preserve">
<g>
	<g>
		<path fill="#FFFFFF" d="M1.369,67.163c-1.523,0-1.768-1.023-0.772-2.368c0.957-1.292,2.763-2.381,4.17-2.381
			c0.813,0,1.155,0.223,1.356,0.623c-0.381,0.244-0.572,0.366-0.954,0.61c-0.151-0.302-0.371-0.492-0.968-0.492
			c-0.866,0-2.062,0.734-2.715,1.627c-0.697,0.951-0.549,1.646,0.439,1.646c0.456,0,0.969-0.138,1.414-0.348
			c0.243-0.344,0.365-0.516,0.608-0.859H2.723c0.202-0.28,0.302-0.421,0.504-0.702h2.025c-0.541,0.771-0.811,1.157-1.351,1.929
			C3.153,66.836,2.231,67.163,1.369,67.163"/>
	</g>
	<g>
		<path fill="#FFFFFF" d="M13.79,67.163c-1.496,0-1.863-1.069-1.042-2.368s2.519-2.381,3.953-2.381c1.434,0,1.806,1.069,1.042,2.368
			C16.979,66.081,15.285,67.163,13.79,67.163 M16.236,63.155c-0.933,0-2.04,0.729-2.601,1.627c-0.562,0.898-0.34,1.64,0.621,1.64
			s2.065-0.728,2.601-1.627C17.392,63.896,17.169,63.155,16.236,63.155"/>
	</g>
	<g>
		<path fill="#FFFFFF" d="M29.785,62.492h0.888c-1.404,1.556-2.824,3.098-4.258,4.625h-0.75c0.128-1.85,0.209-2.775,0.403-4.625
			h0.908c-0.166,1.412-0.24,2.118-0.37,3.529C27.895,64.61,28.531,63.904,29.785,62.492"/>
	</g>
	<g>
		<path fill="#FFFFFF" d="M41.332,63.215h-2.66c-0.195,0.477-0.292,0.716-0.487,1.193h2.383c-0.111,0.289-0.167,0.434-0.279,0.722
			H37.89c-0.201,0.493-0.302,0.74-0.503,1.233h2.771c-0.111,0.288-0.167,0.434-0.277,0.721h-3.643
			c0.763-1.836,1.145-2.754,1.907-4.592h3.464C41.498,62.781,41.442,62.926,41.332,63.215"/>
	</g>
	<g>
		<path fill="#FFFFFF" d="M50.966,67.084c-0.294-0.64-0.438-0.96-0.719-1.6h-1.056c-0.197,0.64-0.295,0.96-0.492,1.6h-0.855
			c0.578-1.836,0.867-2.754,1.444-4.592h2.083c1.075,0,1.58,0.559,1.328,1.457c-0.213,0.761-0.812,1.22-1.534,1.397
			c0.316,0.695,0.478,1.043,0.81,1.737H50.966z M51.086,63.228h-1.203c-0.189,0.616-0.284,0.925-0.474,1.542h1.226
			c0.6,0,1.068-0.303,1.204-0.775C51.985,63.49,51.697,63.228,51.086,63.228"/>
	</g>
	<g>
		<path fill="#FFFFFF" d="M64.049,62.492h0.808c-0.318,1.838-0.478,2.756-0.796,4.592h-0.716c-0.839-1.307-1.243-1.959-2.021-3.266
			c-0.265,1.307-0.398,1.959-0.663,3.266H59.82c0.386-1.836,0.58-2.754,0.966-4.592h0.761c0.743,1.271,1.128,1.905,1.929,3.176
			C63.705,64.397,63.82,63.763,64.049,62.492"/>
	</g>
	<g>
		<path fill="#FFFFFF" d="M74.577,67.163c-1.496,0-2.428-1.069-2.293-2.368s1.261-2.381,2.695-2.381s2.371,1.069,2.293,2.368
			S76.073,67.163,74.577,67.163 M74.905,63.155c-0.933,0-1.654,0.729-1.741,1.627c-0.087,0.898,0.526,1.64,1.487,1.64
			s1.681-0.728,1.741-1.627C76.453,63.896,75.838,63.155,74.905,63.155"/>
	</g>
	<g>
		<path fill="#FFFFFF" d="M97.315,63.228h-2.674c0.048,0.501,0.072,0.752,0.12,1.253h2.398c0.034,0.294,0.051,0.44,0.086,0.734
			h-2.414c0.072,0.748,0.107,1.122,0.179,1.869h-0.855c-0.162-1.836-0.243-2.754-0.405-4.592h3.477
			C97.262,62.787,97.28,62.934,97.315,63.228"/>
	</g>
	<g>
		<path fill="#FFFFFF" d="M108.422,63.215h-2.66c0.094,0.477,0.14,0.716,0.234,1.193h2.383c0.063,0.289,0.094,0.434,0.157,0.722
			h-2.398c0.096,0.493,0.145,0.74,0.242,1.233h2.77c0.063,0.288,0.096,0.434,0.159,0.721h-3.643
			c-0.346-1.836-0.52-2.754-0.865-4.592h3.464C108.328,62.781,108.359,62.926,108.422,63.215"/>
	</g>
	<g>
		<path fill="#FFFFFF" d="M119.087,67.084h-1.814c-0.532-1.836-0.797-2.754-1.329-4.592h1.742c1.469,0,2.808,0.991,3.233,2.29
			C121.344,66.081,120.617,67.084,119.087,67.084 M117.91,63.228h-0.927c0.371,1.249,0.556,1.873,0.927,3.122h0.954
			c1.015,0,1.471-0.648,1.181-1.555C119.755,63.89,118.898,63.228,117.91,63.228"/>
	</g>
	<g>
		<path fill="#FFFFFF" d="M131.607,63.215h-2.66c0.193,0.477,0.29,0.716,0.483,1.193h2.383c0.123,0.289,0.184,0.434,0.307,0.722
			h-2.398c0.199,0.493,0.299,0.74,0.499,1.233h2.77c0.124,0.288,0.186,0.434,0.31,0.721h-3.643
			c-0.729-1.836-1.094-2.754-1.823-4.592h3.463C131.422,62.781,131.484,62.926,131.607,63.215"/>
	</g>
	<g>
		<path fill="#FFFFFF" d="M144.386,67.084c-0.814-0.64-1.218-0.96-2.02-1.6h-1.056c0.324,0.64,0.485,0.96,0.809,1.6h-0.855
			c-0.915-1.836-1.373-2.754-2.287-4.592h2.083c1.074,0,2.032,0.559,2.51,1.457c0.405,0.761,0.18,1.22-0.398,1.397
			c0.881,0.695,1.325,1.043,2.222,1.737H144.386z M141.373,63.228h-1.203c0.312,0.616,0.468,0.925,0.78,1.542h1.226
			c0.6,0,0.823-0.303,0.575-0.775C142.485,63.49,141.984,63.228,141.373,63.228"/>
	</g>
	<g>
		<path fill="#FFFFFF" d="M157.897,67.084h-0.904c-0.479-0.443-0.717-0.664-1.192-1.108h-2.279c0.072,0.444,0.108,0.665,0.176,1.108
			h-0.875c-0.251-1.85-0.394-2.774-0.714-4.624h0.761C154.538,64.012,156.213,65.552,157.897,67.084 M153.074,63.424
			c0.133,0.735,0.197,1.103,0.319,1.837h1.649C154.25,64.526,153.856,64.159,153.074,63.424"/>
	</g>
	<g>
		<path fill="#FFFFFF" d="M162.417,62.492h0.821c1.108,1.543,1.662,2.314,2.769,3.857h2.542c0.217,0.294,0.326,0.441,0.543,0.734
			h-3.413C164.375,65.248,163.722,64.33,162.417,62.492"/>
	</g>
	<g>
		<polygon fill="#FFFFFF" points="136.23,33.57 145.752,50.722 160.585,50.722 166.634,59.492 139.23,59.492 127.32,33.57 		"/>
	</g>
	<g>
		<path fill="#FFFFFF" d="M125.723,33.57h-8.91l0.8,2.308c-0.933-0.457-1.882-0.854-2.859-1.191
			c-0.97-0.335-1.968-0.612-3.006-0.833c-1.034-0.221-2.108-0.385-3.235-0.494c-1.124-0.109-2.302-0.164-3.545-0.164
			c-0.638,0-1.244,0.024-1.822,0.068c-1.887,3.735-4.737,6.901-8.224,9.171c0.219,0.489,0.5,0.943,0.845,1.362
			c0.756,0.918,1.793,1.668,3.04,2.294c1.261,0.633,2.73,1.135,4.333,1.558c1.615,0.425,3.359,0.768,5.161,1.08
			c0.863,0.146,1.58,0.284,2.172,0.421c0.594,0.138,1.063,0.275,1.431,0.422c0.369,0.146,0.636,0.303,0.826,0.478
			c0.19,0.175,0.302,0.369,0.36,0.591c0.05,0.193,0.044,0.367-0.022,0.519c-0.067,0.152-0.196,0.281-0.39,0.387
			c-0.194,0.106-0.456,0.188-0.788,0.243c-0.333,0.055-0.735,0.083-1.214,0.083c-0.934,0-1.896-0.062-2.873-0.192
			c-0.976-0.13-1.964-0.328-2.955-0.601c-0.986-0.27-1.971-0.611-2.942-1.031c-0.964-0.416-1.913-0.906-2.833-1.476l-2.939,3.603
			l-4.476-7.962c-2.804,1.249-5.896,1.968-9.149,2.028l0.873,2.097H77.73l1.132-2.307c-2.988-0.404-5.799-1.366-8.323-2.779
			l-7.074,11.148L60.602,49.2c1.03-0.403,1.98-0.878,2.833-1.421c0.845-0.537,1.593-1.143,2.231-1.814
			c0.63-0.663,1.152-1.389,1.552-2.177c0.349-0.687,0.604-1.419,0.759-2.195c-2.764-2.055-5.064-4.701-6.712-7.751
			c-0.262-0.04-0.531-0.077-0.812-0.109c-0.948-0.106-2.006-0.162-3.186-0.162H44.246l-1.654,3.82
			c0.017-0.205,0.015-0.399-0.005-0.583c-0.02-0.183-0.057-0.356-0.109-0.519c-0.051-0.163-0.118-0.315-0.198-0.458
			c-0.08-0.144-0.172-0.276-0.276-0.399c-0.259-0.309-0.581-0.578-0.975-0.811c-0.392-0.231-0.857-0.426-1.405-0.581
			c-0.546-0.155-1.176-0.273-1.899-0.352c-0.723-0.079-1.54-0.118-2.463-0.118H20.336L2.458,59.492h18.887
			c1.453,0,2.845-0.11,4.163-0.318c1.314-0.208,2.551-0.513,3.702-0.901c1.144-0.385,2.199-0.853,3.158-1.387
			c0.951-0.53,1.804-1.127,2.555-1.775l-1.897,4.382h11.391l2.957-8.771h2.254l3.646,8.771h6.961h6.035h6.134l2.125-4.289h11.496
			l1.856,4.289h12.362l-1.026-1.827c0.945,0.397,1.931,0.749,2.949,1.053c1.024,0.306,2.08,0.562,3.161,0.769
			c1.085,0.207,2.194,0.363,3.32,0.468c1.127,0.104,2.27,0.157,3.421,0.157c1.697,0,3.245-0.146,4.624-0.428
			c1.372-0.281,2.572-0.695,3.583-1.23c1.002-0.529,1.815-1.175,2.426-1.924c0.603-0.738,1.007-1.576,1.204-2.496l1.893,5.459
			h11.391L125.723,33.57z M28.157,49.516l-0.042,0.08c-0.155,0.299-0.372,0.577-0.646,0.827c-0.275,0.25-0.609,0.472-0.997,0.655
			c-0.388,0.185-0.83,0.33-1.319,0.431c-0.49,0.101-1.028,0.155-1.608,0.155h-5.32l2.467-4.137h5.166
			c0.558,0,1.018,0.051,1.385,0.144c0.368,0.094,0.642,0.23,0.828,0.404c0.187,0.175,0.285,0.386,0.298,0.627
			C28.383,48.945,28.311,49.219,28.157,49.516 M32.042,40.578l-0.036,0.068c-0.137,0.26-0.32,0.492-0.551,0.694
			c-0.232,0.202-0.511,0.375-0.839,0.514c-0.329,0.14-0.705,0.247-1.129,0.318s-0.897,0.108-1.418,0.108h-4.247l1.959-3.285h4.07
			c0.503,0,0.925,0.034,1.267,0.102c0.342,0.068,0.603,0.169,0.785,0.302s0.285,0.298,0.308,0.495
			C32.234,40.091,32.178,40.319,32.042,40.578 M38.413,47.047c-0.136-0.33-0.325-0.629-0.564-0.899
			c-0.238-0.27-0.525-0.513-0.856-0.731c-0.331-0.218-0.705-0.412-1.12-0.586c-0.414-0.174-0.867-0.327-1.356-0.463
			c0.725-0.188,1.421-0.409,2.082-0.667c0.657-0.258,1.277-0.55,1.853-0.88c0.572-0.328,1.1-0.692,1.576-1.094
			c0.472-0.398,0.892-0.832,1.252-1.304L38.413,47.047z M58.277,41.867l-0.018,0.069c-0.096,0.371-0.271,0.706-0.518,1
			c-0.248,0.295-0.567,0.548-0.949,0.755c-0.384,0.207-0.83,0.367-1.328,0.476c-0.5,0.108-1.052,0.165-1.647,0.165h-4.29
			l1.589-4.715h4.136c0.547,0,1.034,0.045,1.449,0.137c0.417,0.091,0.763,0.229,1.028,0.412c0.267,0.186,0.453,0.418,0.548,0.699
			C58.374,41.148,58.377,41.482,58.277,41.867 M118.712,44.291c-0.904-0.498-1.91-0.921-3.006-1.288
			c-1.089-0.364-2.271-0.673-3.534-0.943c-1.257-0.269-2.596-0.498-4.006-0.705c-0.79-0.119-1.436-0.233-1.962-0.348
			c-0.525-0.114-0.931-0.229-1.243-0.349c-0.311-0.119-0.528-0.243-0.674-0.377s-0.223-0.277-0.253-0.434l-0.013-0.066
			c-0.027-0.141-0.012-0.27,0.048-0.384c0.06-0.114,0.165-0.216,0.318-0.3c0.152-0.082,0.351-0.148,0.601-0.193
			c0.249-0.045,0.548-0.069,0.899-0.069c0.654,0,1.353,0.042,2.082,0.13c0.729,0.088,1.49,0.223,2.267,0.406
			c0.78,0.184,1.577,0.418,2.377,0.707c0.805,0.289,1.614,0.635,2.413,1.039l2.747-4.781l3.365,9.709
			C120.437,45.371,119.625,44.793,118.712,44.291"/>
	</g>
	<g>
		<path fill="#FFFFFF" d="M84.259,16.229c-12.276-4.227-23.525-3.885-25.126,0.763c-0.358,1.042-0.202,2.213,0.396,3.448
			c0.023-0.24,0.05-0.479,0.081-0.718c-0.266-0.85-0.287-1.657-0.033-2.394c1.533-4.454,12.504-4.713,24.504-0.582
			s20.484,11.091,18.951,15.544c-0.253,0.736-0.766,1.357-1.498,1.863c-0.123,0.208-0.25,0.414-0.379,0.617
			c1.23-0.606,2.075-1.431,2.433-2.473C105.189,27.65,96.535,20.456,84.259,16.229"/>
	</g>
	<g>
		<path fill="#FFFFFF" d="M62.653,11.369c0.13-0.207,0.282-0.399,0.454-0.577c0.172-0.177,0.361-0.332,0.569-0.467
			c0.208-0.134,0.425-0.236,0.651-0.306c0.229-0.07,0.419-0.093,0.571-0.069c0.152,0.024,0.266,0.087,0.342,0.188
			c0.077,0.101,0.116,0.234,0.117,0.401c0.002,0.167-0.035,0.359-0.11,0.577c-0.073,0.213-0.175,0.422-0.304,0.626
			s-0.28,0.394-0.451,0.568s-0.359,0.328-0.566,0.46c-0.206,0.133-0.423,0.234-0.652,0.305c-0.227,0.069-0.416,0.093-0.57,0.07
			c-0.154-0.022-0.27-0.083-0.347-0.181c-0.077-0.099-0.117-0.229-0.12-0.394c-0.002-0.164,0.033-0.352,0.106-0.564
			C62.42,11.788,62.523,11.576,62.653,11.369 M62.915,12.152c-0.011,0.107,0,0.197,0.031,0.271c0.032,0.073,0.089,0.122,0.171,0.146
			c0.083,0.024,0.197,0.015,0.344-0.03c0.146-0.045,0.28-0.111,0.401-0.199c0.121-0.087,0.229-0.187,0.325-0.299
			c0.095-0.111,0.177-0.23,0.246-0.355c0.069-0.125,0.125-0.249,0.167-0.372c0.044-0.128,0.073-0.248,0.085-0.358
			c0.012-0.111,0.003-0.204-0.028-0.279c-0.031-0.074-0.088-0.124-0.171-0.148s-0.197-0.015-0.343,0.03
			c-0.146,0.045-0.28,0.111-0.401,0.197c-0.121,0.087-0.23,0.188-0.326,0.302c-0.096,0.113-0.179,0.234-0.249,0.363
			s-0.127,0.258-0.172,0.386C62.952,11.931,62.926,12.045,62.915,12.152"/>
	</g>
	<g>
		<path fill="#FFFFFF" d="M67.689,9.472c0.138-0.015,0.254-0.006,0.35,0.024c0.096,0.031,0.171,0.079,0.225,0.145
			c0.053,0.065,0.084,0.145,0.092,0.237s-0.007,0.195-0.045,0.306c-0.06,0.172-0.148,0.325-0.268,0.458
			c-0.12,0.134-0.276,0.242-0.471,0.325l-0.002,0.008c0.076,0.014,0.133,0.04,0.172,0.079s0.065,0.088,0.079,0.146
			c0.013,0.058,0.015,0.123,0.005,0.195c-0.01,0.072-0.024,0.145-0.044,0.217c-0.013,0.047-0.029,0.101-0.048,0.163
			c-0.019,0.062-0.036,0.126-0.051,0.19c-0.016,0.064-0.025,0.126-0.03,0.183c-0.004,0.058,0.002,0.104,0.02,0.142l-0.675,0.07
			c-0.006-0.089,0.009-0.196,0.045-0.324c0.036-0.127,0.065-0.249,0.088-0.364c0.03-0.15,0.02-0.257-0.03-0.32
			c-0.05-0.063-0.16-0.086-0.33-0.068l-0.675,0.07l-0.393,1.142l-0.675,0.07l1.005-2.92L67.689,9.472z M66.993,10.818
			c0.155-0.016,0.282-0.061,0.382-0.134c0.1-0.074,0.176-0.184,0.227-0.331c0.048-0.142,0.045-0.241-0.01-0.297
			c-0.056-0.056-0.161-0.076-0.316-0.06l-0.74,0.077l-0.283,0.822L66.993,10.818z"/>
	</g>
	<g>
		<path fill="#FFFFFF" d="M70.287,9.389c0.199,0.002,0.375,0.035,0.525,0.097c0.151,0.062,0.269,0.154,0.353,0.275
			c0.084,0.122,0.13,0.272,0.139,0.454c0.009,0.181-0.029,0.392-0.112,0.635c-0.073,0.213-0.17,0.409-0.29,0.588
			s-0.26,0.334-0.422,0.463c-0.162,0.13-0.343,0.231-0.543,0.304c-0.2,0.073-0.418,0.108-0.655,0.105l-1.333-0.016l1.006-2.92
			L70.287,9.389z M69.42,11.769c0.098,0.001,0.198-0.012,0.301-0.042c0.103-0.029,0.202-0.078,0.298-0.146
			c0.096-0.069,0.185-0.159,0.267-0.27c0.082-0.112,0.15-0.248,0.206-0.409c0.05-0.146,0.082-0.28,0.092-0.399
			c0.011-0.119-0.004-0.221-0.044-0.306c-0.04-0.086-0.109-0.151-0.208-0.198c-0.098-0.046-0.231-0.07-0.398-0.072l-0.484-0.006
			l-0.634,1.841L69.42,11.769z"/>
	</g>
	<g>
		<polygon fill="#FFFFFF" points="74.304,9.652 74.118,10.192 72.494,10.042 72.278,10.668 73.769,10.806 73.597,11.305 
			72.106,11.167 71.86,11.883 73.519,12.036 73.333,12.576 70.998,12.361 72.004,9.44 		"/>
	</g>
	<g>
		<polygon fill="#FFFFFF" points="75.583,9.839 75.604,11.965 75.612,11.966 76.979,10.069 77.922,10.225 76.916,13.146 
			76.289,13.042 77.001,10.973 76.993,10.971 75.533,12.917 75.017,12.832 74.976,10.659 74.967,10.657 74.261,12.707 
			73.634,12.603 74.64,9.683 		"/>
	</g>
	<g>
		<polygon fill="#FFFFFF" points="81.639,11.116 81.453,11.655 79.87,11.262 79.655,11.888 81.107,12.249 80.936,12.748 
			79.483,12.387 79.236,13.103 80.853,13.505 80.667,14.044 78.391,13.479 79.397,10.558 		"/>
	</g>
	<g>
		<path fill="#FFFFFF" d="M84.327,11.923c0.184,0.059,0.332,0.135,0.443,0.229c0.111,0.094,0.191,0.197,0.243,0.311
			s0.076,0.231,0.075,0.354c-0.001,0.124-0.022,0.246-0.064,0.365c-0.041,0.118-0.099,0.227-0.175,0.328
			c-0.076,0.102-0.17,0.183-0.281,0.245c-0.111,0.062-0.24,0.098-0.388,0.11s-0.313-0.011-0.498-0.069l-0.681-0.215l-0.361,1.047
			l-0.647-0.205l1.006-2.92L84.327,11.923z M83.676,13.241c0.074,0.023,0.147,0.041,0.22,0.052s0.14,0.009,0.204-0.006
			c0.063-0.015,0.12-0.045,0.171-0.093s0.093-0.118,0.125-0.21c0.032-0.093,0.042-0.173,0.03-0.24
			c-0.012-0.067-0.039-0.125-0.08-0.172c-0.041-0.048-0.095-0.088-0.16-0.121s-0.134-0.061-0.208-0.084l-0.503-0.159l-0.301,0.875
			L83.676,13.241z"/>
	</g>
	<g>
		<path fill="#FFFFFF" d="M87.105,12.886c0.13,0.047,0.24,0.111,0.33,0.192c0.089,0.081,0.159,0.171,0.208,0.272
			c0.049,0.101,0.076,0.207,0.082,0.317c0.006,0.112-0.01,0.223-0.048,0.335c-0.059,0.172-0.146,0.308-0.262,0.406
			c-0.115,0.1-0.265,0.152-0.45,0.158l-0.003,0.008c0.071,0.051,0.125,0.107,0.161,0.172c0.036,0.063,0.06,0.132,0.071,0.205
			c0.011,0.073,0.012,0.149,0.001,0.229c-0.01,0.079-0.025,0.157-0.045,0.232c-0.014,0.047-0.029,0.103-0.048,0.167
			s-0.036,0.129-0.052,0.197c-0.016,0.068-0.026,0.134-0.032,0.199c-0.005,0.063,0,0.121,0.016,0.173l-0.638-0.233
			c-0.003-0.106,0.013-0.224,0.049-0.355c0.036-0.131,0.066-0.258,0.09-0.382c0.031-0.16,0.023-0.289-0.022-0.386
			c-0.046-0.097-0.149-0.174-0.309-0.232l-0.638-0.233l-0.393,1.141l-0.638-0.233l1.005-2.92L87.105,12.886z M86.423,14.124
			c0.146,0.054,0.267,0.061,0.363,0.022c0.096-0.039,0.169-0.132,0.22-0.278c0.049-0.142,0.047-0.259-0.003-0.35
			c-0.051-0.09-0.15-0.163-0.296-0.216l-0.699-0.255l-0.283,0.822L86.423,14.124z"/>
	</g>
	<g>
		<path fill="#FFFFFF" d="M87.927,14.164c0.128-0.16,0.275-0.284,0.443-0.373c0.167-0.089,0.352-0.135,0.553-0.141
			s0.411,0.038,0.628,0.13c0.22,0.093,0.403,0.216,0.549,0.368s0.254,0.323,0.326,0.513c0.072,0.19,0.107,0.391,0.107,0.605
			s-0.039,0.43-0.114,0.647c-0.073,0.213-0.174,0.398-0.3,0.555c-0.127,0.157-0.274,0.279-0.44,0.364
			c-0.167,0.086-0.35,0.132-0.549,0.137c-0.2,0.004-0.41-0.04-0.63-0.133c-0.218-0.092-0.401-0.213-0.548-0.365
			s-0.257-0.32-0.33-0.507c-0.073-0.187-0.109-0.385-0.11-0.597s0.036-0.423,0.109-0.636C87.697,14.513,87.798,14.323,87.927,14.164
			 M88.166,15.371c-0.012,0.128-0.003,0.251,0.026,0.369c0.029,0.119,0.083,0.227,0.162,0.324c0.079,0.097,0.189,0.176,0.33,0.235
			s0.27,0.082,0.388,0.067c0.118-0.014,0.223-0.055,0.315-0.121c0.094-0.067,0.174-0.153,0.242-0.257s0.123-0.217,0.165-0.34
			c0.044-0.128,0.073-0.258,0.086-0.39c0.013-0.131,0.006-0.257-0.023-0.377c-0.028-0.12-0.082-0.229-0.161-0.326
			s-0.189-0.176-0.33-0.236c-0.141-0.059-0.27-0.082-0.387-0.067c-0.118,0.014-0.223,0.055-0.316,0.124
			c-0.094,0.068-0.175,0.157-0.245,0.265c-0.069,0.108-0.125,0.227-0.17,0.354C88.205,15.118,88.178,15.243,88.166,15.371"/>
	</g>
	<g>
		<path fill="#FFFFFF" d="M91.854,18.277c-0.152-0.006-0.296-0.042-0.43-0.108c-0.212-0.104-0.39-0.236-0.533-0.397
			c-0.143-0.161-0.25-0.338-0.319-0.532c-0.07-0.193-0.104-0.397-0.103-0.612c0.001-0.215,0.039-0.428,0.112-0.641
			c0.075-0.218,0.176-0.405,0.302-0.562s0.272-0.275,0.436-0.357c0.165-0.082,0.345-0.121,0.542-0.117
			c0.197,0.004,0.402,0.059,0.614,0.162c0.142,0.07,0.272,0.16,0.39,0.271c0.118,0.11,0.215,0.236,0.293,0.376
			c0.077,0.14,0.129,0.291,0.155,0.453c0.026,0.163,0.018,0.331-0.024,0.505l-0.583-0.286c0.02-0.181-0.008-0.338-0.083-0.471
			c-0.076-0.132-0.187-0.235-0.334-0.307c-0.138-0.067-0.264-0.097-0.378-0.088c-0.115,0.009-0.219,0.046-0.311,0.111
			c-0.092,0.065-0.172,0.151-0.241,0.258c-0.068,0.106-0.125,0.224-0.169,0.352c-0.042,0.123-0.069,0.249-0.082,0.378
			c-0.013,0.129-0.005,0.255,0.022,0.377c0.028,0.122,0.08,0.234,0.157,0.337c0.077,0.103,0.183,0.188,0.32,0.255
			c0.202,0.099,0.377,0.122,0.524,0.068s0.265-0.178,0.354-0.374l-0.614-0.301l0.165-0.479l1.165,0.571l-0.543,1.579l-0.389-0.19
			l0.052-0.362C92.163,18.239,92.007,18.283,91.854,18.277"/>
	</g>
	<g>
		<path fill="#FFFFFF" d="M95.39,16.744c0.121,0.068,0.222,0.15,0.304,0.247c0.083,0.097,0.145,0.202,0.189,0.314
			c0.044,0.112,0.067,0.228,0.07,0.345c0.003,0.118-0.015,0.232-0.053,0.344c-0.059,0.172-0.144,0.302-0.253,0.39
			s-0.251,0.122-0.424,0.102l-0.003,0.008c0.065,0.063,0.114,0.131,0.146,0.203s0.053,0.147,0.062,0.226
			c0.009,0.078,0.008,0.158-0.004,0.24c-0.011,0.081-0.027,0.16-0.047,0.236c-0.014,0.048-0.03,0.104-0.049,0.168
			c-0.019,0.064-0.037,0.131-0.053,0.2c-0.016,0.069-0.027,0.136-0.034,0.203c-0.007,0.067-0.003,0.128,0.011,0.185l-0.591-0.334
			c-0.001-0.111,0.017-0.233,0.054-0.366c0.037-0.132,0.067-0.261,0.093-0.387c0.032-0.165,0.028-0.3-0.013-0.408
			c-0.041-0.107-0.136-0.204-0.284-0.287l-0.591-0.334l-0.393,1.141l-0.591-0.334l1.005-2.92L95.39,16.744z M94.724,17.946
			c0.136,0.077,0.249,0.101,0.339,0.074c0.09-0.027,0.161-0.114,0.211-0.262c0.049-0.142,0.051-0.264,0.005-0.367
			c-0.045-0.102-0.136-0.191-0.272-0.268l-0.648-0.366l-0.283,0.822L94.724,17.946z"/>
	</g>
	<g>
		<polygon fill="#FFFFFF" points="98.38,18.616 98.194,19.156 96.827,18.266 96.612,18.892 97.866,19.709 97.694,20.208 
			96.44,19.391 96.194,20.106 97.589,21.016 97.403,21.556 95.438,20.276 96.444,17.355 		"/>
	</g>
	<g>
		<path fill="#FFFFFF" d="M98.312,21.328c0.006,0.091,0.027,0.176,0.062,0.256s0.082,0.155,0.141,0.227
			c0.059,0.071,0.125,0.134,0.196,0.188c0.048,0.037,0.102,0.072,0.16,0.104c0.058,0.033,0.116,0.054,0.173,0.063
			c0.058,0.01,0.11,0.003,0.159-0.021s0.085-0.071,0.111-0.146c0.027-0.079,0.028-0.159,0.002-0.24
			c-0.025-0.082-0.067-0.165-0.125-0.25c-0.057-0.085-0.125-0.173-0.204-0.265c-0.079-0.091-0.157-0.186-0.236-0.284
			c-0.083-0.098-0.16-0.199-0.233-0.306c-0.074-0.105-0.134-0.217-0.181-0.332s-0.076-0.235-0.085-0.362
			c-0.01-0.126,0.008-0.256,0.054-0.39c0.052-0.15,0.124-0.26,0.215-0.329c0.092-0.069,0.194-0.108,0.307-0.115
			c0.112-0.007,0.229,0.014,0.352,0.062c0.123,0.049,0.238,0.115,0.349,0.199c0.128,0.098,0.246,0.209,0.352,0.334
			c0.106,0.124,0.192,0.259,0.257,0.406c0.065,0.146,0.104,0.299,0.117,0.459c0.013,0.159-0.009,0.324-0.068,0.493l-0.522-0.399
			c0.025-0.091,0.035-0.175,0.028-0.253c-0.006-0.077-0.026-0.148-0.058-0.215c-0.032-0.065-0.074-0.127-0.125-0.184
			c-0.052-0.057-0.11-0.11-0.177-0.161c-0.044-0.033-0.089-0.061-0.137-0.083c-0.047-0.022-0.093-0.034-0.138-0.033
			c-0.045,0-0.086,0.012-0.123,0.035c-0.037,0.023-0.066,0.066-0.088,0.129c-0.02,0.058-0.027,0.111-0.021,0.16
			c0.006,0.049,0.031,0.11,0.074,0.181c0.044,0.071,0.108,0.158,0.192,0.261c0.085,0.103,0.196,0.236,0.334,0.399
			c0.042,0.046,0.099,0.115,0.17,0.206c0.072,0.091,0.137,0.198,0.195,0.322c0.059,0.125,0.099,0.261,0.122,0.411
			c0.022,0.15,0.005,0.307-0.051,0.47c-0.046,0.133-0.111,0.241-0.193,0.322c-0.083,0.081-0.182,0.131-0.296,0.148
			c-0.115,0.017-0.244,0.001-0.387-0.05c-0.143-0.052-0.298-0.141-0.466-0.269c-0.135-0.104-0.259-0.224-0.373-0.36
			c-0.114-0.137-0.205-0.285-0.273-0.443c-0.068-0.159-0.108-0.326-0.121-0.5c-0.013-0.175,0.014-0.351,0.078-0.53l0.522,0.399
			C98.32,21.143,98.306,21.237,98.312,21.328"/>
	</g>
	<g>
		<path fill="#FFFFFF" d="M100.475,23.078c0.004,0.094,0.021,0.183,0.051,0.268c0.03,0.085,0.072,0.167,0.126,0.245
			s0.113,0.148,0.178,0.209c0.044,0.042,0.093,0.082,0.146,0.12c0.054,0.038,0.107,0.064,0.16,0.079
			c0.054,0.015,0.103,0.012,0.149-0.008c0.045-0.02,0.081-0.067,0.106-0.141c0.027-0.079,0.03-0.162,0.008-0.247
			c-0.022-0.086-0.059-0.175-0.11-0.268c-0.051-0.092-0.112-0.188-0.184-0.288c-0.071-0.1-0.142-0.204-0.213-0.311
			c-0.074-0.107-0.145-0.218-0.21-0.333c-0.066-0.115-0.12-0.234-0.161-0.356c-0.042-0.122-0.065-0.249-0.071-0.379
			s0.014-0.263,0.06-0.397c0.052-0.149,0.121-0.257,0.208-0.32c0.087-0.064,0.184-0.095,0.288-0.093
			c0.105,0.002,0.214,0.032,0.326,0.092c0.113,0.061,0.219,0.138,0.32,0.233c0.117,0.111,0.224,0.235,0.319,0.371
			c0.096,0.137,0.172,0.283,0.23,0.438s0.09,0.316,0.099,0.481c0.008,0.166-0.017,0.333-0.075,0.502l-0.477-0.453
			c0.026-0.091,0.037-0.177,0.032-0.257c-0.004-0.08-0.021-0.155-0.049-0.226c-0.029-0.071-0.066-0.137-0.113-0.2
			c-0.046-0.062-0.1-0.122-0.161-0.18c-0.04-0.038-0.082-0.07-0.125-0.097s-0.086-0.042-0.128-0.045s-0.08,0.005-0.115,0.026
			c-0.035,0.021-0.063,0.063-0.085,0.125c-0.02,0.057-0.027,0.112-0.022,0.163c0.004,0.052,0.026,0.115,0.065,0.192
			c0.039,0.077,0.096,0.171,0.173,0.283s0.177,0.259,0.301,0.438c0.038,0.05,0.089,0.125,0.154,0.224s0.123,0.215,0.174,0.347
			c0.052,0.132,0.086,0.276,0.104,0.432c0.017,0.156-0.002,0.315-0.059,0.479c-0.046,0.134-0.108,0.239-0.188,0.316
			s-0.172,0.12-0.28,0.128c-0.106,0.009-0.226-0.019-0.358-0.083c-0.132-0.063-0.274-0.168-0.427-0.313
			c-0.124-0.118-0.237-0.25-0.339-0.401c-0.103-0.149-0.184-0.309-0.244-0.478c-0.06-0.169-0.093-0.344-0.101-0.524
			c-0.007-0.18,0.021-0.359,0.085-0.538l0.477,0.453C100.486,22.887,100.471,22.983,100.475,23.078"/>
	</g>
	<g>
		<path fill="#FFFFFF" d="M102.562,23.278c0.104-0.13,0.219-0.213,0.342-0.246c0.124-0.034,0.254-0.014,0.391,0.061
			c0.138,0.074,0.275,0.208,0.413,0.4c0.139,0.195,0.25,0.407,0.332,0.639s0.137,0.47,0.165,0.715
			c0.028,0.244,0.029,0.488,0.005,0.731c-0.024,0.243-0.073,0.474-0.148,0.692c-0.073,0.213-0.162,0.383-0.265,0.511
			c-0.104,0.128-0.217,0.207-0.339,0.238c-0.123,0.03-0.252,0.009-0.388-0.066c-0.136-0.074-0.274-0.209-0.413-0.403
			c-0.138-0.192-0.249-0.404-0.332-0.635c-0.083-0.231-0.14-0.468-0.168-0.71c-0.029-0.242-0.032-0.483-0.008-0.724
			c0.022-0.24,0.071-0.467,0.144-0.679C102.367,23.583,102.457,23.409,102.562,23.278 M102.591,24.748
			c-0.022,0.141-0.03,0.284-0.023,0.431c0.007,0.146,0.032,0.291,0.075,0.434c0.043,0.142,0.109,0.276,0.198,0.401
			c0.089,0.123,0.174,0.201,0.256,0.232c0.081,0.03,0.157,0.026,0.228-0.013c0.071-0.038,0.135-0.104,0.192-0.194
			c0.057-0.092,0.107-0.199,0.15-0.322c0.044-0.128,0.078-0.264,0.102-0.408c0.023-0.145,0.032-0.291,0.026-0.439
			c-0.007-0.148-0.031-0.293-0.074-0.436s-0.109-0.276-0.198-0.4c-0.089-0.124-0.174-0.202-0.256-0.232s-0.158-0.026-0.229,0.014
			c-0.071,0.04-0.136,0.108-0.195,0.203c-0.059,0.096-0.11,0.208-0.155,0.335C102.646,24.476,102.613,24.607,102.591,24.748"/>
	</g>
	<g>
		<path fill="#FFFFFF" d="M82.055,0c-7.599,0-14.319,3.747-18.424,9.492c4.401-1.882,13.057-1.29,22.296,1.892
			s16.426,8.044,18.734,12.236c0.015-0.328,0.024-0.658,0.024-0.989C104.686,10.132,94.553,0,82.055,0z M90.728,12.309l-1.024-0.669
			l-1.021,0.583l0.258-1.119l-0.919-0.774l1.167-0.033l0.424-1.005l0.48,1.069l1.174,0.15l-0.873,0.679L90.728,12.309z"/>
	</g>
	<g>
		<path fill="#FFFFFF" d="M83.938,17.162c-5.454-1.878-10.913-2.912-15.372-2.912c-4.614,0-7.696,1.111-8.51,3.057
			c-0.412,1.707-0.631,3.49-0.631,5.324c0,12.499,10.132,22.63,22.631,22.63c9.161,0,17.05-5.443,20.61-13.271
			C103.825,27.828,95.344,21.09,83.938,17.162z M61.621,18.022l0.319-0.868l0.214,0.84l0.755,0.02l-0.625,0.638l0.133,0.888
			l-0.585-0.468l-0.626,0.512l0.214-0.904l-0.488-0.545L61.621,18.022z M62.234,31.301l-0.543-0.464l-0.438,0.315l0.062-0.688
			l-0.473-0.535l0.556,0.031l0.158-0.676l0.28,0.736l0.6,0.123l-0.42,0.43L62.234,31.301z M64.192,29.725L63.5,29.176l-0.613,0.412
			l0.119-0.876l-0.587-0.626l0.736-0.005c0,0,0.223-0.833,0.241-0.851l0.337,0.898l0.797,0.123l-0.587,0.556L64.192,29.725z
			 M65.688,27.736l-0.392-0.291l-0.367,0.246l0.085-0.492l-0.339-0.359l0.432-0.004l0.157-0.484l0.182,0.496l0.473,0.057
			l-0.363,0.33L65.688,27.736z M98.27,30.947l0.371-0.895L98.87,30.9l0.801-0.01l-0.676,0.647l0.107,0.851l-0.625-0.41l-0.75,0.546
			l0.289-0.907l-0.59-0.541L98.27,30.947z M87.13,21.399l0.288-0.711l0.276,0.723l0.736,0.056l-0.576,0.476l0.176,0.736
			l-0.624-0.412l-0.644,0.396l0.192-0.724l-0.56-0.487L87.13,21.399z M67.871,34.439l-0.554-0.392l-0.484,0.279l0.091-0.613
			l-0.489-0.463l0.592,0.021l0.177-0.581l0.28,0.635l0.624,0.113l-0.436,0.371L67.871,34.439z M68.607,32.186l-0.667-0.457
			l-0.597,0.344l0.134-0.731l-0.586-0.554h0.716l0.242-0.716l0.328,0.769l0.748,0.108l-0.554,0.474L68.607,32.186z M71.637,37.386
			l-0.802-0.523l-0.719,0.37l0.142-0.803l-0.731-0.632l0.885,0.033l0.278-0.798l0.403,0.865l0.927,0.141l-0.669,0.499L71.637,37.386
			z M71.551,23.768l0.198,0.825l-0.691-0.471l-0.685,0.444l0.182-0.835l-0.61-0.546l0.809-0.059l0.311-0.819l0.294,0.829
			l0.819,0.075L71.551,23.768z M78.417,30.674l-0.618-0.396l-0.633,0.376l0.177-0.702l-0.557-0.477l0.723-0.036l0.282-0.674
			l0.279,0.69l0.738,0.057l-0.569,0.472L78.417,30.674z M79.256,31.844l0.137-0.524l-0.416-0.343l0.549-0.033l0.202-0.504
			l0.214,0.517l0.561,0.045l-0.436,0.338l0.137,0.529l-0.472-0.299L79.256,31.844z M81.693,42.349l-0.341-0.175l-0.361,0.175
			l0.114-0.303l-0.312-0.218l0.405-0.023l0.154-0.314l0.149,0.32l0.41,0.023l-0.32,0.221L81.693,42.349z M82.157,35.896
			l-0.863-0.503l-0.857,0.484l0.249-0.9l-0.783-0.615l1.012-0.056l0.392-0.895l0.379,0.913l1.006,0.069l-0.776,0.596L82.157,35.896z
			 M82.045,27.502l0.209,0.852l-0.75-0.477l-0.754,0.456l0.214-0.855l-0.666-0.565l0.888-0.053l0.334-0.839l0.331,0.855l0.884,0.052
			L82.045,27.502z M84.672,30.593l-0.734-0.46l-0.755,0.448l0.226-0.819l-0.658-0.557l0.868-0.053l0.347-0.819l0.314,0.827
			l0.88,0.045l-0.69,0.557L84.672,30.593z M86.547,37.577l-0.625,0.345l0.199-0.619L85.6,36.899l0.71-0.06l0.291-0.629l0.242,0.613
			l0.699,0.021l-0.56,0.441l0.14,0.592L86.547,37.577z M89.022,40.521l-0.635-0.312l-0.705,0.372l0.237-0.646l-0.586-0.414
			l0.812-0.086l0.355-0.657l0.237,0.641l0.78-0.005l-0.635,0.468L89.022,40.521z M91.298,38.217l-0.533-0.295l-0.592,0.36
			L90.4,37.68l-0.495-0.366l0.667-0.087l0.307-0.602l0.204,0.57l0.646-0.006l-0.532,0.431L91.298,38.217z M93.488,41.473
			l-0.462-0.193l-0.56,0.322l0.226-0.516l-0.409-0.28l0.613-0.118l0.312-0.522l0.14,0.474l0.586-0.037l-0.511,0.393L93.488,41.473z
			 M93.833,38.954l0.091,0.625l-0.559-0.291l-0.673,0.42l0.264-0.657l-0.522-0.376l0.748-0.118l0.36-0.678l0.194,0.613l0.716-0.033
			L93.833,38.954z M93.984,36.895l0.088,0.574l-0.5-0.27l-0.587,0.371l0.223-0.604l-0.449-0.358l0.653-0.104l0.298-0.609
			l0.179,0.568l0.628-0.019L93.984,36.895z M96.228,37.24l-0.468-0.255l-0.55,0.371l0.217-0.591l-0.415-0.342l0.609-0.11
			l0.298-0.597l0.161,0.549l0.594-0.034l-0.516,0.443L96.228,37.24z M98.338,36.191l-0.502-0.299l-0.625,0.449l0.264-0.704
			l-0.462-0.396l0.698-0.142l0.33-0.706l0.167,0.649l0.638-0.038l-0.562,0.521L98.338,36.191z M99.526,34.35l-0.487-0.314
			l-0.609,0.449l0.245-0.716l-0.462-0.421l0.682-0.132l0.32-0.714l0.173,0.667l0.635-0.035l-0.559,0.534L99.526,34.35z
			 M101.712,31.975l-0.38-0.273l-0.478,0.381l0.195-0.623l-0.355-0.357l0.528-0.107l0.251-0.618l0.129,0.584l0.49-0.022
			l-0.421,0.438L101.712,31.975z"/>
	</g>
</g>
</svg>
