<?xml version="1.0" encoding="utf-8"?>
<!-- Generator: Adobe Illustrator 16.0.4, SVG Export Plug-In . SVG Version: 6.00 Build 0)  -->
<!DOCTYPE svg PUBLIC "-//W3C//DTD SVG 1.1//EN" "http://www.w3.org/Graphics/SVG/1.1/DTD/svg11.dtd">
<svg version="1.1" id="Layer_1" xmlns="http://www.w3.org/2000/svg" xmlns:xlink="http://www.w3.org/1999/xlink" x="0px" y="0px"
	 width="73.829px" height="89.512px" viewBox="0 0 73.829 89.512" enable-background="new 0 0 73.829 89.512" xml:space="preserve">
<g>
	<g enable-background="new    ">
		<g>
			<path fill="#FFFFFF" d="M27.305,85.363h2.627v3.752c-0.41,0.13-0.825,0.229-1.248,0.296s-0.912,0.101-1.469,0.101
				c-1.171,0-2.082-0.348-2.733-1.042c-0.652-0.695-0.978-1.669-0.978-2.921c0-0.803,0.16-1.506,0.482-2.108
				c0.323-0.604,0.787-1.064,1.395-1.383c0.605-0.318,1.315-0.478,2.129-0.478c0.825,0,1.594,0.151,2.305,0.453l-0.349,0.792
				c-0.698-0.296-1.368-0.443-2.014-0.443c-0.94,0-1.675,0.279-2.204,0.839c-0.528,0.561-0.793,1.335-0.793,2.328
				c0,1.041,0.254,1.831,0.764,2.368c0.51,0.538,1.258,0.809,2.244,0.809c0.535,0,1.059-0.062,1.569-0.186v-2.374h-1.728V85.363z"/>
		</g>
		<g>
			<path fill="#FFFFFF" d="M36.655,86.508c0,0.943-0.238,1.681-0.713,2.209c-0.477,0.529-1.133,0.795-1.973,0.795
				c-0.518,0-0.977-0.122-1.379-0.364c-0.402-0.243-0.711-0.592-0.93-1.045c-0.219-0.455-0.328-0.985-0.328-1.595
				c0-0.942,0.235-1.676,0.708-2.202s1.128-0.789,1.966-0.789c0.812,0,1.455,0.27,1.933,0.808S36.655,85.591,36.655,86.508z
				 M32.242,86.508c0,0.739,0.147,1.303,0.444,1.69c0.295,0.387,0.73,0.58,1.305,0.58s1.011-0.193,1.309-0.578
				c0.297-0.385,0.446-0.949,0.446-1.692c0-0.734-0.149-1.292-0.446-1.675c-0.298-0.382-0.737-0.572-1.318-0.572
				c-0.574,0-1.008,0.188-1.301,0.564C32.387,85.202,32.242,85.763,32.242,86.508z"/>
		</g>
		<g>
			<path fill="#FFFFFF" d="M38.12,82.055c0-0.2,0.049-0.347,0.148-0.44c0.098-0.094,0.222-0.141,0.369-0.141
				c0.142,0,0.264,0.048,0.365,0.144c0.102,0.095,0.153,0.241,0.153,0.438c0,0.197-0.052,0.345-0.153,0.44
				c-0.102,0.098-0.224,0.145-0.365,0.145c-0.147,0-0.271-0.047-0.369-0.145C38.168,82.399,38.12,82.252,38.12,82.055z
				 M39.071,89.406h-0.877v-5.784h0.877V89.406z"/>
		</g>
		<g>
			<path fill="#FFFFFF" d="M44.495,89.406l-0.174-0.824h-0.043c-0.289,0.363-0.577,0.608-0.865,0.736
				c-0.287,0.129-0.645,0.193-1.075,0.193c-0.575,0-1.024-0.148-1.351-0.444c-0.325-0.295-0.488-0.715-0.488-1.261
				c0-1.169,0.936-1.78,2.807-1.837l0.983-0.031V85.58c0-0.454-0.099-0.79-0.294-1.005c-0.195-0.217-0.508-0.325-0.938-0.325
				c-0.483,0-1.029,0.148-1.639,0.443l-0.27-0.671c0.285-0.154,0.598-0.275,0.938-0.363c0.341-0.088,0.682-0.132,1.023-0.132
				c0.69,0,1.202,0.153,1.535,0.459c0.332,0.306,0.5,0.797,0.5,1.472v3.948H44.495z M42.512,88.788c0.546,0,0.975-0.149,1.287-0.449
				c0.312-0.298,0.469-0.717,0.469-1.256v-0.521l-0.878,0.037c-0.698,0.023-1.201,0.133-1.51,0.324
				c-0.309,0.192-0.462,0.49-0.462,0.895c0,0.316,0.096,0.558,0.287,0.723C41.899,88.706,42.167,88.788,42.512,88.788z
				 M42.305,82.725c0.17-0.218,0.352-0.481,0.548-0.792c0.195-0.309,0.35-0.578,0.463-0.807h1.067v0.111
				c-0.155,0.229-0.385,0.51-0.691,0.844s-0.574,0.593-0.799,0.775h-0.588V82.725z"/>
		</g>
		<g>
			<path fill="#FFFFFF" d="M50.69,87.828c0,0.538-0.201,0.953-0.604,1.245c-0.401,0.293-0.965,0.438-1.691,0.438
				c-0.768,0-1.367-0.122-1.797-0.364v-0.813c0.278,0.142,0.576,0.251,0.896,0.333c0.319,0.08,0.627,0.121,0.923,0.121
				c0.458,0,0.811-0.072,1.057-0.219c0.247-0.146,0.371-0.369,0.371-0.668c0-0.225-0.098-0.418-0.294-0.577
				c-0.195-0.161-0.577-0.35-1.144-0.567c-0.54-0.201-0.924-0.375-1.15-0.525c-0.228-0.149-0.396-0.319-0.508-0.509
				c-0.111-0.19-0.166-0.417-0.166-0.681c0-0.472,0.191-0.844,0.576-1.116c0.384-0.272,0.91-0.409,1.58-0.409
				c0.624,0,1.233,0.127,1.829,0.38l-0.312,0.712c-0.582-0.238-1.109-0.358-1.58-0.358c-0.416,0-0.73,0.064-0.941,0.194
				c-0.211,0.131-0.317,0.311-0.317,0.539c0,0.154,0.039,0.287,0.118,0.396c0.08,0.108,0.207,0.212,0.385,0.312
				c0.176,0.099,0.514,0.241,1.014,0.427c0.688,0.25,1.152,0.501,1.394,0.755C50.569,87.126,50.69,87.445,50.69,87.828z"/>
		</g>
	</g>
	<g>
		<g>
			<path fill="#FFFFFF" d="M42.129,9.707c0,0.55-0.457,1.008-1.007,1.008h-8.243c-0.549,0-1.007-0.458-1.007-1.008V1.465
				c0-0.55,0.458-1.007,1.007-1.007h8.243c0.55,0,1.007,0.458,1.007,1.007V9.707z"/>
		</g>
		<g>
			<path fill="#FFFFFF" d="M54.402,9.707c0,0.55-0.458,1.008-1.008,1.008h-8.241c-0.551,0-1.008-0.458-1.008-1.008V1.465
				c0-0.55,0.457-1.007,1.008-1.007h8.241c0.55,0,1.008,0.458,1.008,1.007V9.707z"/>
		</g>
		<g>
			<path fill="#FFFFFF" d="M54.402,34.252c0,0.55-0.458,1.007-1.008,1.007h-8.241c-0.551,0-1.008-0.458-1.008-1.007v-8.243
				c0-0.549,0.457-1.007,1.008-1.007h8.241c0.55,0,1.008,0.458,1.008,1.007V34.252z"/>
		</g>
		<g>
			<path fill="#FFFFFF" d="M29.858,21.979c0,0.549-0.459,1.008-1.008,1.008h-8.243c-0.549,0-1.007-0.459-1.007-1.008v-8.242
				c0-0.55,0.458-1.008,1.007-1.008h8.243c0.549,0,1.008,0.458,1.008,1.008V21.979z"/>
		</g>
		<g>
			<path fill="#FFFFFF" d="M42.129,21.979c0,0.549-0.457,1.008-1.007,1.008h-8.243c-0.549,0-1.007-0.459-1.007-1.008v-8.242
				c0-0.55,0.458-1.008,1.007-1.008h8.243c0.55,0,1.007,0.458,1.007,1.008V21.979z"/>
		</g>
		<g>
			<path fill="#FFFFFF" d="M29.858,34.252c0,0.55-0.459,1.007-1.008,1.007h-8.243c-0.549,0-1.007-0.458-1.007-1.007v-8.243
				c0-0.549,0.458-1.007,1.007-1.007h8.243c0.549,0,1.008,0.458,1.008,1.007V34.252z"/>
		</g>
		<g>
			<path fill="#FFFFFF" d="M42.129,34.252c0,0.55-0.457,1.007-1.007,1.007h-8.243c-0.549,0-1.007-0.458-1.007-1.007v-8.243
				c0-0.549,0.458-1.007,1.007-1.007h8.243c0.55,0,1.007,0.458,1.007,1.007V34.252z"/>
		</g>
		<g>
			<path fill="#FFFFFF" d="M29.858,46.524c0,0.55-0.459,1.007-1.008,1.007h-8.243c-0.549,0-1.007-0.457-1.007-1.007v-8.243
				c0-0.549,0.458-1.007,1.007-1.007h8.243c0.549,0,1.008,0.458,1.008,1.007V46.524z"/>
		</g>
		<g>
			<path fill="#FFFFFF" d="M42.129,46.524c0,0.55-0.457,1.007-1.007,1.007h-8.243c-0.549,0-1.007-0.457-1.007-1.007v-8.243
				c0-0.549,0.458-1.007,1.007-1.007h8.243c0.55,0,1.007,0.458,1.007,1.007V46.524z"/>
		</g>
		<g>
			<path fill="#FFFFFF" d="M30.407,5.586c0,3.114-2.473,5.587-5.586,5.587c-3.114,0-5.587-2.473-5.587-5.587
				C19.233,2.473,21.707,0,24.821,0C27.842,0,30.407,2.473,30.407,5.586"/>
		</g>
	</g>
	<g>
		<g enable-background="new    ">
			<g>
				<path fill="#FFFFFF" d="M0,64.846V54.678h2.159v10.168H0z"/>
			</g>
		</g>
		<g enable-background="new    ">
			<g>
				<path fill="#FFFFFF" d="M13.806,64.846h-2.745l-4.43-7.692H6.568C6.656,58.513,6.7,59.481,6.7,60.062v4.784H4.771V54.678h2.723
					l4.424,7.614h0.048c-0.07-1.32-0.104-2.254-0.104-2.803v-4.812h1.943V64.846z"/>
			</g>
			<g>
				<path fill="#FFFFFF" d="M22.381,62.022c0,0.917-0.332,1.641-0.993,2.169c-0.662,0.528-1.583,0.792-2.762,0.792
					c-1.087,0-2.048-0.203-2.884-0.611V62.37c0.687,0.305,1.269,0.521,1.745,0.646c0.476,0.125,0.911,0.188,1.306,0.188
					c0.474,0,0.837-0.09,1.09-0.271c0.253-0.18,0.379-0.449,0.379-0.807c0-0.199-0.056-0.377-0.167-0.532
					c-0.112-0.155-0.275-0.305-0.491-0.448s-0.656-0.373-1.32-0.688c-0.623-0.293-1.089-0.573-1.401-0.841
					c-0.311-0.27-0.559-0.583-0.745-0.939c-0.186-0.357-0.278-0.774-0.278-1.252c0-0.898,0.305-1.606,0.916-2.121
					c0.611-0.515,1.455-0.771,2.532-0.771c0.529,0,1.035,0.062,1.515,0.187c0.48,0.126,0.984,0.303,1.509,0.529l-0.697,1.676
					c-0.543-0.223-0.993-0.378-1.348-0.466c-0.355-0.088-0.704-0.133-1.048-0.133c-0.409,0-0.723,0.096-0.94,0.286
					c-0.219,0.19-0.328,0.438-0.328,0.744c0,0.19,0.044,0.354,0.132,0.497c0.089,0.142,0.229,0.277,0.422,0.41
					c0.192,0.132,0.649,0.37,1.369,0.713c0.952,0.454,1.604,0.91,1.958,1.366C22.205,60.799,22.381,61.358,22.381,62.022z"/>
			</g>
		</g>
		<g enable-background="new    ">
			<g>
				<path fill="#FFFFFF" d="M28.149,64.846H25.99v-8.374h-2.766v-1.794h7.69v1.794h-2.766V64.846z"/>
			</g>
			<g>
				<path fill="#FFFFFF" d="M32.481,64.846V54.678h2.16v10.168H32.481z"/>
			</g>
			<g>
				<path fill="#FFFFFF" d="M41.133,64.846h-2.159v-8.374h-2.765v-1.794h7.689v1.794h-2.766V64.846z"/>
			</g>
		</g>
		<g enable-background="new    ">
			<g>
				<path fill="#FFFFFF" d="M53.792,54.678v6.579c0,0.751-0.168,1.41-0.505,1.976c-0.336,0.565-0.823,0.999-1.458,1.3
					c-0.637,0.302-1.39,0.451-2.258,0.451c-1.31,0-2.326-0.334-3.052-1.004c-0.724-0.67-1.087-1.586-1.087-2.75v-6.552h2.152v6.225
					c0,0.783,0.158,1.358,0.475,1.724c0.315,0.367,0.838,0.551,1.566,0.551c0.707,0,1.219-0.184,1.537-0.553
					s0.477-0.948,0.477-1.735v-6.211H53.792z"/>
			</g>
		</g>
		<g enable-background="new    ">
			<g>
				<path fill="#FFFFFF" d="M60.256,64.846h-2.159v-8.374h-2.765v-1.794h7.689v1.794h-2.766V64.846z"/>
			</g>
		</g>
		<g enable-background="new    ">
			<g>
				<path fill="#FFFFFF" d="M73.829,59.748c0,1.683-0.418,2.976-1.254,3.881c-0.836,0.903-2.034,1.354-3.595,1.354
					s-2.759-0.451-3.595-1.354c-0.836-0.905-1.254-2.204-1.254-3.895c0-1.692,0.42-2.985,1.258-3.878s2.04-1.338,3.605-1.338
					c1.564,0,2.762,0.449,3.591,1.349S73.829,58.06,73.829,59.748z M66.395,59.748c0,1.136,0.217,1.99,0.648,2.565
					s1.078,0.863,1.937,0.863c1.724,0,2.585-1.143,2.585-3.429c0-2.291-0.857-3.436-2.57-3.436c-0.859,0-1.508,0.288-1.943,0.865
					C66.614,57.755,66.395,58.611,66.395,59.748z"/>
			</g>
		</g>
		<g enable-background="new    ">
			<g>
				<path fill="#FFFFFF" d="M9.216,77.065H7.091V66.898h5.837v1.767H9.216v2.623h3.455v1.759H9.216V77.065z"/>
			</g>
		</g>
		<g enable-background="new    ">
			<g>
				<path fill="#FFFFFF" d="M20.847,77.065H14.98V66.898h5.866v1.767H17.14v2.232h3.449v1.767H17.14v2.622h3.707V77.065z"/>
			</g>
			<g>
				<path fill="#FFFFFF" d="M31.42,71.885c0,1.675-0.477,2.956-1.431,3.846c-0.954,0.891-2.333,1.335-4.134,1.335h-2.885V66.898
					h3.197c1.662,0,2.954,0.438,3.873,1.315C30.961,69.09,31.42,70.314,31.42,71.885z M29.178,71.94
					c0-2.184-0.967-3.275-2.898-3.275H25.13v6.621h0.927C28.137,75.286,29.178,74.171,29.178,71.94z"/>
			</g>
			<g>
				<path fill="#FFFFFF" d="M39.397,77.065h-5.865V66.898h5.865v1.767h-3.706v2.232h3.448v1.767h-3.448v2.622h3.706V77.065z"/>
			</g>
			<g>
				<path fill="#FFFFFF" d="M43.682,73.165v3.9h-2.16V66.898h2.967c1.385,0,2.408,0.252,3.072,0.755
					c0.665,0.503,0.996,1.268,0.996,2.292c0,0.599-0.164,1.13-0.494,1.596s-0.797,0.831-1.4,1.096
					c1.533,2.285,2.531,3.763,2.996,4.429h-2.396l-2.432-3.9H43.682z M43.682,71.413h0.696c0.683,0,1.187-0.113,1.512-0.341
					s0.487-0.585,0.487-1.072c0-0.481-0.166-0.824-0.498-1.028s-0.847-0.307-1.543-0.307h-0.654V71.413z"/>
			</g>
		</g>
		<g enable-background="new    ">
			<g>
				<path fill="#FFFFFF" d="M57.177,77.065l-0.739-2.419h-3.713l-0.738,2.419h-2.326l3.594-10.208h2.641l3.609,10.208H57.177z
					 M55.923,72.839c-0.683-2.193-1.067-3.434-1.153-3.722c-0.086-0.287-0.147-0.515-0.185-0.682
					c-0.153,0.595-0.593,2.062-1.316,4.403H55.923z"/>
			</g>
		</g>
		<g enable-background="new    ">
			<g>
				<path fill="#FFFFFF" d="M60.85,77.065V66.898h2.16v8.388h4.131v1.779H60.85z"/>
			</g>
		</g>
	</g>
</g>
</svg>
