<svg xmlns="http://www.w3.org/2000/svg" width="169.093" height="67.163"><path fill="#FFF" d="M1.369 67.163c-1.523 0-1.768-1.023-.772-2.368.957-1.292 2.763-2.381 4.17-2.381.813 0 1.155.223 1.356.623l-.954.61c-.151-.302-.371-.492-.968-.492-.866 0-2.062.734-2.715 1.627-.697.951-.549 1.646.439 1.646.456 0 .969-.138 1.414-.348l.608-.859H2.723l.504-.702h2.025l-1.351 1.929c-.748.388-1.67.715-2.532.715M13.79 67.163c-1.496 0-1.863-1.069-1.042-2.368s2.519-2.381 3.953-2.381c1.434 0 1.806 1.069 1.042 2.368s-2.458 2.381-3.953 2.381m2.446-4.008c-.933 0-2.04.729-2.601 1.627-.562.898-.34 1.64.621 1.64s2.065-.728 2.601-1.627c.535-.899.312-1.64-.621-1.64M29.785 62.492h.888a315.827 315.827 0 0 1-4.258 4.625h-.75c.128-1.85.209-2.775.403-4.625h.908c-.166 1.412-.24 2.118-.37 3.529a281.923 281.923 0 0 0 3.179-3.529M41.332 63.215h-2.66l-.487 1.193h2.383l-.279.722H37.89l-.503 1.233h2.771l-.277.721h-3.643c.763-1.836 1.145-2.754 1.907-4.592h3.464l-.277.723M50.966 67.084c-.294-.64-.438-.96-.719-1.6h-1.056l-.492 1.6h-.855l1.444-4.592h2.083c1.075 0 1.58.559 1.328 1.457-.213.761-.812 1.22-1.534 1.397.316.695.478 1.043.81 1.737h-1.009zm.12-3.856h-1.203l-.474 1.542h1.226c.6 0 1.068-.303 1.204-.775.146-.505-.142-.767-.753-.767M64.049 62.492h.808l-.796 4.592h-.716a94.798 94.798 0 0 1-2.021-3.266l-.663 3.266h-.841l.966-4.592h.761a92.853 92.853 0 0 0 1.929 3.176l.573-3.176M74.577 67.163c-1.496 0-2.428-1.069-2.293-2.368s1.261-2.381 2.695-2.381 2.371 1.069 2.293 2.368-1.199 2.381-2.695 2.381m.328-4.008c-.933 0-1.654.729-1.741 1.627-.087.898.526 1.64 1.487 1.64s1.681-.728 1.741-1.627c.061-.899-.554-1.64-1.487-1.64M97.315 63.228h-2.674l.12 1.253h2.398l.086.734h-2.414l.179 1.869h-.855l-.405-4.592h3.477l.088.736M108.422 63.215h-2.66l.234 1.193h2.383l.157.722h-2.398l.242 1.233h2.77l.159.721h-3.643c-.346-1.836-.52-2.754-.865-4.592h3.464l.157.723M119.087 67.084h-1.814l-1.329-4.592h1.742c1.469 0 2.808.991 3.233 2.29.425 1.299-.302 2.302-1.832 2.302m-1.177-3.856h-.927l.927 3.122h.954c1.015 0 1.471-.648 1.181-1.555a2.26 2.26 0 0 0-2.135-1.567M131.607 63.215h-2.66l.483 1.193h2.383l.307.722h-2.398l.499 1.233h2.77l.31.721h-3.643l-1.823-4.592h3.463l.309.723M144.386 67.084c-.814-.64-1.218-.96-2.02-1.6h-1.056l.809 1.6h-.855c-.915-1.836-1.373-2.754-2.287-4.592h2.083c1.074 0 2.032.559 2.51 1.457.405.761.18 1.22-.398 1.397.881.695 1.325 1.043 2.222 1.737h-1.008zm-3.013-3.856h-1.203l.78 1.542h1.226c.6 0 .823-.303.575-.775-.266-.505-.767-.767-1.378-.767M157.897 67.084h-.904a255.47 255.47 0 0 1-1.192-1.108h-2.279c.072.444.108.665.176 1.108h-.875a107.02 107.02 0 0 0-.714-4.624h.761a608.603 608.603 0 0 0 5.027 4.624m-4.823-3.66c.133.735.197 1.103.319 1.837h1.649a354.046 354.046 0 0 1-1.968-1.837M162.417 62.492h.821l2.769 3.857h2.542l.543.734h-3.413l-3.262-4.591M136.23 33.57l9.522 17.152h14.833l6.049 8.77H139.23L127.32 33.57zM125.723 33.57h-8.91l.8 2.308a25.064 25.064 0 0 0-5.865-2.024 28.629 28.629 0 0 0-3.235-.494 36.701 36.701 0 0 0-3.545-.164c-.638 0-1.244.024-1.822.068a23.724 23.724 0 0 1-8.224 9.171c.219.489.5.943.845 1.362.756.918 1.793 1.668 3.04 2.294 1.261.633 2.73 1.135 4.333 1.558 1.615.425 3.359.768 5.161 1.08.863.146 1.58.284 2.172.421.594.138 1.063.275 1.431.422.369.146.636.303.826.478.19.175.302.369.36.591a.785.785 0 0 1-.022.519c-.067.152-.196.281-.39.387-.194.106-.456.188-.788.243a7.567 7.567 0 0 1-1.214.083 22.125 22.125 0 0 1-5.828-.793 22.135 22.135 0 0 1-5.775-2.507l-2.939 3.603-4.476-7.962a23.5 23.5 0 0 1-9.149 2.028l.873 2.097H77.73l1.132-2.307a23.452 23.452 0 0 1-8.323-2.779l-7.074 11.148-2.863-5.201c1.03-.403 1.98-.878 2.833-1.421a11.789 11.789 0 0 0 2.231-1.814 9.218 9.218 0 0 0 1.552-2.177 8.503 8.503 0 0 0 .759-2.195 23.72 23.72 0 0 1-6.712-7.751c-.262-.04-.531-.077-.812-.109a28.776 28.776 0 0 0-3.186-.162H44.246l-1.654 3.82a3.052 3.052 0 0 0-.005-.583 2.652 2.652 0 0 0-.109-.519 2.482 2.482 0 0 0-.474-.857 3.727 3.727 0 0 0-.975-.811 5.94 5.94 0 0 0-1.405-.581 11.597 11.597 0 0 0-1.899-.352 22.842 22.842 0 0 0-2.463-.118H20.336L2.458 59.492h18.887c1.453 0 2.845-.11 4.163-.318a22.7 22.7 0 0 0 3.702-.901 18.84 18.84 0 0 0 3.158-1.387 15.32 15.32 0 0 0 2.555-1.775l-1.897 4.382h11.391l2.957-8.771h2.254l3.646 8.771H72.404l2.125-4.289h11.496l1.856 4.289h12.362l-1.026-1.827c.945.397 1.931.749 2.949 1.053 1.024.306 2.08.562 3.161.769a35.13 35.13 0 0 0 3.32.468c1.127.104 2.27.157 3.421.157 1.697 0 3.245-.146 4.624-.428 1.372-.281 2.572-.695 3.583-1.23 1.002-.529 1.815-1.175 2.426-1.924a5.84 5.84 0 0 0 1.204-2.496l1.893 5.459h11.391L125.723 33.57zM28.157 49.516l-.042.08a2.983 2.983 0 0 1-.646.827c-.275.25-.609.472-.997.655-.388.185-.83.33-1.319.431a7.978 7.978 0 0 1-1.608.155h-5.32l2.467-4.137h5.166c.558 0 1.018.051 1.385.144.368.094.642.23.828.404a.9.9 0 0 1 .298.627c.014.243-.058.517-.212.814m3.885-8.938l-.036.068c-.137.26-.32.492-.551.694a3.122 3.122 0 0 1-.839.514c-.329.14-.705.247-1.129.318s-.897.108-1.418.108h-4.247l1.959-3.285h4.07c.503 0 .925.034 1.267.102.342.068.603.169.785.302s.285.298.308.495c.023.197-.033.425-.169.684m6.371 6.469a3.174 3.174 0 0 0-.564-.899 4.242 4.242 0 0 0-.856-.731 6.842 6.842 0 0 0-1.12-.586 11.37 11.37 0 0 0-1.356-.463 18.498 18.498 0 0 0 2.082-.667c.657-.258 1.277-.55 1.853-.88.572-.328 1.1-.692 1.576-1.094a8.274 8.274 0 0 0 1.252-1.304l-2.867 6.624zm19.864-5.18l-.018.069a2.526 2.526 0 0 1-.518 1 3.244 3.244 0 0 1-.949.755c-.384.207-.83.367-1.328.476-.5.108-1.052.165-1.647.165h-4.29l1.589-4.715h4.136c.547 0 1.034.045 1.449.137.417.091.763.229 1.028.412.267.186.453.418.548.699.097.283.1.617 0 1.002m60.435 2.424c-.904-.498-1.91-.921-3.006-1.288a32.864 32.864 0 0 0-3.534-.943 62.946 62.946 0 0 0-4.006-.705 31.093 31.093 0 0 1-1.962-.348 8.66 8.66 0 0 1-1.243-.349c-.311-.119-.528-.243-.674-.377s-.223-.277-.253-.434l-.013-.066a.573.573 0 0 1 .048-.384.755.755 0 0 1 .318-.3 2.03 2.03 0 0 1 .601-.193 5.12 5.12 0 0 1 .899-.069c.654 0 1.353.042 2.082.13.729.088 1.49.223 2.267.406a21.605 21.605 0 0 1 4.79 1.746l2.747-4.781 3.365 9.709a11.379 11.379 0 0 0-2.426-1.754"/><path fill="#FFF" d="M84.259 16.229c-12.276-4.227-23.525-3.885-25.126.763-.358 1.042-.202 2.213.396 3.448.023-.24.05-.479.081-.718-.266-.85-.287-1.657-.033-2.394 1.533-4.454 12.504-4.713 24.504-.582s20.484 11.091 18.951 15.544c-.253.736-.766 1.357-1.498 1.863-.123.208-.25.414-.379.617 1.23-.606 2.075-1.431 2.433-2.473 1.601-4.647-7.053-11.841-19.329-16.068M62.653 11.369c.13-.207.282-.399.454-.577.172-.177.361-.332.569-.467.208-.134.425-.236.651-.306.229-.07.419-.093.571-.069a.506.506 0 0 1 .342.188.65.65 0 0 1 .117.401c.002.167-.035.359-.11.577-.073.213-.175.422-.304.626s-.28.394-.451.568-.359.328-.566.46a2.633 2.633 0 0 1-.652.305c-.227.069-.416.093-.57.07a.513.513 0 0 1-.347-.181.642.642 0 0 1-.12-.394 1.695 1.695 0 0 1 .106-.564c.077-.218.18-.43.31-.637m.262.783a.55.55 0 0 0 .031.271.255.255 0 0 0 .171.146c.083.024.197.015.344-.03.146-.045.28-.111.401-.199.121-.087.229-.187.325-.299a2.33 2.33 0 0 0 .413-.727c.044-.128.073-.248.085-.358a.57.57 0 0 0-.028-.279c-.031-.074-.088-.124-.171-.148s-.197-.015-.343.03a1.4 1.4 0 0 0-.401.197c-.121.087-.23.188-.326.302-.096.113-.179.234-.249.363s-.127.258-.172.386a1.53 1.53 0 0 0-.08.345"/><path fill="#FFF" d="M67.689 9.472a.862.862 0 0 1 .35.024.467.467 0 0 1 .225.145c.053.065.084.145.092.237s-.007.195-.045.306c-.06.172-.148.325-.268.458-.12.134-.276.242-.471.325l-.002.008c.076.014.133.04.172.079s.065.088.079.146a.546.546 0 0 1 .005.195 1.67 1.67 0 0 1-.044.217 6.307 6.307 0 0 1-.048.163 2.945 2.945 0 0 0-.051.19 1.18 1.18 0 0 0-.03.183.281.281 0 0 0 .02.142l-.675.07a.981.981 0 0 1 .045-.324 4.76 4.76 0 0 0 .088-.364c.03-.15.02-.257-.03-.32s-.16-.086-.33-.068l-.675.07-.393 1.142-.675.07 1.005-2.92 1.656-.174zm-.696 1.346a.77.77 0 0 0 .382-.134.67.67 0 0 0 .227-.331c.048-.142.045-.241-.01-.297-.056-.056-.161-.076-.316-.06l-.74.077-.283.822.74-.077zM70.287 9.389c.199.002.375.035.525.097a.777.777 0 0 1 .353.275c.084.122.13.272.139.454.009.181-.029.392-.112.635-.073.213-.17.409-.29.588s-.26.334-.422.463a1.827 1.827 0 0 1-1.198.409l-1.333-.016 1.006-2.92 1.332.015zm-.867 2.38a1.031 1.031 0 0 0 .599-.188c.096-.069.185-.159.267-.27.082-.112.15-.248.206-.409.05-.146.082-.28.092-.399a.584.584 0 0 0-.044-.306.411.411 0 0 0-.208-.198.98.98 0 0 0-.398-.072l-.484-.006-.634 1.841.604.007zM74.304 9.652l-.186.54-1.624-.15-.216.626 1.491.138-.172.499-1.491-.138-.246.716 1.659.153-.186.54-2.335-.215 1.006-2.921zM75.583 9.839l.021 2.126.008.001 1.367-1.897.943.156-1.006 2.921-.627-.104.712-2.069-.008-.002-1.46 1.946-.516-.085-.041-2.173-.009-.002-.706 2.05-.627-.104 1.006-2.92zM81.639 11.116l-.186.539-1.583-.393-.215.626 1.452.361-.171.499-1.453-.361-.247.716 1.617.402-.186.539-2.276-.565 1.006-2.921zM84.327 11.923c.184.059.332.135.443.229.111.094.191.197.243.311s.076.231.075.354a1.192 1.192 0 0 1-.239.693.882.882 0 0 1-.669.355 1.317 1.317 0 0 1-.498-.069l-.681-.215-.361 1.047-.647-.205 1.006-2.92 1.328.42zm-.651 1.318c.074.023.147.041.22.052s.14.009.204-.006c.063-.015.12-.045.171-.093s.093-.118.125-.21a.485.485 0 0 0 .03-.24.352.352 0 0 0-.08-.172c-.041-.048-.095-.088-.16-.121s-.134-.061-.208-.084l-.503-.159-.301.875.502.158zM87.105 12.886a.99.99 0 0 1 .33.192.898.898 0 0 1 .208.272.823.823 0 0 1 .082.317.885.885 0 0 1-.048.335.899.899 0 0 1-.262.406.697.697 0 0 1-.45.158l-.003.008a.532.532 0 0 1 .232.377.797.797 0 0 1 .001.229c-.01.079-.025.157-.045.232l-.048.167a3.529 3.529 0 0 0-.052.197 1.442 1.442 0 0 0-.032.199.462.462 0 0 0 .016.173l-.638-.233a1.217 1.217 0 0 1 .049-.355c.036-.131.066-.258.09-.382.031-.16.023-.289-.022-.386-.046-.097-.149-.174-.309-.232l-.638-.233-.393 1.141-.638-.233 1.005-2.92 1.565.571zm-.682 1.238c.146.054.267.061.363.022.096-.039.169-.132.22-.278.049-.142.047-.259-.003-.35-.051-.09-.15-.163-.296-.216l-.699-.255-.283.822.698.255zM87.927 14.164a1.41 1.41 0 0 1 .443-.373c.167-.089.352-.135.553-.141s.411.038.628.13c.22.093.403.216.549.368s.254.323.326.513c.072.19.107.391.107.605s-.039.43-.114.647a1.823 1.823 0 0 1-.3.555 1.368 1.368 0 0 1-.44.364c-.167.086-.35.132-.549.137-.2.004-.41-.04-.63-.133-.218-.092-.401-.213-.548-.365s-.257-.32-.33-.507c-.073-.187-.109-.385-.11-.597s.036-.423.109-.636c.076-.218.177-.408.306-.567m.239 1.207c-.012.128-.003.251.026.369a.812.812 0 0 0 .162.324c.079.097.189.176.33.235s.27.082.388.067a.667.667 0 0 0 .315-.121c.094-.067.174-.153.242-.257s.123-.217.165-.34c.044-.128.073-.258.086-.39a1.124 1.124 0 0 0-.023-.377c-.028-.12-.082-.229-.161-.326s-.189-.176-.33-.236a.757.757 0 0 0-.387-.067.648.648 0 0 0-.316.124.977.977 0 0 0-.245.265 1.727 1.727 0 0 0-.17.354 1.58 1.58 0 0 0-.082.376M91.854 18.277a1.059 1.059 0 0 1-.43-.108 1.709 1.709 0 0 1-.533-.397 1.61 1.61 0 0 1-.319-.532 1.756 1.756 0 0 1-.103-.612c.001-.215.039-.428.112-.641.075-.218.176-.405.302-.562s.272-.275.436-.357c.165-.082.345-.121.542-.117.197.004.402.059.614.162a1.596 1.596 0 0 1 .683.647c.077.14.129.291.155.453.026.163.018.331-.024.505l-.583-.286a.766.766 0 0 0-.083-.471.76.76 0 0 0-.334-.307.74.74 0 0 0-.378-.088.612.612 0 0 0-.311.111.921.921 0 0 0-.241.258 1.636 1.636 0 0 0-.251.73c-.013.129-.005.255.022.377a.862.862 0 0 0 .477.592c.202.099.377.122.524.068s.265-.178.354-.374l-.614-.301.165-.479 1.165.571-.543 1.579-.389-.19.052-.362a.85.85 0 0 1-.467.131M95.39 16.744a1.094 1.094 0 0 1 .493.561 1.01 1.01 0 0 1 .017.689c-.059.172-.144.302-.253.39s-.251.122-.424.102l-.003.008c.065.063.114.131.146.203s.053.147.062.226a.921.921 0 0 1-.004.24 1.97 1.97 0 0 1-.047.236l-.049.168a3.413 3.413 0 0 0-.053.2 1.654 1.654 0 0 0-.034.203.534.534 0 0 0 .011.185l-.591-.334a1.33 1.33 0 0 1 .054-.366c.037-.132.067-.261.093-.387a.75.75 0 0 0-.013-.408c-.041-.107-.136-.204-.284-.287l-.591-.334-.393 1.141-.591-.334 1.005-2.92 1.449.818zm-.666 1.202c.136.077.249.101.339.074.09-.027.161-.114.211-.262.049-.142.051-.264.005-.367a.606.606 0 0 0-.272-.268l-.648-.366-.283.822.648.367zM98.38 18.616l-.186.54-1.367-.89-.215.626 1.254.817-.172.499-1.254-.817-.246.715 1.395.91-.186.54-1.965-1.28 1.006-2.921zM98.312 21.328c.006.091.027.176.062.256s.082.155.141.227a1.199 1.199 0 0 0 .356.292.512.512 0 0 0 .173.063c.058.01.11.003.159-.021s.085-.071.111-.146a.372.372 0 0 0 .002-.24.928.928 0 0 0-.125-.25 2.83 2.83 0 0 0-.204-.265 10.159 10.159 0 0 1-.469-.59c-.074-.105-.134-.217-.181-.332s-.076-.235-.085-.362a.96.96 0 0 1 .054-.39.678.678 0 0 1 .215-.329.56.56 0 0 1 .307-.115.823.823 0 0 1 .352.062c.123.049.238.115.349.199.128.098.246.209.352.334.106.124.192.259.257.406.065.146.104.299.117.459.013.159-.009.324-.068.493l-.522-.399a.715.715 0 0 0 .028-.253.602.602 0 0 0-.058-.215.82.82 0 0 0-.125-.184 1.315 1.315 0 0 0-.177-.161.747.747 0 0 0-.137-.083.31.31 0 0 0-.138-.033.229.229 0 0 0-.123.035c-.037.023-.066.066-.088.129a.356.356 0 0 0-.021.16c.006.049.031.11.074.181.044.071.108.158.192.261.085.103.196.236.334.399.042.046.099.115.17.206.072.091.137.198.195.322.059.125.099.261.122.411a.992.992 0 0 1-.051.47.824.824 0 0 1-.193.322.527.527 0 0 1-.296.148.803.803 0 0 1-.387-.05 1.807 1.807 0 0 1-.466-.269 2.389 2.389 0 0 1-.373-.36 1.808 1.808 0 0 1-.273-.443 1.559 1.559 0 0 1-.121-.5 1.279 1.279 0 0 1 .078-.53l.522.399a.754.754 0 0 0-.041.286M100.475 23.078a.916.916 0 0 0 .051.268c.03.085.072.167.126.245a1.298 1.298 0 0 0 .324.329.529.529 0 0 0 .16.079.216.216 0 0 0 .149-.008c.045-.02.081-.067.106-.141a.423.423 0 0 0 .008-.247 1.16 1.16 0 0 0-.11-.268 2.906 2.906 0 0 0-.184-.288 11.973 11.973 0 0 1-.423-.644 1.988 1.988 0 0 1-.161-.356c-.042-.122-.065-.249-.071-.379s.014-.263.06-.397c.052-.149.121-.257.208-.32a.461.461 0 0 1 .288-.093.718.718 0 0 1 .326.092c.113.061.219.138.32.233.117.111.224.235.319.371.096.137.172.283.23.438s.09.316.099.481c.008.166-.017.333-.075.502l-.477-.453a.765.765 0 0 0 .032-.257.708.708 0 0 0-.049-.226.9.9 0 0 0-.113-.2 1.406 1.406 0 0 0-.161-.18c-.04-.038-.082-.07-.125-.097s-.086-.042-.128-.045-.08.005-.115.026c-.035.021-.063.063-.085.125a.38.38 0 0 0-.022.163.54.54 0 0 0 .065.192c.039.077.096.171.173.283l.301.438c.038.05.089.125.154.224a1.84 1.84 0 0 1 .278.779c.017.156-.002.315-.059.479-.046.134-.108.239-.188.316s-.172.12-.28.128a.697.697 0 0 1-.358-.083 1.735 1.735 0 0 1-.427-.313 2.418 2.418 0 0 1-.339-.401 2.035 2.035 0 0 1-.244-.478 1.796 1.796 0 0 1-.101-.524 1.42 1.42 0 0 1 .085-.538l.477.453a.82.82 0 0 0-.044.292M102.562 23.278a.672.672 0 0 1 .342-.246.512.512 0 0 1 .391.061c.138.074.275.208.413.4.139.195.25.407.332.639s.137.47.165.715c.028.244.029.488.005.731a3.04 3.04 0 0 1-.148.692 1.681 1.681 0 0 1-.265.511.65.65 0 0 1-.339.238.527.527 0 0 1-.388-.066c-.136-.074-.274-.209-.413-.403a2.574 2.574 0 0 1-.332-.635 3.308 3.308 0 0 1-.176-1.434c.022-.24.071-.467.144-.679.074-.219.164-.393.269-.524m.029 1.47c-.022.141-.03.284-.023.431.007.146.032.291.075.434.043.142.109.276.198.401.089.123.174.201.256.232.081.03.157.026.228-.013a.54.54 0 0 0 .192-.194c.057-.092.107-.199.15-.322.044-.128.078-.264.102-.408.023-.145.032-.291.026-.439-.007-.148-.031-.293-.074-.436s-.109-.276-.198-.4c-.089-.124-.174-.202-.256-.232s-.158-.026-.229.014a.57.57 0 0 0-.195.203c-.059.096-.11.208-.155.335a2.293 2.293 0 0 0-.097.394"/><path fill="#FFF" d="M82.055 0c-7.599 0-14.319 3.747-18.424 9.492 4.401-1.882 13.057-1.29 22.296 1.892s16.426 8.044 18.734 12.236c.015-.328.024-.658.024-.989C104.686 10.132 94.553 0 82.055 0zm8.673 12.309l-1.024-.669-1.021.583.258-1.119-.919-.774 1.167-.033.424-1.005.48 1.069 1.174.15-.873.679.334 1.119zM83.938 17.162c-5.454-1.878-10.913-2.912-15.372-2.912-4.614 0-7.696 1.111-8.51 3.057a22.67 22.67 0 0 0-.631 5.324c0 12.499 10.132 22.63 22.631 22.63 9.161 0 17.05-5.443 20.61-13.271 1.159-4.162-7.322-10.9-18.728-14.828zm-22.317.86l.319-.868.214.84.755.02-.625.638.133.888-.585-.468-.626.512.214-.904-.488-.545.689-.113zm.613 13.279l-.543-.464-.438.315.062-.688-.473-.535.556.031.158-.676.28.736.6.123-.42.43.218.728zm1.958-1.576l-.692-.549-.613.412.119-.876-.587-.626.736-.005s.223-.833.241-.851l.337.898.797.123-.587.556.249.918zm1.496-1.989l-.392-.291-.367.246.085-.492-.339-.359.432-.004.157-.484.182.496.473.057-.363.33.132.501zm32.582 3.211l.371-.895.229.848.801-.01-.676.647.107.851-.625-.41-.75.546.289-.907-.59-.541.844-.129zm-11.14-9.548l.288-.711.276.723.736.056-.576.476.176.736-.624-.412-.644.396.192-.724-.56-.487.736-.053zm-19.259 13.04l-.554-.392-.484.279.091-.613-.489-.463.592.021.177-.581.28.635.624.113-.436.371.199.63zm.736-2.253l-.667-.457-.597.344.134-.731-.586-.554h.716l.242-.716.328.769.748.108-.554.474.236.763zm3.03 5.2l-.802-.523-.719.37.142-.803-.731-.632.885.033.278-.798.403.865.927.141-.669.499.286.848zm-.086-13.618l.198.825-.691-.471-.685.444.182-.835-.61-.546.809-.059.311-.819.294.829.819.075-.627.557zm6.866 6.906l-.618-.396-.633.376.177-.702-.557-.477.723-.036.282-.674.279.69.738.057-.569.472.178.69zm.839 1.17l.137-.524-.416-.343.549-.033.202-.504.214.517.561.045-.436.338.137.529-.472-.299-.476.274zm2.437 10.505l-.341-.175-.361.175.114-.303-.312-.218.405-.023.154-.314.149.32.41.023-.32.221.102.294zm.464-6.453l-.863-.503-.857.484.249-.9-.783-.615 1.012-.056.392-.895.379.913 1.006.069-.776.596.241.907zm-.112-8.394l.209.852-.75-.477-.754.456.214-.855-.666-.565.888-.053.334-.839.331.855.884.052-.69.574zm2.627 3.091l-.734-.46-.755.448.226-.819-.658-.557.868-.053.347-.819.314.827.88.045-.69.557.202.831zm1.875 6.984l-.625.345.199-.619-.521-.404.71-.06.291-.629.242.613.699.021-.56.441.14.592-.575-.3zm2.475 2.944l-.635-.312-.705.372.237-.646-.586-.414.812-.086.355-.657.237.641.78-.005-.635.468.14.639zm2.276-2.304l-.533-.295-.592.36.227-.602-.495-.366.667-.087.307-.602.204.57.646-.006-.532.431.101.597zm2.19 3.256l-.462-.193-.56.322.226-.516-.409-.28.613-.118.312-.522.14.474.586-.037-.511.393.065.477zm.345-2.519l.091.625-.559-.291-.673.42.264-.657-.522-.376.748-.118.36-.678.194.613.716-.033-.619.495zm.151-2.059l.088.574-.5-.27-.587.371.223-.604-.449-.358.653-.104.298-.609.179.568.628-.019-.533.451zm2.244.345l-.468-.255-.55.371.217-.591-.415-.342.609-.11.298-.597.161.549.594-.034-.516.443.07.566zm2.11-1.049l-.502-.299-.625.449.264-.704-.462-.396.698-.142.33-.706.167.649.638-.038-.562.521.054.666zm1.188-1.841l-.487-.314-.609.449.245-.716-.462-.421.682-.132.32-.714.173.667.635-.035-.559.534.062.682zm2.186-2.375l-.38-.273-.478.381.195-.623-.355-.357.528-.107.251-.618.129.584.49-.022-.421.438.041.597z"/></svg>