<?xml version="1.0" encoding="utf-8"?>
<!-- Generator: Adobe Illustrator 16.0.4, SVG Export Plug-In . SVG Version: 6.00 Build 0)  -->
<!DOCTYPE svg PUBLIC "-//W3C//DTD SVG 1.1//EN" "http://www.w3.org/Graphics/SVG/1.1/DTD/svg11.dtd">
<svg version="1.1" id="Layer_1" xmlns="http://www.w3.org/2000/svg" xmlns:xlink="http://www.w3.org/1999/xlink" x="0px" y="0px"
	 width="110.969px" height="62.124px" viewBox="0 0 110.969 62.124" enable-background="new 0 0 110.969 62.124"
	 xml:space="preserve">
<g>
	<g>
		<path fill="#FFFFFF" d="M16.254,37.446c0,1.476-0.856,2.61-2.57,3.408c-1.352,0.653-2.859,0.979-4.524,0.979
			c-1.521,0-3.307-0.339-5.358-1.014C1.268,39.951,0,38.938,0,37.779c0-0.435,0.156-0.809,0.471-1.122
			c0.312-0.313,0.688-0.471,1.121-0.471c0.652,0,1.256,0.266,1.811,0.796c0.941,0.796,1.448,1.23,1.521,1.303
			c0.844,0.482,2.365,0.724,4.561,0.724c1.955,0,2.933-0.446,2.933-1.34c0-0.747-0.917-1.785-2.751-3.113
			c-1.279-0.82-2.559-1.641-3.838-2.461c-1.642-1.109-2.836-2.16-3.584-3.15c-0.99-1.303-1.484-2.799-1.484-4.488
			c0-2.124,0.652-4.018,1.955-5.684c1.4-1.833,3.138-2.75,5.213-2.75c1.785,0,3.294,0.488,4.525,1.465
			c1.23,0.979,2.015,2.348,2.354,4.108c0.071,0.677,0.217,1.679,0.434,3.006c0.096,0.386,0.145,0.676,0.145,0.869
			c0,0.869-0.145,1.605-0.434,2.208c-0.363,0.82-0.93,1.23-1.702,1.23c-0.435,0-0.851-0.2-1.249-0.6
			c-0.397-0.4-0.597-0.817-0.597-1.254c0-0.314,0.071-0.781,0.217-1.399s0.218-1.084,0.218-1.399c0-3.271-1.086-4.906-3.258-4.906
			c-1.207,0-2.221,0.514-3.041,1.542c-0.821,1.026-1.23,2.157-1.23,3.39c0,1.741,1.037,3.432,3.113,5.076
			c1.905,1.282,3.824,2.563,5.756,3.844C15.229,34.679,16.254,36.094,16.254,37.446z"/>
	</g>
	<g>
		<path fill="#FFFFFF" d="M48.812,17.255c0,0.266-0.107,0.604-0.326,1.015c-0.266,0.532-0.422,0.858-0.47,0.979
			c-0.7,2.199-1.05,4-1.05,5.402l-0.109,10.405c-0.023,1.064-0.266,2.151-0.724,3.263c-0.603,1.401-1.351,2.103-2.244,2.103
			c-1.327,0-2.643-1.11-3.946-3.331c-0.941-1.64-1.895-3.909-2.859-6.806c-0.555-1.882-1.123-3.764-1.701-5.647
			c-0.508,4.103-0.761,6.854-0.761,8.254c0,3.089,0.187,4.862,0.562,5.321c0.374,0.458,0.561,0.796,0.561,1.014
			c0,0.458-0.241,0.863-0.724,1.213c-0.483,0.35-0.966,0.524-1.448,0.524c-0.676,0-1.23-0.712-1.665-2.136
			c-0.339-1.11-0.507-2.124-0.507-3.041c0-0.41,0.012-1.019,0.037-1.828c0.022-0.809,0.035-1.417,0.035-1.828
			c0-0.989,0.12-2.462,0.361-4.417s0.363-3.427,0.363-4.417v-4.417c0-0.048-0.019-0.121-0.055-0.217
			c-0.036-0.097-0.055-0.168-0.055-0.218c0-0.482,0.326-0.881,0.979-1.194c0.529-0.266,1.061-0.398,1.592-0.398
			c1.231,0,2.112,0.398,2.643,1.195c0.145,0.266,0.277,0.82,0.398,1.666c0.072,0.58,0.145,1.17,0.218,1.774
			c0.29,1.714,1.05,4.464,2.28,8.254c1.473,4.464,2.57,6.697,3.294,6.697c0.266,0,0.398-0.338,0.398-1.016
			c0-0.193-0.03-0.507-0.091-0.942s-0.09-0.774-0.09-1.015l0.361-9.829c0.072-1.475,0.326-2.925,0.76-4.352
			c0.628-2.007,1.473-3.01,2.535-3.01c0.338,0,0.809,0.217,1.412,0.653C48.801,17.05,48.812,17.158,48.812,17.255z"/>
	</g>
	<g>
		<path fill="#FFFFFF" d="M70.605,34.594c0,1.158-0.52,1.75-1.557,1.774c0.121,0.555,0.387,1.302,0.797,2.244
			c-0.025,0.532-0.242,0.966-0.652,1.304c-0.41,0.337-0.893,0.506-1.447,0.506c-0.435,0-0.941-0.132-1.521-0.398
			c-0.312-0.627-0.471-1.375-0.471-2.244c0-0.217,0.013-0.531,0.037-0.941c0.023-0.41,0.037-0.712,0.037-0.904
			c0,0.169-0.398,0.253-1.195,0.253c-1.352,0-2.957,0.061-4.814,0.182c-2.656,0.145-4.098,0.35-4.326,0.615
			c-0.23,0.266-0.381,1.556-0.453,3.874c-0.314,0.458-0.712,0.688-1.195,0.688c-0.506,0-1.025-0.212-1.556-0.634
			c-0.531-0.422-0.797-0.874-0.797-1.357c0-0.168,0.218-0.844,0.652-2.027c0.482-1.713,1.267-4.283,2.353-7.71
			c3.233-8.856,5.924-13.286,8.073-13.286c2.1,0,3.716,2.341,4.851,7.023c0.507,2.099,0.978,5.321,1.412,9.665
			c0.627,0.145,1.025,0.266,1.194,0.362C70.412,33.797,70.605,34.136,70.605,34.594z M65.537,33.218
			c-1.062-8.422-2.015-12.634-2.859-12.634c-0.676,0-1.859,1.979-3.548,5.937c-1.206,2.848-2.16,5.321-2.859,7.421
			c0.772-0.169,1.919-0.374,3.438-0.615C61.084,33.158,63.027,33.122,65.537,33.218z"/>
	</g>
	<g>
		<path fill="#FFFFFF" d="M91.492,35.058c0,0.456-0.12,1.01-0.361,1.657c-0.604,1.587-1.737,2.836-3.402,3.748
			c-1.521,0.817-3.186,1.227-4.996,1.227c-2.969,0-5.249-1.121-6.842-3.363c-1.375-1.951-2.064-4.47-2.064-7.555
			c0-2.555,0.398-4.952,1.195-7.194c0.893-2.554,2.208-4.555,3.945-6c1.377-1.132,2.775-1.699,4.2-1.699
			c2.051,0,3.608,0.893,4.669,2.679c0.869,1.448,1.304,3.271,1.304,5.466c0,0.99-0.253,2.232-0.76,3.729
			c-0.604,1.834-1.279,2.751-2.027,2.751c-0.845,0-1.484-0.53-1.919-1.593c0.24-0.169,0.579-0.447,1.014-0.833
			c0.482-0.53,0.725-1.568,0.725-3.113c0-1.496-0.157-2.763-0.471-3.801c-0.483-1.568-1.279-2.353-2.389-2.353
			c-0.773,0-1.617,0.495-2.535,1.482c-0.7,0.747-1.291,1.578-1.773,2.493c-1.184,2.313-1.774,5.192-1.774,8.637
			c0,5.011,1.883,7.516,5.647,7.516c1.617,0,2.896-0.455,3.838-1.366c0.386-0.407,0.953-1.258,1.701-2.554
			c0.507-0.934,1.049-1.401,1.629-1.401c0.387,0,0.725,0.15,1.014,0.45C91.348,34.367,91.492,34.698,91.492,35.058z"/>
	</g>
	<g>
		<path fill="#FFFFFF" d="M110.969,38.307c0,0.405-0.085,0.762-0.253,1.072c-0.218,0.406-0.507,0.608-0.868,0.608
			c-0.098,0-0.236-0.018-0.418-0.054c-0.18-0.037-0.319-0.055-0.416-0.055c-1.037,0-2.539,0.314-4.506,0.941
			c-1.968,0.627-3.471,0.94-4.508,0.94c-3.886,0-5.828-2.944-5.828-8.833c0-4.633,0.121-8.302,0.362-11.004
			c0.024-0.363,0.036-0.556,0.036-0.58c0-0.168-0.024-0.417-0.072-0.743c-0.049-0.325-0.072-0.561-0.072-0.705
			c0-1.11,0.603-1.762,1.809-1.955c1.859-0.338,3.717-0.688,5.576-1.05c2.437-0.458,4.26-0.687,5.466-0.687
			c0.7,0,1.315,0.121,1.847,0.361c0.725,0.338,1.086,0.809,1.086,1.412c0,0.893-0.592,1.34-1.773,1.34
			c-0.146,0-0.369-0.019-0.67-0.055c-0.303-0.036-0.525-0.055-0.67-0.055c-1.955,0-4.622,0.435-8,1.304
			c-0.193,0.023-0.375,0.061-0.543,0.108c-0.17,0.049-0.29,0.229-0.362,0.542c-0.267,1.159-0.398,3.428-0.398,6.806
			c0,0.507,0.229,0.761,0.688,0.761c0.627,0,1.531-0.157,2.715-0.471c1.182-0.313,2.087-0.472,2.715-0.472
			c0.699,0,1.508,0.218,2.426,0.652c0.24,0.773,0.361,1.244,0.361,1.412c0,0.604-0.182,0.929-0.543,0.978
			c-0.362,0.049-0.748,0.097-1.158,0.145c-0.193-0.121-0.459-0.181-0.797-0.181c-0.845,0-1.858,0.107-3.041,0.325
			c-0.989,0.217-1.99,0.422-3.004,0.615c-0.146,0.025-0.271,0.049-0.381,0.073c-0.107,0.024-0.188,0.169-0.234,0.435
			c-0.049,0.435-0.072,0.785-0.072,1.05c0,1.858,0.035,2.968,0.107,3.33c0.242,1.4,0.906,2.1,1.992,2.1
			c0.916,0,2.256-0.277,4.018-0.833c1.762-0.555,3.161-0.833,4.199-0.833C109.425,37.055,110.486,37.473,110.969,38.307z"/>
	</g>
	<g>
		<g>
			<path fill="#FFFFFF" d="M24.562,10.11c-5.1,12.79-3.898,26.01-1.498,39.117c0.371,2.024,3.45,1.164,3.082-0.85
				c-2.304-12.572-3.401-25.133,1.498-37.417C28.408,9.043,25.316,8.22,24.562,10.11L24.562,10.11z"/>
		</g>
	</g>
	<g>
		<circle fill="#FFFFFF" cx="28.917" cy="2.458" r="2.458"/>
	</g>
	<g>
		<path fill="#FFFFFF" d="M36.01,50.633c0-0.194-0.068-0.357-0.205-0.488s-0.379-0.242-0.727-0.331
			c-0.42-0.108-0.748-0.267-0.984-0.477c-0.235-0.21-0.354-0.474-0.354-0.791c0-0.333,0.127-0.612,0.381-0.835
			c0.254-0.225,0.584-0.336,0.987-0.336c0.435,0,0.781,0.129,1.038,0.385c0.258,0.256,0.383,0.553,0.373,0.892l-0.006,0.018h-0.513
			c0-0.251-0.077-0.452-0.23-0.607c-0.153-0.154-0.374-0.231-0.662-0.231c-0.268,0-0.473,0.064-0.616,0.195
			c-0.143,0.13-0.214,0.299-0.214,0.509c0,0.186,0.077,0.341,0.232,0.465c0.154,0.124,0.405,0.233,0.753,0.327
			c0.419,0.111,0.737,0.275,0.956,0.493c0.218,0.218,0.327,0.486,0.327,0.808c0,0.344-0.131,0.621-0.393,0.83
			s-0.604,0.313-1.027,0.313c-0.396,0-0.747-0.116-1.052-0.348c-0.306-0.231-0.452-0.542-0.444-0.929l0.006-0.018h0.514
			c0,0.273,0.094,0.482,0.281,0.625s0.42,0.215,0.695,0.215c0.271,0,0.486-0.062,0.645-0.185S36.01,50.844,36.01,50.633z"/>
		<path fill="#FFFFFF" d="M37.898,51.709h-0.541v-4.272h0.541V51.709z"/>
		<path fill="#FFFFFF" d="M41.076,50.633c0-0.194-0.068-0.357-0.205-0.488s-0.379-0.242-0.726-0.331
			c-0.421-0.108-0.749-0.267-0.984-0.477s-0.354-0.474-0.354-0.791c0-0.333,0.127-0.612,0.381-0.835
			c0.254-0.225,0.583-0.336,0.987-0.336c0.435,0,0.781,0.129,1.038,0.385c0.258,0.256,0.382,0.553,0.373,0.892l-0.006,0.018h-0.513
			c0-0.251-0.077-0.452-0.23-0.607c-0.154-0.154-0.375-0.231-0.662-0.231c-0.268,0-0.473,0.064-0.616,0.195
			c-0.143,0.13-0.214,0.299-0.214,0.509c0,0.186,0.077,0.341,0.232,0.465c0.154,0.124,0.405,0.233,0.753,0.327
			c0.419,0.111,0.737,0.275,0.956,0.493c0.218,0.218,0.327,0.486,0.327,0.808c0,0.344-0.132,0.621-0.394,0.83
			s-0.604,0.313-1.026,0.313c-0.396,0-0.747-0.116-1.052-0.348c-0.306-0.231-0.453-0.542-0.444-0.929l0.005-0.018h0.514
			c0,0.273,0.094,0.482,0.281,0.625s0.42,0.215,0.696,0.215c0.271,0,0.485-0.062,0.645-0.185
			C40.997,51.01,41.076,50.844,41.076,50.633z"/>
		<path fill="#FFFFFF" d="M45.09,47.892h-1.277v3.817h-0.539v-3.817h-1.274v-0.455h3.091V47.892z"/>
		<path fill="#FFFFFF" d="M48.032,49.729h-1.821v1.525h2.1v0.455h-2.637v-4.272h2.607v0.455h-2.07v1.382h1.821V49.729z"/>
		<path fill="#FFFFFF" d="M49.629,47.437l1.268,3.472h0.016l1.268-3.472h0.688v4.272H52.33V50.02l0.055-1.738l-0.014-0.002
			l-1.289,3.43h-0.357l-1.283-3.422l-0.014,0.004l0.052,1.729v1.689h-0.538v-4.272H49.629z"/>
		<path fill="#FFFFFF" d="M56.057,50.608h-1.666l-0.377,1.101h-0.549l1.537-4.272h0.462l1.513,4.272h-0.549L56.057,50.608z
			 M54.557,50.125h1.338L55.24,48.18h-0.018L54.557,50.125z"/>
		<path fill="#FFFFFF" d="M59.479,51.709h-0.54v-4.272h0.54V51.709z"/>
		<path fill="#FFFFFF" d="M63.498,51.709h-0.537l-1.914-3.305L61.03,48.41v3.299h-0.538v-4.272h0.538l1.913,3.298l0.018-0.006
			v-3.292h0.537V51.709z"/>
		<path fill="#FFFFFF" d="M67.094,47.892h-1.277v3.817h-0.539v-3.817h-1.274v-0.455h3.091V47.892z"/>
		<path fill="#FFFFFF" d="M70.036,49.729h-1.821v1.525h2.1v0.455h-2.637v-4.272h2.607v0.455h-2.07v1.382h1.821V49.729z"/>
		<path fill="#FFFFFF" d="M73.826,51.143c-0.096,0.156-0.26,0.301-0.493,0.432s-0.536,0.196-0.907,0.196
			c-0.476,0-0.868-0.163-1.179-0.489c-0.31-0.327-0.466-0.75-0.466-1.268v-0.881c0-0.519,0.145-0.941,0.435-1.268
			s0.663-0.49,1.119-0.49c0.455,0,0.812,0.12,1.073,0.361c0.26,0.24,0.393,0.551,0.398,0.93l-0.006,0.018h-0.513
			c-0.017-0.248-0.104-0.453-0.264-0.613s-0.39-0.24-0.689-0.24c-0.304,0-0.549,0.122-0.734,0.366
			c-0.186,0.245-0.278,0.554-0.278,0.929v0.887c0,0.379,0.104,0.691,0.311,0.936c0.208,0.246,0.473,0.369,0.793,0.369
			c0.225,0,0.41-0.033,0.554-0.098s0.247-0.137,0.309-0.219v-0.969h-0.871v-0.455h1.409V51.143z"/>
		<path fill="#FFFFFF" d="M75.295,49.857v1.852h-0.539v-4.27h1.439c0.436,0,0.768,0.104,0.996,0.311
			c0.229,0.208,0.344,0.51,0.344,0.904c0,0.219-0.053,0.41-0.159,0.572s-0.262,0.291-0.466,0.387
			c0.219,0.077,0.376,0.201,0.471,0.371c0.096,0.172,0.145,0.384,0.145,0.637v0.401c0,0.133,0.014,0.253,0.041,0.358
			s0.074,0.191,0.141,0.258v0.07h-0.554c-0.071-0.066-0.116-0.164-0.136-0.293c-0.021-0.129-0.031-0.263-0.031-0.399v-0.39
			c0-0.231-0.062-0.418-0.188-0.559c-0.126-0.141-0.294-0.211-0.506-0.211H75.295z M75.295,49.402h0.846
			c0.305,0,0.523-0.062,0.656-0.186c0.135-0.124,0.201-0.312,0.201-0.566c0-0.24-0.065-0.426-0.195-0.559
			c-0.131-0.131-0.332-0.197-0.607-0.197h-0.9V49.402z"/>
		<path fill="#FFFFFF" d="M80.615,50.608h-1.666l-0.376,1.101h-0.549l1.537-4.272h0.462l1.512,4.272h-0.549L80.615,50.608z
			 M79.116,50.125h1.338l-0.655-1.945h-0.017L79.116,50.125z"/>
		<path fill="#FFFFFF" d="M82.081,51.709v-4.272h1.221c0.521,0,0.938,0.172,1.253,0.515c0.314,0.344,0.473,0.787,0.473,1.331v0.584
			c0,0.546-0.158,0.989-0.473,1.331s-0.732,0.512-1.253,0.512H82.081z M82.619,47.892v3.362h0.683c0.367,0,0.657-0.13,0.869-0.39
			s0.318-0.593,0.318-0.999v-0.59c0-0.402-0.106-0.734-0.318-0.994s-0.502-0.39-0.869-0.39H82.619z"/>
		<path fill="#FFFFFF" d="M88.772,49.954c0,0.522-0.151,0.956-0.452,1.3c-0.301,0.345-0.691,0.517-1.172,0.517
			c-0.465,0-0.842-0.172-1.132-0.517c-0.29-0.344-0.436-0.777-0.436-1.3v-0.76c0-0.521,0.146-0.954,0.436-1.3s0.667-0.52,1.132-0.52
			c0.48,0,0.871,0.173,1.172,0.518c0.301,0.346,0.452,0.779,0.452,1.302V49.954z M88.234,49.188c0-0.392-0.098-0.712-0.295-0.962
			c-0.196-0.251-0.461-0.376-0.791-0.376c-0.313,0-0.563,0.125-0.75,0.376c-0.187,0.25-0.279,0.57-0.279,0.962v0.766
			c0,0.396,0.093,0.718,0.279,0.968c0.187,0.251,0.437,0.377,0.75,0.377c0.332,0,0.598-0.125,0.793-0.375
			c0.195-0.249,0.293-0.572,0.293-0.97V49.188z"/>
		<path fill="#FFFFFF" d="M90.965,51.709v-4.272h1.221c0.52,0,0.938,0.172,1.252,0.515c0.315,0.344,0.473,0.787,0.473,1.331v0.584
			c0,0.546-0.157,0.989-0.473,1.331c-0.314,0.342-0.732,0.512-1.252,0.512H90.965z M91.502,47.892v3.362h0.684
			c0.367,0,0.656-0.13,0.869-0.39c0.212-0.26,0.318-0.593,0.318-0.999v-0.59c0-0.402-0.106-0.734-0.318-0.994
			c-0.213-0.26-0.502-0.39-0.869-0.39H91.502z"/>
		<path fill="#FFFFFF" d="M97.006,49.729h-1.82v1.525h2.1v0.455h-2.638v-4.272h2.607v0.455h-2.069v1.382h1.82V49.729z"/>
		<path fill="#FFFFFF" d="M36.85,60.496h-0.537l-1.914-3.305l-0.016,0.006v3.299h-0.539v-4.273h0.539l1.913,3.299l0.017-0.006
			v-3.293h0.537V60.496z"/>
		<path fill="#FFFFFF" d="M40.738,56.223v2.896c0,0.466-0.141,0.822-0.422,1.068s-0.648,0.369-1.102,0.369
			c-0.438,0-0.791-0.123-1.063-0.371c-0.272-0.247-0.408-0.603-0.408-1.066v-2.896h0.538v2.895c0,0.322,0.085,0.567,0.256,0.734
			c0.172,0.168,0.396,0.251,0.678,0.251c0.295,0,0.533-0.083,0.714-0.251c0.181-0.167,0.271-0.412,0.271-0.734v-2.895H40.738z"/>
		<path fill="#FFFFFF" d="M44.426,59.125l0.006,0.018c0.008,0.401-0.124,0.737-0.393,1.008c-0.27,0.271-0.626,0.406-1.068,0.406
			c-0.449,0-0.815-0.17-1.099-0.513c-0.282-0.343-0.425-0.776-0.425-1.304v-0.76c0-0.525,0.143-0.961,0.425-1.304
			c0.283-0.343,0.649-0.515,1.099-0.515s0.808,0.129,1.073,0.385c0.266,0.258,0.396,0.599,0.388,1.023l-0.006,0.018H43.91
			c0-0.299-0.082-0.536-0.246-0.711c-0.164-0.174-0.395-0.26-0.693-0.26c-0.3,0-0.539,0.129-0.718,0.389
			c-0.179,0.261-0.268,0.583-0.268,0.969v0.765c0,0.389,0.089,0.714,0.268,0.974s0.418,0.39,0.718,0.39
			c0.299,0,0.529-0.087,0.693-0.26s0.246-0.412,0.246-0.718H44.426z"/>
		<path fill="#FFFFFF" d="M45.695,60.041h1.881v0.455h-2.419v-4.273h0.538V60.041z"/>
		<path fill="#FFFFFF" d="M50.535,58.516h-1.82v1.525h2.1v0.455h-2.638v-4.273h2.607v0.455h-2.069v1.383h1.82V58.516z"/>
		<path fill="#FFFFFF" d="M54.453,58.74c0,0.523-0.15,0.956-0.451,1.301c-0.301,0.344-0.692,0.516-1.173,0.516
			c-0.464,0-0.841-0.172-1.132-0.516c-0.29-0.345-0.436-0.777-0.436-1.301v-0.76c0-0.52,0.146-0.953,0.436-1.299
			c0.291-0.347,0.668-0.52,1.132-0.52c0.48,0,0.872,0.172,1.173,0.518s0.451,0.779,0.451,1.301V58.74z M53.916,57.975
			c0-0.391-0.099-0.711-0.295-0.962c-0.197-0.251-0.461-0.376-0.792-0.376c-0.313,0-0.563,0.125-0.749,0.376
			c-0.188,0.251-0.28,0.571-0.28,0.962v0.766c0,0.396,0.093,0.719,0.28,0.969c0.186,0.25,0.436,0.376,0.749,0.376
			c0.333,0,0.598-0.125,0.793-0.374c0.196-0.25,0.294-0.572,0.294-0.971V57.975z"/>
		<path fill="#FFFFFF" d="M57.421,59.42c0-0.195-0.068-0.357-0.204-0.488C57.08,58.8,56.838,58.689,56.49,58.6
			c-0.42-0.107-0.748-0.266-0.984-0.477c-0.236-0.209-0.354-0.473-0.354-0.791c0-0.333,0.127-0.611,0.381-0.835
			s0.583-0.335,0.986-0.335c0.436,0,0.781,0.128,1.039,0.384c0.258,0.257,0.382,0.554,0.373,0.892l-0.006,0.018h-0.514
			c0-0.25-0.076-0.452-0.23-0.607c-0.153-0.154-0.374-0.23-0.662-0.23c-0.268,0-0.473,0.064-0.615,0.194s-0.215,0.3-0.215,0.509
			c0,0.186,0.078,0.342,0.232,0.465c0.154,0.125,0.406,0.234,0.754,0.328c0.418,0.111,0.736,0.275,0.955,0.492
			c0.219,0.218,0.328,0.486,0.328,0.808c0,0.345-0.131,0.621-0.394,0.83c-0.262,0.21-0.604,0.313-1.026,0.313
			c-0.396,0-0.748-0.115-1.053-0.348c-0.305-0.231-0.452-0.541-0.443-0.928l0.006-0.018h0.514c0,0.273,0.094,0.482,0.28,0.625
			c0.188,0.143,0.42,0.214,0.696,0.214c0.271,0,0.486-0.062,0.645-0.185C57.342,59.797,57.421,59.63,57.421,59.42z"/>
		<path fill="#FFFFFF" d="M60.132,60.496v-4.273h1.221c0.521,0,0.938,0.172,1.253,0.516s0.473,0.787,0.473,1.33v0.584
			c0,0.547-0.158,0.99-0.473,1.331c-0.314,0.342-0.732,0.513-1.253,0.513H60.132z M60.67,56.678v3.363h0.683
			c0.367,0,0.657-0.131,0.869-0.391s0.318-0.593,0.318-0.999v-0.589c0-0.403-0.106-0.734-0.318-0.994s-0.502-0.391-0.869-0.391
			H60.67z"/>
		<path fill="#FFFFFF" d="M66.174,58.516h-1.821v1.525h2.099v0.455h-2.637v-4.273h2.607v0.455h-2.069v1.383h1.821V58.516z"/>
		<path fill="#FFFFFF" d="M70.626,59.395h-1.665l-0.377,1.102h-0.549l1.537-4.273h0.461l1.513,4.273h-0.549L70.626,59.395z
			 M69.127,58.911h1.338l-0.655-1.945h-0.017L69.127,58.911z"/>
		<path fill="#FFFFFF" d="M74.901,59.125l0.005,0.018c0.008,0.401-0.123,0.737-0.393,1.008c-0.27,0.271-0.625,0.406-1.067,0.406
			c-0.45,0-0.815-0.17-1.099-0.513s-0.425-0.776-0.425-1.304v-0.76c0-0.525,0.142-0.961,0.425-1.304s0.648-0.515,1.099-0.515
			c0.449,0,0.808,0.129,1.073,0.385c0.266,0.258,0.395,0.599,0.387,1.023l-0.005,0.018h-0.517c0-0.299-0.082-0.536-0.245-0.711
			c-0.164-0.174-0.396-0.26-0.693-0.26c-0.3,0-0.54,0.129-0.718,0.389c-0.179,0.261-0.268,0.583-0.268,0.969v0.765
			c0,0.389,0.089,0.714,0.268,0.974c0.178,0.26,0.418,0.39,0.718,0.39c0.298,0,0.529-0.087,0.693-0.26
			c0.163-0.173,0.245-0.412,0.245-0.718H74.901z"/>
		<path fill="#FFFFFF" d="M77.992,58.516h-1.821v1.525h2.099v0.455h-2.637v-4.273h2.607v0.455h-2.069v1.383h1.821V58.516z"/>
		<path fill="#FFFFFF" d="M81.065,59.42c0-0.195-0.068-0.357-0.204-0.488c-0.137-0.132-0.379-0.242-0.727-0.332
			c-0.42-0.107-0.748-0.266-0.984-0.477c-0.236-0.209-0.354-0.473-0.354-0.791c0-0.333,0.127-0.611,0.381-0.835
			s0.583-0.335,0.986-0.335c0.436,0,0.781,0.128,1.039,0.384c0.258,0.257,0.382,0.554,0.373,0.892l-0.006,0.018h-0.514
			c0-0.25-0.076-0.452-0.23-0.607c-0.153-0.154-0.374-0.23-0.662-0.23c-0.268,0-0.473,0.064-0.615,0.194s-0.215,0.3-0.215,0.509
			c0,0.186,0.078,0.342,0.232,0.465c0.154,0.125,0.406,0.234,0.754,0.328c0.418,0.111,0.736,0.275,0.955,0.492
			c0.219,0.218,0.328,0.486,0.328,0.808c0,0.345-0.131,0.621-0.394,0.83c-0.262,0.21-0.604,0.313-1.026,0.313
			c-0.396,0-0.748-0.115-1.053-0.348c-0.305-0.231-0.452-0.541-0.443-0.928l0.006-0.018h0.514c0,0.273,0.094,0.482,0.28,0.625
			c0.188,0.143,0.42,0.214,0.696,0.214c0.271,0,0.486-0.062,0.645-0.185C80.986,59.797,81.065,59.63,81.065,59.42z"/>
		<path fill="#FFFFFF" d="M84.552,59.42c0-0.195-0.068-0.357-0.204-0.488c-0.137-0.132-0.379-0.242-0.727-0.332
			c-0.42-0.107-0.748-0.266-0.984-0.477c-0.236-0.209-0.354-0.473-0.354-0.791c0-0.333,0.127-0.611,0.381-0.835
			s0.583-0.335,0.986-0.335c0.436,0,0.781,0.128,1.039,0.384c0.258,0.257,0.382,0.554,0.373,0.892l-0.006,0.018h-0.514
			c0-0.25-0.076-0.452-0.23-0.607c-0.153-0.154-0.374-0.23-0.662-0.23c-0.268,0-0.473,0.064-0.615,0.194s-0.215,0.3-0.215,0.509
			c0,0.186,0.078,0.342,0.232,0.465c0.154,0.125,0.406,0.234,0.754,0.328c0.418,0.111,0.736,0.275,0.955,0.492
			c0.219,0.218,0.328,0.486,0.328,0.808c0,0.345-0.131,0.621-0.394,0.83c-0.262,0.21-0.604,0.313-1.026,0.313
			c-0.396,0-0.748-0.115-1.053-0.348c-0.305-0.231-0.452-0.541-0.443-0.928l0.006-0.018h0.514c0,0.273,0.094,0.482,0.28,0.625
			c0.188,0.143,0.42,0.214,0.696,0.214c0.271,0,0.486-0.062,0.645-0.185C84.473,59.797,84.552,59.63,84.552,59.42z"/>
		<path fill="#FFFFFF" d="M86.441,60.496H85.9v-4.273h0.541V60.496z"/>
		<path fill="#FFFFFF" d="M87.453,60.496v-4.273h1.297c0.416,0,0.74,0.098,0.975,0.289c0.235,0.193,0.353,0.482,0.353,0.867
			c0,0.19-0.056,0.359-0.169,0.51c-0.113,0.149-0.262,0.261-0.445,0.333c0.24,0.055,0.43,0.181,0.566,0.378
			c0.138,0.198,0.207,0.428,0.207,0.689c0,0.392-0.119,0.69-0.354,0.896c-0.236,0.207-0.557,0.311-0.961,0.311H87.453z
			 M87.992,58.039h0.87c0.2,0,0.363-0.059,0.489-0.177c0.125-0.118,0.188-0.283,0.188-0.495c0-0.23-0.067-0.402-0.203-0.518
			c-0.135-0.114-0.33-0.172-0.586-0.172h-0.758V58.039z M87.992,58.494v1.547h0.93c0.244,0,0.435-0.064,0.571-0.195
			c0.136-0.129,0.204-0.312,0.204-0.551c0-0.249-0.057-0.445-0.17-0.587c-0.113-0.143-0.289-0.214-0.525-0.214H87.992z"/>
		<path fill="#FFFFFF" d="M91.596,60.496h-0.541v-4.273h0.541V60.496z"/>
		<path fill="#FFFFFF" d="M93.146,60.041h1.881v0.455h-2.42v-4.273h0.539V60.041z"/>
		<path fill="#FFFFFF" d="M96.195,60.496h-0.541v-4.273h0.541V60.496z"/>
		<path fill="#FFFFFF" d="M97.208,60.496v-4.273h1.221c0.521,0,0.938,0.172,1.253,0.516s0.473,0.787,0.473,1.33v0.584
			c0,0.547-0.158,0.99-0.473,1.331c-0.314,0.342-0.732,0.513-1.253,0.513H97.208z M97.746,56.678v3.363h0.683
			c0.367,0,0.657-0.131,0.869-0.391s0.318-0.593,0.318-0.999v-0.589c0-0.403-0.106-0.734-0.318-0.994s-0.502-0.391-0.869-0.391
			H97.746z"/>
		<path fill="#FFFFFF" d="M102.988,59.395h-1.666l-0.377,1.102h-0.549l1.537-4.273h0.462l1.513,4.273h-0.549L102.988,59.395z
			 M101.488,58.911h1.338l-0.654-1.945h-0.018L101.488,58.911z"/>
		<path fill="#FFFFFF" d="M104.453,60.496v-4.273h1.221c0.521,0,0.938,0.172,1.254,0.516c0.314,0.344,0.472,0.787,0.472,1.33v0.584
			c0,0.547-0.157,0.99-0.472,1.331c-0.315,0.342-0.732,0.513-1.254,0.513H104.453z M104.992,56.678v3.363h0.682
			c0.367,0,0.658-0.131,0.869-0.391c0.213-0.26,0.318-0.593,0.318-0.999v-0.589c0-0.403-0.105-0.734-0.318-0.994
			c-0.211-0.26-0.502-0.391-0.869-0.391H104.992z"/>
		<path fill="#FFFFFF" d="M110.495,58.516h-1.821v1.525h2.1v0.455h-2.637v-4.273h2.607v0.455h-2.07v1.383h1.821V58.516z"/>
	</g>
</g>
</svg>
