<?xml version="1.0" encoding="utf-8"?>
<!-- Generator: Adobe Illustrator 16.0.4, SVG Export Plug-In . SVG Version: 6.00 Build 0)  -->
<!DOCTYPE svg PUBLIC "-//W3C//DTD SVG 1.1//EN" "http://www.w3.org/Graphics/SVG/1.1/DTD/svg11.dtd">
<svg version="1.1" id="Layer_1" xmlns="http://www.w3.org/2000/svg" xmlns:xlink="http://www.w3.org/1999/xlink" x="0px" y="0px"
	 width="133.176px" height="79.459px" viewBox="0 0 133.176 79.459" enable-background="new 0 0 133.176 79.459"
	 xml:space="preserve">
<g>
	<g id="_89532688_3_">
		<g>
			<g id="_82476968_3_">
				<polygon fill="#FFFFFF" points="126.234,22.016 133.119,25.927 133.176,33.846 126.348,37.854 119.46,33.942 119.403,26.025 
									"/>
			</g>
			<g id="_86965000_3_">
				<polygon fill="#FFFFFF" points="118.71,54.948 126.877,50.153 126.812,40.682 118.575,36.003 110.407,40.796 110.473,50.27 				
					"/>
			</g>
			<g id="_88034432_3_">
				<polygon fill="#FFFFFF" points="103.735,38.381 109.062,41.407 109.105,47.534 103.821,50.635 98.494,47.609 98.448,41.481 				
					"/>
			</g>
			<g id="_47328696_3_">
				<polygon fill="#FFFFFF" points="90.819,22.058 98.988,26.696 99.054,36.091 90.953,40.846 82.785,36.208 82.717,26.813 				"/>
			</g>
			<g id="_89512712_3_">
				<polygon fill="#FFFFFF" points="99.089,9.456 105.701,13.211 105.756,20.815 99.199,24.663 92.585,20.909 92.532,13.304 				"/>
			</g>
			<g id="_89899192_3_">
				<polygon fill="#FFFFFF" points="119.215,24.579 129.815,18.358 129.727,6.069 119.038,0 108.439,6.223 108.527,18.51 				"/>
			</g>
		</g>
		<g enable-background="new    ">
			<g>
				<path fill="#FFFFFF" d="M87.549,60.389v10.724c0,3.242,1.248,4.877,3.381,4.877c2.217,0,3.436-1.55,3.436-4.877V60.389h4.212
					v10.475c0,5.765-2.909,8.506-7.787,8.506c-4.711,0-7.454-2.632-7.454-8.562V60.389H87.549z"/>
			</g>
			<g>
				<path fill="#FFFFFF" d="M102.26,60.389h11.39v3.465h-7.178v4.267h6.706v3.436h-6.706v7.51h-4.212V60.389z"/>
			</g>
			<g>
				<path fill="#FFFFFF" d="M132.435,78.206c-1.303,0.444-3.769,1.055-6.235,1.055c-3.408,0-5.874-0.859-7.592-2.494
					c-1.691-1.636-2.633-4.073-2.633-6.815c0.028-6.208,4.545-9.755,10.669-9.755c2.411,0,4.267,0.471,5.182,0.887l-0.887,3.408
					c-1.026-0.471-2.272-0.804-4.324-0.804c-3.518,0-6.206,1.996-6.206,6.042c0,3.879,2.438,6.124,5.902,6.124
					c0.942,0,1.718-0.112,2.051-0.251v-3.934h-2.882v-3.298h6.956V78.206z"/>
			</g>
		</g>
	</g>
	<g>
		<g>
			<g>
				<path fill="#FFFFFF" d="M14.425,78.626c-0.805,0.389-2.584,0.833-4.864,0.833C3.613,79.459,0,75.735,0,70.01
					c0-6.172,4.309-9.896,10.036-9.896c2.25,0,3.834,0.474,4.529,0.833l-0.725,2.725c-0.888-0.389-2.139-0.723-3.667-0.723
					c-3.807,0-6.56,2.391-6.56,6.893c0,4.141,2.389,6.754,6.532,6.754c1.363,0,2.807-0.276,3.725-0.667L14.425,78.626z"/>
			</g>
			<g>
				<path fill="#FFFFFF" d="M23.542,60.42v18.734h-3.418V60.42H23.542z"/>
			</g>
			<g>
				<path fill="#FFFFFF" d="M33.997,73.846l-1.614,5.309h-3.53l6.003-18.734h4.365l6.086,18.734h-3.697l-1.694-5.309H33.997z
					 M39.36,71.26l-1.474-4.613c-0.361-1.139-0.667-2.418-0.944-3.503h-0.057c-0.277,1.085-0.583,2.392-0.89,3.503l-1.445,4.613
					H39.36z"/>
			</g>
			<g>
				<path fill="#FFFFFF" d="M50.702,60.698c1.307-0.249,3.195-0.416,5.168-0.416c2.697,0,4.501,0.444,5.782,1.502
					c1.029,0.861,1.612,2.167,1.612,3.779c0,2.419-1.639,4.057-3.418,4.67v0.083c1.36,0.499,2.168,1.806,2.613,3.612
					c0.61,2.334,1.112,4.504,1.472,5.227H60.43c-0.278-0.558-0.751-2.085-1.252-4.419c-0.555-2.446-1.415-3.227-3.362-3.279h-1.724
					v7.698h-3.39V60.698z M54.091,68.954h2.03c2.306,0,3.724-1.223,3.724-3.087c0-2.028-1.418-2.999-3.64-2.999
					c-1.086,0-1.781,0.082-2.115,0.164V68.954z"/>
			</g>
		</g>
	</g>
</g>
</svg>
