<svg xmlns="http://www.w3.org/2000/svg" width="119.298" height="40"><g fill="#FFF"><path d="M34.51 18.305c.6 0 1.081-.483 1.081-1.075a1.08 1.08 0 0 0-1.081-1.077H23.19c-.597 0-1.083.487-1.083 1.077 0 .597.485 1.075 1.083 1.075h11.32zM82.969 16.883L74.366.58a1.083 1.083 0 0 0-.885-.576h-.018C73.444 0 73.421 0 73.398 0s-.046 0-.071.004h-.016c-.36.029-.699.232-.877.576l-8.606 16.303a1.068 1.068 0 0 0 .462 1.449 1.084 1.084 0 0 0 1.459-.459l7.652-14.495 7.648 14.495a1.08 1.08 0 0 0 1.457.459 1.07 1.07 0 0 0 .463-1.449zM59.167.176c-.594 0-1.079.481-1.079 1.073v15.978a1.08 1.08 0 0 0 2.159 0V1.25a1.082 1.082 0 0 0-1.08-1.074z"/><path d="M34.51.176H23.19a1.08 1.08 0 0 0-1.083 1.073v15.978a1.08 1.08 0 0 0 1.083 1.075 1.08 1.08 0 0 0 1.079-1.075V2.323h10.24A1.073 1.073 0 1 0 34.51.176z"/><path d="M32.484 7.851h-5.787a1.075 1.075 0 0 0 0 2.148h5.787c.596 0 1.085-.483 1.085-1.073a1.077 1.077 0 0 0-1.085-1.075zM17.837.467a1.083 1.083 0 0 0-1.526 0L9.083 7.661 1.853.467a1.079 1.079 0 0 0-1.522 0A1.116 1.116 0 0 0 0 1.251v15.978a1.079 1.079 0 0 0 2.158 0V3.817l6.026 5.985c.04.054.071.108.121.152.213.21.496.311.778.311.282 0 .563-.104.781-.311a.824.824 0 0 0 .119-.151l6.026-5.985V17.23c0 .592.482 1.075 1.083 1.075.594 0 1.076-.483 1.076-1.075V1.251c0-.154-.029-.301-.087-.426a1.043 1.043 0 0 0-.244-.358zM45.69.176h-6.649c-.602 0-1.082.481-1.082 1.073v15.978c0 .552.426 1.018.971 1.067.036.008.074.008.113.008h6.65c3.591 0 6.503-2.942 6.503-6.514V6.717C52.192 3.148 49.28.176 45.69.176zm4.444 11.013c0 2.728-2.229 4.974-4.969 4.974h-.674l-.778-.011h-3.595V2.323h4.316c.042 0 .08 0 .124-.004h.608c2.742 0 4.969 2.272 4.969 5.003v3.867h-.001zM101.368 23.581c.594 0 1.078-.481 1.078-1.075a1.08 1.08 0 0 0-1.078-1.077H90.05a1.08 1.08 0 0 0-1.086 1.077c0 .594.483 1.075 1.086 1.075h11.318z"/><g><path d="M62.959 21.405a1.087 1.087 0 0 0-1.458.459l-8.605 16.304a1.084 1.084 0 0 0 .462 1.457 1.09 1.09 0 0 0 1.458-.463l8.605-16.303a1.084 1.084 0 0 0-.462-1.454zM118.223 30.608h-6.398a1.08 1.08 0 0 0-1.085 1.075c0 .59.487 1.068 1.085 1.068h5.318v4.408h-4.316a.633.633 0 0 0-.123.012h-.609c-2.74 0-4.961-2.269-4.961-4.998v-3.872c0-2.729 2.223-4.974 4.961-4.974h.673l.78.008h4.676a1.072 1.072 0 1 0 0-2.144h-6.654c-3.595 0-6.502 2.938-6.502 6.514v5.066c0 3.581 2.907 6.547 6.502 6.547H118.223c.592 0 1.075-.479 1.075-1.072v-6.36c0-.041-.005-.071-.005-.104 0-.032.005-.062.005-.096 0-.598-.481-1.078-1.075-1.078zM82.792 21.013a1.08 1.08 0 0 0-1.085 1.073v9.736c0 .027.008.053.008.076v.386c0 3.415-2.278 4.944-5.017 4.944h-1.875c-2.747 0-5.004-1.45-5.004-4.944v-.402l.008-.778v-9.017c0-.594-.479-1.072-1.077-1.072s-1.081.479-1.081 1.072V33.072c0 3.575 2.958 6.469 6.547 6.469h3.079c3.59 0 6.578-2.899 6.578-6.469V22.09a1.08 1.08 0 0 0-1.081-1.077zM90.05 21.428c-.598 0-1.085.484-1.085 1.078v15.982c0 .59.483 1.067 1.085 1.067.59 0 1.078-.478 1.078-1.067V22.506a1.084 1.084 0 0 0-1.078-1.078zM99.343 29.107h-6.131c-.598 0-1.082.481-1.082 1.071 0 .594.487 1.073 1.082 1.073h6.131c.599 0 1.081-.479 1.081-1.073 0-.59-.482-1.071-1.081-1.071z"/></g><g><path d="M12.403 37.411H2.157V22.506a1.078 1.078 0 1 0-2.157 0v15.983c0 .241.083.451.21.629a.76.76 0 0 0 .106.126c.004.009.012.013.021.02.065.061.142.123.225.167.011.009.021.009.031.016.05.027.108.048.165.063a.172.172 0 0 0 .062.016.47.47 0 0 1 .039.012c.021 0 .035.008.046.008a.744.744 0 0 0 .172.018H12.4c.594 0 1.076-.479 1.076-1.072a1.07 1.07 0 0 0-1.073-1.081zM27.621 22.126a1.09 1.09 0 0 0-.882-.578h-.17a1.083 1.083 0 0 0-.879.578l-8.604 16.298a1.075 1.075 0 0 0 .46 1.455 1.08 1.08 0 0 0 1.455-.464l7.655-14.497 7.648 14.497c.278.53.929.73 1.46.464a1.08 1.08 0 0 0 .462-1.455l-8.605-16.298zM50.042 30.656a4.936 4.936 0 0 0 2.266-4.144c0-2.724-2.219-4.933-4.958-4.933a.748.748 0 0 0-.133.012c-.019-.004-.031-.008-.046-.008h-8.127c-.602 0-1.082.477-1.082 1.075v15.976c0 .598.479 1.074 1.082 1.074l8.255-.004c.01.004.018.004.031.004 2.739 0 4.957-2.217 4.957-4.938a4.908 4.908 0 0 0-2.245-4.114zm-2.715 6.91c-.091 0-.184-.01-.269-.014v.004h-6.942V23.733h6.942v.009a2.796 2.796 0 0 1 3.095 2.772c0 1.543-1.238 2.756-2.788 2.756-.087 0-.186.02-.277.02H47.06v.004c-.757.068-1.31.605-1.31 1.331 0 .727.59 1.316 1.319 1.328v.006c.087-.006.183.008.274.008 1.546.04 2.792 1.271 2.792 2.812.001 1.539-1.26 2.787-2.808 2.787z"/></g></g></svg>