<?xml version="1.0" encoding="utf-8"?>
<!-- Generator: Adobe Illustrator 16.0.0, SVG Export Plug-In . SVG Version: 6.00 Build 0)  -->
<!DOCTYPE svg PUBLIC "-//W3C//DTD SVG 1.1//EN" "http://www.w3.org/Graphics/SVG/1.1/DTD/svg11.dtd">
<svg version="1.1" id="Layer_1" xmlns="http://www.w3.org/2000/svg" xmlns:xlink="http://www.w3.org/1999/xlink" x="0px" y="0px"
	 width="119.298px" height="40px" viewBox="0 0 119.298 40" enable-background="new 0 0 119.298 40" xml:space="preserve">
<g>
	<path fill="#FFFFFF" d="M34.51,18.305c0.6,0,1.081-0.483,1.081-1.075l0,0c0-0.59-0.481-1.077-1.081-1.077H23.19
		c-0.597,0-1.083,0.487-1.083,1.077l0,0c0,0.597,0.485,1.075,1.083,1.075H34.51z"/>
	<g>
		<path fill="#FFFFFF" d="M82.969,16.883L74.366,0.58c-0.181-0.345-0.521-0.549-0.885-0.576c-0.004,0-0.011,0-0.018,0
			C73.444,0,73.421,0,73.398,0s-0.046,0-0.071,0.004c-0.004,0-0.008,0-0.016,0c-0.36,0.029-0.699,0.232-0.877,0.576l-8.606,16.303
			c-0.276,0.533-0.07,1.176,0.462,1.449c0.532,0.271,1.181,0.073,1.459-0.459l7.652-14.495l7.648,14.495
			c0.273,0.533,0.927,0.729,1.457,0.459C83.033,18.061,83.247,17.416,82.969,16.883z"/>
		<path fill="#FFFFFF" d="M59.167,0.176c-0.594,0-1.079,0.481-1.079,1.073v15.978c0,0.592,0.485,1.075,1.079,1.075
			c0.597,0,1.08-0.483,1.08-1.075V1.25C60.244,0.66,59.762,0.176,59.167,0.176z"/>
		<path fill="#FFFFFF" d="M34.51,0.176H23.19c-0.597,0-1.083,0.481-1.083,1.073v15.978c0,0.592,0.485,1.075,1.083,1.075
			c0.594,0,1.079-0.483,1.079-1.075V2.323h10.24c0.6,0,1.081-0.478,1.081-1.071C35.591,0.66,35.108,0.176,34.51,0.176z"/>
		<path fill="#FFFFFF" d="M32.484,7.851h-5.787c-0.597,0-1.074,0.477-1.074,1.075c0,0.59,0.48,1.073,1.074,1.073h5.787
			c0.596,0,1.085-0.483,1.085-1.073C33.571,8.33,33.083,7.851,32.484,7.851z"/>
		<path fill="#FFFFFF" d="M17.837,0.467c-0.421-0.419-1.104-0.419-1.526,0L9.083,7.661l-7.23-7.194
			c-0.419-0.419-1.101-0.419-1.522,0C0.225,0.572,0.143,0.693,0.089,0.825C0.037,0.951,0,1.095,0,1.251v15.978
			c0,0.592,0.484,1.075,1.08,1.075c0.6,0,1.078-0.483,1.078-1.075V3.817l6.026,5.985C8.224,9.856,8.255,9.91,8.305,9.954
			c0.213,0.21,0.496,0.311,0.778,0.311c0.282,0,0.563-0.104,0.781-0.311C9.909,9.91,9.95,9.856,9.983,9.803l6.026-5.985v13.412
			c0,0.592,0.482,1.075,1.083,1.075c0.594,0,1.076-0.483,1.076-1.075V1.251c0-0.154-0.029-0.301-0.087-0.426
			C18.026,0.693,17.947,0.572,17.837,0.467z"/>
		<path fill="#FFFFFF" d="M45.69,0.176h-1.258h-0.319h-5.072c-0.602,0-1.082,0.481-1.082,1.073v15.978
			c0,0.552,0.426,1.018,0.971,1.067c0.036,0.008,0.074,0.008,0.113,0.008h5.462h0.309h0.879c3.591,0,6.503-2.942,6.503-6.514V6.717
			C52.192,3.148,49.28,0.176,45.69,0.176z M50.134,11.189c0,2.728-2.229,4.974-4.969,4.974h-0.674l-0.778-0.011h-3.595V2.323h4.316
			c0.042,0,0.08,0,0.124-0.004h0.608c2.742,0,4.969,2.272,4.969,5.003v3.867H50.134z"/>
	</g>
	<path fill="#FFFFFF" d="M101.368,23.581c0.594,0,1.078-0.481,1.078-1.075l0,0c0-0.594-0.485-1.077-1.078-1.077H90.05
		c-0.604,0-1.086,0.483-1.086,1.077l0,0c0,0.594,0.483,1.075,1.086,1.075H101.368z"/>
	<g>
		<path fill="#FFFFFF" d="M62.959,21.405c-0.535-0.275-1.182-0.062-1.458,0.459l-8.605,16.304c-0.277,0.526-0.067,1.172,0.462,1.457
			c0.529,0.27,1.182,0.064,1.458-0.463l8.605-16.303C63.693,22.332,63.486,21.682,62.959,21.405z"/>
		<path fill="#FFFFFF" d="M118.223,30.608h-6.398c-0.597,0-1.085,0.478-1.085,1.075c0,0.59,0.487,1.068,1.085,1.068h5.318v4.408
			h-4.316c-0.044,0-0.08,0.004-0.123,0.012h-0.609c-2.74,0-4.961-2.269-4.961-4.998v-3.872c0-2.729,2.223-4.974,4.961-4.974h0.673
			l0.78,0.008h4.676c0.592,0,1.074-0.481,1.074-1.07c0-0.599-0.483-1.074-1.074-1.074h-5.468h-0.309h-0.877
			c-3.595,0-6.502,2.938-6.502,6.514v5.066c0,3.581,2.907,6.547,6.502,6.547h1.255h0.32h5.078c0.592,0,1.075-0.479,1.075-1.072
			v-6.36c0-0.041-0.005-0.071-0.005-0.104c0-0.032,0.005-0.062,0.005-0.096C119.298,31.088,118.817,30.608,118.223,30.608z"/>
		<path fill="#FFFFFF" d="M82.792,21.013c-0.598,0-1.085,0.48-1.085,1.073v9.736c0,0.027,0.008,0.053,0.008,0.076v0.386
			c0,3.415-2.278,4.944-5.017,4.944h-1.875c-2.747,0-5.004-1.45-5.004-4.944v-0.402l0.008-0.778v-9.017
			c0-0.594-0.479-1.072-1.077-1.072s-1.081,0.479-1.081,1.072v9.808v0.3v0.877c0,3.575,2.958,6.469,6.547,6.469h3.079
			c3.59,0,6.578-2.899,6.578-6.469v-1.247v-0.318v-9.417C83.872,21.493,83.386,21.013,82.792,21.013z"/>
		<path fill="#FFFFFF" d="M90.05,21.428c-0.598,0-1.085,0.484-1.085,1.078v15.982c0,0.59,0.483,1.067,1.085,1.067
			c0.59,0,1.078-0.478,1.078-1.067V22.506C91.126,21.912,90.64,21.428,90.05,21.428z"/>
		<path fill="#FFFFFF" d="M99.343,29.107h-6.131c-0.598,0-1.082,0.481-1.082,1.071c0,0.594,0.487,1.073,1.082,1.073h6.131
			c0.599,0,1.081-0.479,1.081-1.073C100.424,29.588,99.942,29.107,99.343,29.107z"/>
	</g>
	<g>
		<path fill="#FFFFFF" d="M12.403,37.411H2.157V22.506c0-0.594-0.478-1.077-1.078-1.077C0.484,21.428,0,21.912,0,22.506v15.983
			c0,0.241,0.083,0.451,0.21,0.629c0.033,0.048,0.065,0.087,0.106,0.126c0.004,0.009,0.012,0.013,0.021,0.02
			c0.065,0.061,0.142,0.123,0.225,0.167c0.011,0.009,0.021,0.009,0.031,0.016c0.05,0.027,0.108,0.048,0.165,0.063
			c0.019,0.008,0.042,0.016,0.062,0.016c0.015,0.004,0.028,0.008,0.039,0.012c0.021,0,0.035,0.008,0.046,0.008
			c0.054,0.013,0.113,0.018,0.172,0.018h11.323c0.594,0,1.076-0.479,1.076-1.072C13.479,37.891,12.999,37.411,12.403,37.411z"/>
		<path fill="#FFFFFF" d="M27.621,22.126c-0.182-0.345-0.521-0.549-0.882-0.578c-0.006,0-0.012,0-0.017,0c-0.023,0-0.042,0-0.066,0
			c-0.021,0-0.048,0-0.069,0c-0.004,0-0.01,0-0.018,0c-0.365,0.034-0.704,0.234-0.879,0.578l-8.604,16.298
			c-0.279,0.531-0.068,1.182,0.46,1.455c0.529,0.274,1.18,0.066,1.455-0.464l7.655-14.497l7.648,14.497
			c0.278,0.53,0.929,0.73,1.46,0.464c0.529-0.273,0.734-0.924,0.462-1.455L27.621,22.126z"/>
		<path fill="#FFFFFF" d="M50.042,30.656c1.362-0.884,2.266-2.408,2.266-4.144c0-2.724-2.219-4.933-4.958-4.933
			c-0.042,0-0.091,0.004-0.133,0.012c-0.019-0.004-0.031-0.008-0.046-0.008h-8.127c-0.602,0-1.082,0.477-1.082,1.075v15.976
			c0,0.598,0.479,1.074,1.082,1.074l8.255-0.004c0.01,0.004,0.018,0.004,0.031,0.004c2.739,0,4.957-2.217,4.957-4.938
			C52.283,33.054,51.397,31.533,50.042,30.656z M47.327,37.566c-0.091,0-0.184-0.01-0.269-0.014v0.004h-6.942V23.733h6.942v0.009
			c0.093-0.009,0.195-0.017,0.293-0.017c1.549,0,2.802,1.251,2.802,2.789c0,1.543-1.238,2.756-2.788,2.756
			c-0.087,0-0.186,0.02-0.277,0.02l0,0c-0.002,0-0.006,0-0.006,0c-0.009,0-0.021,0-0.022,0v0.004
			c-0.757,0.068-1.31,0.605-1.31,1.331c0,0.727,0.59,1.316,1.319,1.328v0.006c0.087-0.006,0.183,0.008,0.274,0.008
			c1.546,0.04,2.792,1.271,2.792,2.812C50.136,36.318,48.875,37.566,47.327,37.566z"/>
	</g>
</g>
</svg>
