<svg version="1.1" id="Layer_1" xmlns="http://www.w3.org/2000/svg" xmlns:xlink="http://www.w3.org/1999/xlink" x="0px" y="0px"
	 width="902px" viewBox="0 0 1474.956 732.312" enable-background="new 0 0 1474.956 732.312"
	 xml:space="preserve">
<g>
	<path d="M1003.872,522.627c9.35,6.572,18.364,9.746,27.04,9.52c11.957-0.314,17.937-4.929,17.937-13.841
		c0-5.581-3.079-9.767-9.237-12.559c-2.429-1.125-7.238-2.947-14.43-5.469c-6.068-2.161-10.767-4.187-14.093-6.077
		c-8.271-4.726-12.406-12.018-12.406-21.876c0-12.197,5.626-20.75,16.88-25.657c5.266-2.295,11.162-3.443,17.689-3.443
		c12.243,0,22.641,3.174,31.193,9.521l-7.225,13.166c-7.923-4.727-16.047-7.089-24.374-7.089c-10.038,0-15.057,4.253-15.057,12.761
		c0,5.446,4.298,9.476,12.896,12.086c1.305,0.36,3.668,1.08,7.089,2.16c12.964,4.187,21.696,9.723,26.197,16.609
		c2.745,4.231,4.119,9.498,4.119,15.8c0,11.703-5.965,20.166-17.893,25.387c-5.672,2.475-12.042,3.714-19.107,3.714
		c-12.92,0-24.375-3.579-34.367-10.735L1003.872,522.627z"/>
	<path d="M1137.365,524.854l6.954,9.723c-8.777,8.418-18.726,12.626-29.843,12.626c-10.443,0-18.815-3.87-25.117-11.613
		c-5.807-7.201-8.71-16.158-8.71-26.872c0-10.397,2.769-19.22,8.305-26.467c6.077-7.922,14.179-11.884,24.307-11.884
		c12.783,0,22.079,5.965,27.886,17.893c3.105,6.393,4.658,14.675,4.658,24.847h-46.521c0.495,14.044,6.257,21.065,17.285,21.065
		C1122.871,534.172,1129.803,531.066,1137.365,524.854z M1099.689,500.615h27.21c-1.215-11.478-5.762-17.217-13.639-17.217
		C1105.338,483.398,1100.814,489.138,1099.689,500.615z"/>
</g>
<g>
	<path fill="#FFFFFF" d="M1030.414,716.888h12.311v13.686h-44.39v-13.686h12.311v-80.45h-12.311v-13.687h44.39v13.687h-12.311
		V716.888z"/>
	<path fill="#FFFFFF" d="M1064.448,730.573V622.751h21.361l39.972,73.214v-73.214h19.407v107.822h-21.054l-40.28-73.929v73.929
		H1064.448z"/>
	<path fill="#FFFFFF" d="M1242.366,630.064l-9.992,12.673c-5.553-3.958-11.635-5.938-18.248-5.938
		c-10.428,0-17.862,6.181-22.304,18.538c-2.221,6.131-3.331,13.251-3.331,21.361c0,16.511,4.03,28.146,12.093,34.903
		c3.862,3.234,8.375,4.852,13.542,4.852c6.468,0,13.202-2.462,20.203-7.386l8.979,12.454c-9.027,7.194-19.021,10.79-29.979,10.79
		c-10.235,0-19.189-3.114-26.865-9.341c-7.241-5.938-12.479-13.928-15.714-23.969c-2.221-6.854-3.331-14.289-3.331-22.304
		c0-14.917,3.935-27.637,11.804-38.161c8.689-11.634,20.251-17.451,34.686-17.451
		C1223.997,621.086,1233.483,624.079,1242.366,630.064z"/>
	<path fill="#FFFFFF" d="M1317.097,714.715v15.858h-58.944V622.751h19.769v91.964H1317.097z"/>
	<path fill="#FFFFFF" d="M1390.523,699.943v-77.192h19.695v79.799c0,12.263-5.769,20.903-17.307,25.924
		c-5.793,2.51-12.889,3.766-21.289,3.766c-11.056,0-19.913-2.124-26.575-6.372c-7.966-5.069-11.948-12.841-11.948-23.317v-79.799
		h19.696v77.192c0,10.959,6.275,16.438,18.827,16.438C1384.223,716.381,1390.523,710.902,1390.523,699.943z"/>
	<path fill="#FFFFFF" d="M1462.646,716.888h12.311v13.686h-44.39v-13.686h12.311v-80.45h-12.311v-13.687h44.39v13.687h-12.311
		V716.888z"/>
</g>
<g>
	<path fill="#FFFFFF" d="M466.395,264.807C466.395,135.955,570.85,31.5,699.702,31.5S933.01,135.955,933.01,264.807H466.395z"/>
	<path fill="#FFFFFF" d="M466.755,264.807c128.853,0,233.308,104.456,233.308,233.307c0,128.853-104.455,233.308-233.308,233.308
		V264.807z"/>
	<path fill="#FFFFFF" d="M467.969,264.807c0,128.852-104.455,233.307-233.307,233.307S1.354,393.659,1.354,264.807H467.969z"/>
	<path fill="#FFFFFF" d="M236.162,0c-1.391,10.304-2.124,20.815-2.124,31.5c0,128.852,104.455,233.307,233.308,233.307V0H236.162z"
		/>
</g>
</svg>
