<svg xmlns="http://www.w3.org/2000/svg" width="110.969" height="62.124"><path fill="#FFF" d="M16.254 37.446c0 1.476-.856 2.61-2.57 3.408-1.352.653-2.859.979-4.524.979-1.521 0-3.307-.339-5.358-1.014C1.268 39.951 0 38.938 0 37.779c0-.435.156-.809.471-1.122a1.532 1.532 0 0 1 1.121-.471c.652 0 1.256.266 1.811.796.941.796 1.448 1.23 1.521 1.303.844.482 2.365.724 4.561.724 1.955 0 2.933-.446 2.933-1.34 0-.747-.917-1.785-2.751-3.113l-3.838-2.461c-1.642-1.109-2.836-2.16-3.584-3.15-.99-1.303-1.484-2.799-1.484-4.488 0-2.124.652-4.018 1.955-5.684 1.4-1.833 3.138-2.75 5.213-2.75 1.785 0 3.294.488 4.525 1.465 1.23.979 2.015 2.348 2.354 4.108.071.677.217 1.679.434 3.006.096.386.145.676.145.869 0 .869-.145 1.605-.434 2.208-.363.82-.93 1.23-1.702 1.23-.435 0-.851-.2-1.249-.6-.397-.4-.597-.817-.597-1.254 0-.314.071-.781.217-1.399s.218-1.084.218-1.399c0-3.271-1.086-4.906-3.258-4.906-1.207 0-2.221.514-3.041 1.542-.821 1.026-1.23 2.157-1.23 3.39 0 1.741 1.037 3.432 3.113 5.076 1.905 1.282 3.824 2.563 5.756 3.844 2.049 1.476 3.074 2.891 3.074 4.243zM48.812 17.255c0 .266-.107.604-.326 1.015-.266.532-.422.858-.47.979-.7 2.199-1.05 4-1.05 5.402l-.109 10.405c-.023 1.064-.266 2.151-.724 3.263-.603 1.401-1.351 2.103-2.244 2.103-1.327 0-2.643-1.11-3.946-3.331-.941-1.64-1.895-3.909-2.859-6.806a533.45 533.45 0 0 0-1.701-5.647c-.508 4.103-.761 6.854-.761 8.254 0 3.089.187 4.862.562 5.321.374.458.561.796.561 1.014 0 .458-.241.863-.724 1.213-.483.35-.966.524-1.448.524-.676 0-1.23-.712-1.665-2.136-.339-1.11-.507-2.124-.507-3.041 0-.41.012-1.019.037-1.828.022-.809.035-1.417.035-1.828 0-.989.12-2.462.361-4.417s.363-3.427.363-4.417V18.88a.703.703 0 0 0-.055-.217.7.7 0 0 1-.055-.218c0-.482.326-.881.979-1.194a3.518 3.518 0 0 1 1.592-.398c1.231 0 2.112.398 2.643 1.195.145.266.277.82.398 1.666.072.58.145 1.17.218 1.774.29 1.714 1.05 4.464 2.28 8.254 1.473 4.464 2.57 6.697 3.294 6.697.266 0 .398-.338.398-1.016 0-.193-.03-.507-.091-.942s-.09-.774-.09-1.015l.361-9.829a17.9 17.9 0 0 1 .76-4.352c.628-2.007 1.473-3.01 2.535-3.01.338 0 .809.217 1.412.653.025.122.036.23.036.327zM70.605 34.594c0 1.158-.52 1.75-1.557 1.774.121.555.387 1.302.797 2.244a1.724 1.724 0 0 1-.652 1.304 2.21 2.21 0 0 1-1.447.506c-.435 0-.941-.132-1.521-.398-.312-.627-.471-1.375-.471-2.244 0-.217.013-.531.037-.941.023-.41.037-.712.037-.904 0 .169-.398.253-1.195.253-1.352 0-2.957.061-4.814.182-2.656.145-4.098.35-4.326.615-.23.266-.381 1.556-.453 3.874-.314.458-.712.688-1.195.688-.506 0-1.025-.212-1.556-.634-.531-.422-.797-.874-.797-1.357 0-.168.218-.844.652-2.027.482-1.713 1.267-4.283 2.353-7.71 3.233-8.856 5.924-13.286 8.073-13.286 2.1 0 3.716 2.341 4.851 7.023.507 2.099.978 5.321 1.412 9.665.627.145 1.025.266 1.194.362.385.214.578.553.578 1.011zm-5.068-1.376c-1.062-8.422-2.015-12.634-2.859-12.634-.676 0-1.859 1.979-3.548 5.937-1.206 2.848-2.16 5.321-2.859 7.421.772-.169 1.919-.374 3.438-.615 1.375-.169 3.318-.205 5.828-.109zM91.492 35.058c0 .456-.12 1.01-.361 1.657-.604 1.587-1.737 2.836-3.402 3.748-1.521.817-3.186 1.227-4.996 1.227-2.969 0-5.249-1.121-6.842-3.363-1.375-1.951-2.064-4.47-2.064-7.555 0-2.555.398-4.952 1.195-7.194.893-2.554 2.208-4.555 3.945-6 1.377-1.132 2.775-1.699 4.2-1.699 2.051 0 3.608.893 4.669 2.679.869 1.448 1.304 3.271 1.304 5.466 0 .99-.253 2.232-.76 3.729-.604 1.834-1.279 2.751-2.027 2.751-.845 0-1.484-.53-1.919-1.593.24-.169.579-.447 1.014-.833.482-.53.725-1.568.725-3.113 0-1.496-.157-2.763-.471-3.801-.483-1.568-1.279-2.353-2.389-2.353-.773 0-1.617.495-2.535 1.482-.7.747-1.291 1.578-1.773 2.493-1.184 2.313-1.774 5.192-1.774 8.637 0 5.011 1.883 7.516 5.647 7.516 1.617 0 2.896-.455 3.838-1.366.386-.407.953-1.258 1.701-2.554.507-.934 1.049-1.401 1.629-1.401.387 0 .725.15 1.014.45.288.299.432.63.432.99zM110.969 38.307c0 .405-.085.762-.253 1.072-.218.406-.507.608-.868.608a2.32 2.32 0 0 1-.418-.054 2.225 2.225 0 0 0-.416-.055c-1.037 0-2.539.314-4.506.941-1.968.627-3.471.94-4.508.94-3.886 0-5.828-2.944-5.828-8.833 0-4.633.121-8.302.362-11.004.024-.363.036-.556.036-.58 0-.168-.024-.417-.072-.743a5.31 5.31 0 0 1-.072-.705c0-1.11.603-1.762 1.809-1.955 1.859-.338 3.717-.688 5.576-1.05 2.437-.458 4.26-.687 5.466-.687.7 0 1.315.121 1.847.361.725.338 1.086.809 1.086 1.412 0 .893-.592 1.34-1.773 1.34-.146 0-.369-.019-.67-.055a6.358 6.358 0 0 0-.67-.055c-1.955 0-4.622.435-8 1.304a3.598 3.598 0 0 0-.543.108c-.17.049-.29.229-.362.542-.267 1.159-.398 3.428-.398 6.806 0 .507.229.761.688.761.627 0 1.531-.157 2.715-.471 1.182-.313 2.087-.472 2.715-.472.699 0 1.508.218 2.426.652.24.773.361 1.244.361 1.412 0 .604-.182.929-.543.978-.362.049-.748.097-1.158.145-.193-.121-.459-.181-.797-.181-.845 0-1.858.107-3.041.325a109.868 109.868 0 0 1-3.385.688c-.107.024-.188.169-.234.435a9.767 9.767 0 0 0-.072 1.05c0 1.858.035 2.968.107 3.33.242 1.4.906 2.1 1.992 2.1.916 0 2.256-.277 4.018-.833 1.762-.555 3.161-.833 4.199-.833 1.64.004 2.701.422 3.184 1.256zM24.562 10.11c-5.1 12.79-3.898 26.01-1.498 39.117.371 2.024 3.45 1.164 3.082-.85-2.304-12.572-3.401-25.133 1.498-37.417.764-1.917-2.328-2.74-3.082-.85z"/><circle fill="#FFF" cx="28.917" cy="2.458" r="2.458"/><g fill="#FFF"><path d="M36.01 50.633c0-.194-.068-.357-.205-.488s-.379-.242-.727-.331c-.42-.108-.748-.267-.984-.477a1.018 1.018 0 0 1-.354-.791c0-.333.127-.612.381-.835.254-.225.584-.336.987-.336.435 0 .781.129 1.038.385.258.256.383.553.373.892l-.006.018H36a.825.825 0 0 0-.23-.607c-.153-.154-.374-.231-.662-.231-.268 0-.473.064-.616.195a.654.654 0 0 0-.214.509c0 .186.077.341.232.465.154.124.405.233.753.327.419.111.737.275.956.493.218.218.327.486.327.808 0 .344-.131.621-.393.83s-.604.313-1.027.313c-.396 0-.747-.116-1.052-.348a1.074 1.074 0 0 1-.444-.929l.006-.018h.514c0 .273.094.482.281.625s.42.215.695.215c.271 0 .486-.062.645-.185s.239-.288.239-.499zM37.898 51.709h-.541v-4.272h.541v4.272zM41.076 50.633c0-.194-.068-.357-.205-.488s-.379-.242-.726-.331c-.421-.108-.749-.267-.984-.477s-.354-.474-.354-.791c0-.333.127-.612.381-.835.254-.225.583-.336.987-.336.435 0 .781.129 1.038.385.258.256.382.553.373.892l-.006.018h-.513a.825.825 0 0 0-.23-.607c-.154-.154-.375-.231-.662-.231-.268 0-.473.064-.616.195a.654.654 0 0 0-.214.509c0 .186.077.341.232.465.154.124.405.233.753.327.419.111.737.275.956.493.218.218.327.486.327.808 0 .344-.132.621-.394.83s-.604.313-1.026.313c-.396 0-.747-.116-1.052-.348a1.071 1.071 0 0 1-.444-.929l.005-.018h.514c0 .273.094.482.281.625s.42.215.696.215c.271 0 .485-.062.645-.185a.594.594 0 0 0 .238-.499zM45.09 47.892h-1.277v3.817h-.539v-3.817H42v-.455h3.091v.455zM48.032 49.729h-1.821v1.525h2.1v.455h-2.637v-4.272h2.607v.455h-2.07v1.382h1.821v.455zM49.629 47.437l1.268 3.472h.016l1.268-3.472h.688v4.272h-.539V50.02l.055-1.738-.014-.002-1.289 3.43h-.357l-1.283-3.422-.014.004.052 1.729v1.689h-.538v-4.272h.687zM56.057 50.608h-1.666l-.377 1.101h-.549l1.537-4.272h.462l1.513 4.272h-.549l-.371-1.101zm-1.5-.483h1.338l-.655-1.945h-.018l-.665 1.945zM59.479 51.709h-.54v-4.272h.54v4.272zM63.498 51.709h-.537l-1.914-3.305-.017.006v3.299h-.538v-4.272h.538l1.913 3.298.018-.006v-3.292h.537v4.272zM67.094 47.892h-1.277v3.817h-.539v-3.817h-1.274v-.455h3.091v.455zM70.036 49.729h-1.821v1.525h2.1v.455h-2.637v-4.272h2.607v.455h-2.07v1.382h1.821v.455zM73.826 51.143c-.096.156-.26.301-.493.432s-.536.196-.907.196c-.476 0-.868-.163-1.179-.489-.31-.327-.466-.75-.466-1.268v-.881c0-.519.145-.941.435-1.268s.663-.49 1.119-.49c.455 0 .812.12 1.073.361.26.24.393.551.398.93l-.006.018h-.513c-.017-.248-.104-.453-.264-.613s-.39-.24-.689-.24a.877.877 0 0 0-.734.366c-.186.245-.278.554-.278.929v.887c0 .379.104.691.311.936a.994.994 0 0 0 .793.369c.225 0 .41-.033.554-.098s.247-.137.309-.219v-.969h-.871v-.455h1.409v1.566zM75.295 49.857v1.852h-.539v-4.27h1.439c.436 0 .768.104.996.311.229.208.344.51.344.904 0 .219-.053.41-.159.572s-.262.291-.466.387a.826.826 0 0 1 .471.371c.096.172.145.384.145.637v.401c0 .133.014.253.041.358s.074.191.141.258v.07h-.554a.488.488 0 0 1-.136-.293 2.49 2.49 0 0 1-.031-.399v-.39c0-.231-.062-.418-.188-.559a.644.644 0 0 0-.506-.211h-.998zm0-.455h.846c.305 0 .523-.062.656-.186.135-.124.201-.312.201-.566 0-.24-.065-.426-.195-.559-.131-.131-.332-.197-.607-.197h-.9v1.508zM80.615 50.608h-1.666l-.376 1.101h-.549l1.537-4.272h.462l1.512 4.272h-.549l-.371-1.101zm-1.499-.483h1.338l-.655-1.945h-.017l-.666 1.945zM82.081 51.709v-4.272h1.221c.521 0 .938.172 1.253.515.314.344.473.787.473 1.331v.584c0 .546-.158.989-.473 1.331s-.732.512-1.253.512h-1.221zm.538-3.817v3.362h.683c.367 0 .657-.13.869-.39s.318-.593.318-.999v-.59c0-.402-.106-.734-.318-.994s-.502-.39-.869-.39h-.683zM88.772 49.954c0 .522-.151.956-.452 1.3-.301.345-.691.517-1.172.517-.465 0-.842-.172-1.132-.517-.29-.344-.436-.777-.436-1.3v-.76c0-.521.146-.954.436-1.3s.667-.52 1.132-.52c.48 0 .871.173 1.172.518.301.346.452.779.452 1.302v.76zm-.538-.766c0-.392-.098-.712-.295-.962a.953.953 0 0 0-.791-.376.888.888 0 0 0-.75.376c-.187.25-.279.57-.279.962v.766c0 .396.093.718.279.968a.889.889 0 0 0 .75.377.955.955 0 0 0 .793-.375c.195-.249.293-.572.293-.97v-.766zM90.965 51.709v-4.272h1.221c.52 0 .938.172 1.252.515.315.344.473.787.473 1.331v.584c0 .546-.157.989-.473 1.331-.314.342-.732.512-1.252.512h-1.221zm.537-3.817v3.362h.684c.367 0 .656-.13.869-.39.212-.26.318-.593.318-.999v-.59c0-.402-.106-.734-.318-.994-.213-.26-.502-.39-.869-.39h-.684zM97.006 49.729h-1.82v1.525h2.1v.455h-2.638v-4.272h2.607v.455h-2.069v1.382h1.82v.455zM36.85 60.496h-.537l-1.914-3.305-.016.006v3.299h-.539v-4.273h.539l1.913 3.299.017-.006v-3.293h.537v4.273zM40.738 56.223v2.896c0 .466-.141.822-.422 1.068s-.648.369-1.102.369c-.438 0-.791-.123-1.063-.371-.272-.247-.408-.603-.408-1.066v-2.896h.538v2.895c0 .322.085.567.256.734.172.168.396.251.678.251.295 0 .533-.083.714-.251.181-.167.271-.412.271-.734v-2.895h.538zM44.426 59.125l.006.018c.008.401-.124.737-.393 1.008-.27.271-.626.406-1.068.406a1.36 1.36 0 0 1-1.099-.513c-.282-.343-.425-.776-.425-1.304v-.76c0-.525.143-.961.425-1.304.283-.343.649-.515 1.099-.515s.808.129 1.073.385c.266.258.396.599.388 1.023l-.006.018h-.516c0-.299-.082-.536-.246-.711-.164-.174-.395-.26-.693-.26a.83.83 0 0 0-.718.389c-.179.261-.268.583-.268.969v.765c0 .389.089.714.268.974s.418.39.718.39c.299 0 .529-.087.693-.26s.246-.412.246-.718h.516zM45.695 60.041h1.881v.455h-2.419v-4.273h.538v3.818zM50.535 58.516h-1.82v1.525h2.1v.455h-2.638v-4.273h2.607v.455h-2.069v1.383h1.82v.455zM54.453 58.74c0 .523-.15.956-.451 1.301-.301.344-.692.516-1.173.516-.464 0-.841-.172-1.132-.516-.29-.345-.436-.777-.436-1.301v-.76c0-.52.146-.953.436-1.299.291-.347.668-.52 1.132-.52.48 0 .872.172 1.173.518s.451.779.451 1.301v.76zm-.537-.765c0-.391-.099-.711-.295-.962a.955.955 0 0 0-.792-.376.885.885 0 0 0-.749.376c-.188.251-.28.571-.28.962v.766c0 .396.093.719.28.969.186.25.436.376.749.376a.955.955 0 0 0 .793-.374c.196-.25.294-.572.294-.971v-.766zM57.421 59.42a.65.65 0 0 0-.204-.488c-.137-.132-.379-.243-.727-.332-.42-.107-.748-.266-.984-.477a1.012 1.012 0 0 1-.354-.791c0-.333.127-.611.381-.835s.583-.335.986-.335c.436 0 .781.128 1.039.384.258.257.382.554.373.892l-.006.018h-.514c0-.25-.076-.452-.23-.607-.153-.154-.374-.23-.662-.23-.268 0-.473.064-.615.194s-.215.3-.215.509c0 .186.078.342.232.465.154.125.406.234.754.328.418.111.736.275.955.492.219.218.328.486.328.808 0 .345-.131.621-.394.83-.262.21-.604.313-1.026.313-.396 0-.748-.115-1.053-.348a1.071 1.071 0 0 1-.443-.928l.006-.018h.514c0 .273.094.482.28.625.188.143.42.214.696.214.271 0 .486-.062.645-.185a.592.592 0 0 0 .238-.498zM60.132 60.496v-4.273h1.221c.521 0 .938.172 1.253.516s.473.787.473 1.33v.584c0 .547-.158.99-.473 1.331-.314.342-.732.513-1.253.513h-1.221zm.538-3.818v3.363h.683c.367 0 .657-.131.869-.391s.318-.593.318-.999v-.589c0-.403-.106-.734-.318-.994s-.502-.391-.869-.391h-.683zM66.174 58.516h-1.821v1.525h2.099v.455h-2.637v-4.273h2.607v.455h-2.069v1.383h1.821v.455zM70.626 59.395h-1.665l-.377 1.102h-.549l1.537-4.273h.461l1.513 4.273h-.549l-.371-1.102zm-1.499-.484h1.338l-.655-1.945h-.017l-.666 1.945zM74.901 59.125l.005.018c.008.401-.123.737-.393 1.008s-.625.406-1.067.406c-.45 0-.815-.17-1.099-.513s-.425-.776-.425-1.304v-.76c0-.525.142-.961.425-1.304s.648-.515 1.099-.515c.449 0 .808.129 1.073.385.266.258.395.599.387 1.023l-.005.018h-.517c0-.299-.082-.536-.245-.711-.164-.174-.396-.26-.693-.26-.3 0-.54.129-.718.389-.179.261-.268.583-.268.969v.765c0 .389.089.714.268.974a.83.83 0 0 0 .718.39c.298 0 .529-.087.693-.26.163-.173.245-.412.245-.718h.517zM77.992 58.516h-1.821v1.525h2.099v.455h-2.637v-4.273h2.607v.455h-2.069v1.383h1.821v.455zM81.065 59.42a.65.65 0 0 0-.204-.488c-.137-.132-.379-.242-.727-.332-.42-.107-.748-.266-.984-.477a1.012 1.012 0 0 1-.354-.791c0-.333.127-.611.381-.835s.583-.335.986-.335c.436 0 .781.128 1.039.384.258.257.382.554.373.892l-.006.018h-.514c0-.25-.076-.452-.23-.607-.153-.154-.374-.23-.662-.23-.268 0-.473.064-.615.194s-.215.3-.215.509c0 .186.078.342.232.465.154.125.406.234.754.328.418.111.736.275.955.492.219.218.328.486.328.808 0 .345-.131.621-.394.83-.262.21-.604.313-1.026.313-.396 0-.748-.115-1.053-.348a1.071 1.071 0 0 1-.443-.928l.006-.018h.514c0 .273.094.482.28.625.188.143.42.214.696.214.271 0 .486-.062.645-.185a.592.592 0 0 0 .238-.498zM84.552 59.42a.65.65 0 0 0-.204-.488c-.137-.132-.379-.242-.727-.332-.42-.107-.748-.266-.984-.477a1.012 1.012 0 0 1-.354-.791c0-.333.127-.611.381-.835s.583-.335.986-.335c.436 0 .781.128 1.039.384.258.257.382.554.373.892l-.006.018h-.514c0-.25-.076-.452-.23-.607-.153-.154-.374-.23-.662-.23-.268 0-.473.064-.615.194s-.215.3-.215.509c0 .186.078.342.232.465.154.125.406.234.754.328.418.111.736.275.955.492.219.218.328.486.328.808 0 .345-.131.621-.394.83-.262.21-.604.313-1.026.313-.396 0-.748-.115-1.053-.348a1.071 1.071 0 0 1-.443-.928l.006-.018h.514c0 .273.094.482.28.625.188.143.42.214.696.214.271 0 .486-.062.645-.185a.592.592 0 0 0 .238-.498zM86.441 60.496H85.9v-4.273h.541v4.273zM87.453 60.496v-4.273h1.297c.416 0 .74.098.975.289.235.193.353.482.353.867 0 .19-.056.359-.169.51a1.013 1.013 0 0 1-.445.333c.24.055.43.181.566.378.138.198.207.428.207.689 0 .392-.119.69-.354.896-.236.207-.557.311-.961.311h-1.469zm.539-2.457h.87c.2 0 .363-.059.489-.177.125-.118.188-.283.188-.495 0-.23-.067-.402-.203-.518-.135-.114-.33-.172-.586-.172h-.758v1.362zm0 .455v1.547h.93c.244 0 .435-.064.571-.195.136-.129.204-.312.204-.551 0-.249-.057-.445-.17-.587-.113-.143-.289-.214-.525-.214h-1.01zM91.596 60.496h-.541v-4.273h.541v4.273zM93.146 60.041h1.881v.455h-2.42v-4.273h.539v3.818zM96.195 60.496h-.541v-4.273h.541v4.273zM97.208 60.496v-4.273h1.221c.521 0 .938.172 1.253.516s.473.787.473 1.33v.584c0 .547-.158.99-.473 1.331-.314.342-.732.513-1.253.513h-1.221zm.538-3.818v3.363h.683c.367 0 .657-.131.869-.391s.318-.593.318-.999v-.589c0-.403-.106-.734-.318-.994s-.502-.391-.869-.391h-.683zM102.988 59.395h-1.666l-.377 1.102h-.549l1.537-4.273h.462l1.513 4.273h-.549l-.371-1.102zm-1.5-.484h1.338l-.654-1.945h-.018l-.666 1.945zM104.453 60.496v-4.273h1.221c.521 0 .938.172 1.254.516.314.344.472.787.472 1.33v.584c0 .547-.157.99-.472 1.331-.315.342-.732.513-1.254.513h-1.221zm.539-3.818v3.363h.682c.367 0 .658-.131.869-.391.213-.26.318-.593.318-.999v-.589c0-.403-.105-.734-.318-.994-.211-.26-.502-.391-.869-.391h-.682zM110.495 58.516h-1.821v1.525h2.1v.455h-2.637v-4.273h2.607v.455h-2.07v1.383h1.821v.455z"/></g></svg>