<?xml version="1.0" encoding="utf-8"?>
<!-- Generator: Adobe Illustrator 16.0.4, SVG Export Plug-In . SVG Version: 6.00 Build 0)  -->
<!DOCTYPE svg PUBLIC "-//W3C//DTD SVG 1.1//EN" "http://www.w3.org/Graphics/SVG/1.1/DTD/svg11.dtd">
<svg version="1.1" id="Layer_1" xmlns="http://www.w3.org/2000/svg" xmlns:xlink="http://www.w3.org/1999/xlink" x="0px" y="0px"
	 width="57.428px" height="86.512px" viewBox="0 0 57.428 86.512" enable-background="new 0 0 57.428 86.512" xml:space="preserve">
<g>
	<g>
		<g>
			<path fill="#FFFFFF" d="M17.549,65.574h0.954c1.529,0,2.769,1.239,2.769,2.769v11.829c0,4.29-2.617,6.34-6.988,6.34
				s-6.8-2.05-6.8-6.34V65.574h0.972c1.52,0,2.752,1.231,2.752,2.752v11.656c0,1.97,0.863,3.238,3.076,3.238
				s3.266-1.269,3.266-3.238V65.574z"/>
		</g>
		<g>
			<path fill="#FFFFFF" d="M35.084,83.327v-0.214h-8.23v-5.343h3.994c1.669,0,3.021-1.354,3.021-3.022v-0.323h-7.016v-5.479h5.586
				c1.669,0,3.022-1.353,3.022-3.022v-0.377H23.131V86.35h8.93C33.73,86.35,35.084,84.997,35.084,83.327z"/>
		</g>
		<g>
			<path fill="#FFFFFF" d="M43.014,74.505h3.965c1.67,0,3.023,1.354,3.023,3.022v2.375c0,4.56-2.158,6.529-7.096,6.529
				s-6.935-1.97-6.935-6.449v-8.338c0-4.235,1.915-6.205,6.935-6.205c3.867,0,6.464,0.98,6.826,3.547
				c0.205,1.459-0.842,2.658-2.314,2.658h-1.14c0-1.942-0.485-2.913-3.372-2.913c-2.699,0-3.211,1.214-3.211,3.103v8.148
				c0,1.97,0.512,3.104,3.211,3.104c2.697,0,3.643-1.134,3.643-3.184v-2.024h-1.258c-1.258,0-2.277-1.021-2.277-2.278V74.505z"/>
		</g>
	</g>
	<g>
		<g>
			<path fill="#FFFFFF" d="M28.715,32.815l-2.357-2.356c-0.963-0.964-0.963-2.527,0-3.491l11.137-11.136
				c1.947-1.948,1.947-5.104,0-7.053L28.715,0l-6.24,6.24c-1.085,1.084-1.085,2.843,0,3.927l2.138,2.139l4.103-4.102l2.219,2.22
				c1.04,1.039,1.04,2.725,0,3.764L20.207,24.915c-2.098,2.098-2.098,5.499,0,7.598l8.508,8.507l9.922-9.923
				c1.316-1.316,1.316-3.45,0-4.767l-1.719-1.719L28.715,32.815z"/>
		</g>
		<g>
			<path fill="#FFFFFF" d="M43.145,18.386L41.02,20.51l8.205,8.204L24.612,53.325l1.741,1.742c1.305,1.304,3.418,1.304,4.721,0
				l26.354-26.354L47.1,18.386C46.008,17.293,44.236,17.293,43.145,18.386z"/>
		</g>
		<g>
			<path fill="#FFFFFF" d="M8.205,28.713L20.51,16.407l-1.971-1.971c-1.177-1.177-3.084-1.177-4.262,0L0,28.713l17.982,17.982
				c1.396,1.396,3.66,1.396,5.056,0l1.574-1.574L8.205,28.713z"/>
		</g>
	</g>
</g>
</svg>
