<?xml version="1.0" encoding="utf-8"?>
<!-- Generator: Adobe Illustrator 16.0.4, SVG Export Plug-In . SVG Version: 6.00 Build 0)  -->
<!DOCTYPE svg PUBLIC "-//W3C//DTD SVG 1.1//EN" "http://www.w3.org/Graphics/SVG/1.1/DTD/svg11.dtd">
<svg version="1.1" id="Layer_1" xmlns="http://www.w3.org/2000/svg" xmlns:xlink="http://www.w3.org/1999/xlink" x="0px" y="0px"
	 width="260px" height="300px" viewBox="0 -160 260 300" enable-background="new 0 -160 260 300" xml:space="preserve">
<rect x="-2" y="12.5" display="none" fill="#FFFFFF" width="263.75" height="290.298"/>
<polygon points="261.75,11 4.25,11 -2,11 -2,-163 261.75,-163 "/>
<path d="M0,74.911h0.011c1.093-35.048,29.76-63.124,64.969-63.124c35.208,0,63.876,28.076,64.968,63.124h0.018
	C130.025,110.868,159.098,140,194.957,140c35.894,0,64.991-29.189,64.991-65.198h-0.001c0.01-0.374,0.037-0.741,0.053-1.114V-160H0
	V74.911z"/>
<polygon points="-2,10 -2,75 0.011,74.911 0.125,70.896 1.657,50.193 5.46,16.167 1.427,8.893 "/>
<rect x="257.18" y="8.061" width="4.569" height="68.134"/>
<image display="none" overflow="visible" width="260" height="300" xlink:href="pattern.png"  transform="matrix(1 0 0 1 0 -161)">
</image>
</svg>
