<svg xmlns="http://www.w3.org/2000/svg" width="260" height="300" viewBox="0 -160 260 300"><path fill="#222" d="M261.75 11H-2v-174h263.75z"/><path fill="#222" d="M0 74.911h.011c1.093-35.048 29.76-63.124 64.969-63.124 35.208 0 63.876 28.076 64.968 63.124h.018c.059 35.957 29.132 65.089 64.991 65.089 35.895 0 64.991-29.189 64.991-65.198h-.001c.01-.374.037-.741.053-1.114V-160H0V74.911z"/><path fill="#222" d="M-2 10v65l2.011-.089.114-4.015 1.532-20.703L5.46 16.167 1.427 8.893zM257.18 8.061h4.569v68.134h-4.569z"/></svg>