<svg xmlns="http://www.w3.org/2000/svg" width="559.388" height="557.917" viewBox="199.41 0.149 559.388 557.917"><path fill="#FFF" d="M479.843 279.111c0-77.033 62.448-139.481 139.478-139.481s139.478 62.448 139.478 139.481H479.843zM479.253 279.111c77.034 0 139.478 62.444 139.478 139.474 0 77.037-62.443 139.481-139.478 139.481V279.111zM478.368 279.111c0 77.03-62.447 139.474-139.477 139.474-77.034 0-139.481-62.447-139.481-139.474h278.958zM477.192.149c-77.033 0-139.477 62.447-139.477 139.477 0 77.034 62.447 139.481 139.477 139.481V.149z"/></svg>