<?xml version="1.0" encoding="utf-8"?>
<!-- Generator: Adobe Illustrator 16.0.4, SVG Export Plug-In . SVG Version: 6.00 Build 0)  -->
<!DOCTYPE svg PUBLIC "-//W3C//DTD SVG 1.1//EN" "http://www.w3.org/Graphics/SVG/1.1/DTD/svg11.dtd">
<svg version="1.1" id="Layer_1" xmlns="http://www.w3.org/2000/svg" xmlns:xlink="http://www.w3.org/1999/xlink" x="0px" y="0px"
	 width="559.388px" height="557.917px" viewBox="199.41 0.149 559.388 557.917"
	 enable-background="new 199.41 0.149 559.388 557.917" xml:space="preserve">
<path fill="#FFFFFF" d="M479.843,279.111c0-77.033,62.448-139.481,139.478-139.481c77.03,0,139.478,62.448,139.478,139.481H479.843z
	"/>
<path fill="#FFFFFF" d="M479.253,279.111c77.034,0,139.478,62.444,139.478,139.474c0,77.037-62.443,139.481-139.478,139.481V279.111
	z"/>
<path fill="#FFFFFF" d="M478.368,279.111c0,77.03-62.447,139.474-139.477,139.474c-77.034,0-139.481-62.447-139.481-139.474H478.368
	z"/>
<path fill="#FFFFFF" d="M477.192,0.149c-77.033,0-139.477,62.447-139.477,139.477c0,77.034,62.447,139.481,139.477,139.481V0.149z"
	/>
</svg>
