<svg version="1.1" id="Layer_1" xmlns="http://www.w3.org/2000/svg" xmlns:xlink="http://www.w3.org/1999/xlink" x="0px" y="0px" viewBox="0 0 150.396 150" enable-background="new 0 0 150.396 150" xml:space="preserve">
<path fill="#F8465C" d="M75.156,74.762c0-20.634,16.727-37.361,37.36-37.361s37.36,16.727,37.36,37.361H75.156z"/>
<path fill="#F8465C" d="M74.998,74.762c20.634,0,37.36,16.726,37.36,37.359c0,20.635-16.726,37.361-37.36,37.361V74.762z"/>
<path fill="#F8465C" d="M74.761,74.762c0,20.633-16.727,37.359-37.36,37.359c-20.634,0-37.361-16.727-37.361-37.359H74.761z"/>
<path fill="#F8465C" d="M74.446,0.04c-20.634,0-37.36,16.727-37.36,37.36c0,20.634,16.727,37.361,37.36,37.361V0.04z"/>
</svg>
