
<svg version="1.1" id="Layer_1" xmlns="http://www.w3.org/2000/svg" xmlns:xlink="http://www.w3.org/1999/xlink" x="0px" y="0px"
	 width="380.964px" height="347.156px" viewBox="107.151 172.985 380.964 347.156"
	 enable-background="new 107.151 172.985 380.964 347.156" xml:space="preserve">
<path fill="#FFFFFF" d="M107.151,394.157v-95.245c0-19.726,15.991-35.717,35.717-35.717h47.622l81.256-78.398
	c5.442-6.115,14.812-6.661,20.927-1.218c3.183,2.833,4.993,6.898,4.968,11.159v303.593c0.048,8.187-6.549,14.861-14.735,14.909
	c-4.261,0.025-8.326-1.784-11.159-4.968l-81.256-78.398h-47.622C123.142,429.874,107.151,413.883,107.151,394.157L107.151,394.157z
	 M365.562,413.206c36.302-37.035,36.302-96.307,0-133.342c-4.659-4.641-12.197-4.626-16.838,0.032
	c-2.11,2.119-3.347,4.956-3.462,7.944v117.389c0.253,6.57,5.785,11.692,12.355,11.438
	C360.606,416.554,363.443,415.317,365.562,413.206z M378.657,518.75c95.095-44.614,136.019-157.87,91.405-252.965
	c-18.862-40.205-51.2-72.542-91.405-91.405c-12.384-4.425-26.01,2.027-30.435,14.411c-3.884,10.871,0.589,22.961,10.611,28.688
	c71.293,33.81,101.679,119.012,67.868,190.305c-14.119,29.772-38.096,53.749-67.868,67.868
	c-11.418,6.523-15.387,21.067-8.864,32.486C355.697,518.161,367.787,522.634,378.657,518.75z"/>
</svg>
