<svg xmlns="http://www.w3.org/2000/svg" width="380.964" height="347.156" viewBox="107.151 172.985 380.964 347.156"><path fill="#FFF" d="M107.151 394.157v-95.245c0-19.726 15.991-35.717 35.717-35.717h47.622l81.256-78.398c5.442-6.115 14.812-6.661 20.927-1.218a14.822 14.822 0 0 1 4.968 11.159v303.593c.048 8.187-6.549 14.861-14.735 14.909a14.818 14.818 0 0 1-11.159-4.968l-81.256-78.398h-47.622c-19.727 0-35.718-15.991-35.718-35.717zm258.411 19.049c36.302-37.035 36.302-96.307 0-133.342-4.659-4.641-12.197-4.626-16.838.032a11.91 11.91 0 0 0-3.462 7.944v117.389c.253 6.57 5.785 11.692 12.355 11.438a11.896 11.896 0 0 0 7.945-3.461zm13.095 105.544c95.095-44.614 136.019-157.87 91.405-252.965a190.198 190.198 0 0 0-91.405-91.405c-12.384-4.425-26.01 2.027-30.435 14.411-3.884 10.871.589 22.961 10.611 28.688 71.293 33.81 101.679 119.012 67.868 190.305a142.867 142.867 0 0 1-67.868 67.868c-11.418 6.523-15.387 21.067-8.864 32.486 5.728 10.023 17.818 14.496 28.688 10.612z"/></svg>